SplineFontDB: 3.0
FontName: slave
FullName: slave
FamilyName: slave
Weight: Book
Copyright: Copyright (c) 2019, marc,,,
Version: 001.000
ItalicAngle: 0
UnderlinePosition: -150
UnderlineWidth: 50
Ascent: 800
Descent: 200
InvalidEm: 0
sfntRevision: 0x00010000
LayerCount: 2
Layer: 0 1 "Back" 1
Layer: 1 1 "Fore" 0
XUID: [1021 574 1397497519 7971659]
StyleMap: 0x0000
FSType: 0
OS2Version: 4
OS2_WeightWidthSlopeOnly: 0
OS2_UseTypoMetrics: 1
CreationTime: 1576087055
ModificationTime: 1577171146
PfmFamily: 17
TTFWeight: 400
TTFWidth: 5
LineGap: 90
VLineGap: 0
Panose: 2 0 5 3 0 0 0 0 0 0
OS2TypoAscent: 800
OS2TypoAOffset: 0
OS2TypoDescent: -200
OS2TypoDOffset: 0
OS2TypoLinegap: 90
OS2WinAscent: 1146
OS2WinAOffset: 0
OS2WinDescent: 1016
OS2WinDOffset: 0
HheadAscent: 1146
HheadAOffset: 0
HheadDescent: -1016
HheadDOffset: 0
OS2SubXSize: 650
OS2SubYSize: 700
OS2SubXOff: 0
OS2SubYOff: 140
OS2SupXSize: 650
OS2SupYSize: 700
OS2SupXOff: 0
OS2SupYOff: 480
OS2StrikeYSize: 49
OS2StrikeYPos: 258
OS2CapHeight: 883
OS2XHeight: 573
OS2Vendor: 'PfEd'
OS2CodePages: 00000001.00000000
OS2UnicodeRanges: 00000003.00000000.00000000.00000000
MarkAttachClasses: 1
DEI: 91125
ShortTable: cvt  2
  33
  633
EndShort
ShortTable: maxp 16
  1
  0
  104
  151
  8
  0
  0
  2
  0
  1
  1
  0
  64
  46
  0
  0
EndShort
LangName: 1033 "" "" "Regular" "FontForge 2.0 : slave : 18-12-2019"
GaspTable: 1 65535 2 0
Encoding: UnicodeBmp
UnicodeInterp: none
NameList: AGL For New Fonts
DisplaySize: -48
AntiAlias: 1
FitToEm: 0
WinInfo: 21 21 9
BeginChars: 65539 106

StartChar: .notdef
Encoding: 65536 -1 0
Width: 364
Flags: W
LayerCount: 2
Fore
SplineSet
33 0 m 1,0,-1
 33 666 l 1,1,-1
 298 666 l 1,2,-1
 298 0 l 1,3,-1
 33 0 l 1,0,-1
66 33 m 1,4,-1
 265 33 l 1,5,-1
 265 633 l 1,6,-1
 66 633 l 1,7,-1
 66 33 l 1,4,-1
EndSplineSet
Validated: 1
EndChar

StartChar: exclam
Encoding: 33 33 3
Width: 430
Flags: W
LayerCount: 2
Fore
SplineSet
89 736 m 0,0,1
 72 737 72 737 59.5 726 c 128,-1,2
 47 715 47 715 46 699 c 0,3,4
 36 546 36 546 49.5 335 c 128,-1,5
 63 124 63 124 86.5 -76.5 c 128,-1,6
 110 -277 110 -277 110 -280 c 0,7,8
 112 -296 112 -296 124.5 -307 c 128,-1,9
 137 -318 137 -318 153 -317 c 128,-1,10
 169 -316 169 -316 180 -303 c 128,-1,11
 191 -290 191 -290 190 -274 c 0,12,13
 190 -267 190 -267 166.5 -66.5 c 128,-1,14
 143 134 143 134 129.5 340 c 128,-1,15
 116 546 116 546 126 693 c 0,16,17
 127 704 127 704 122 713.5 c 128,-1,18
 117 723 117 723 108 729 c 128,-1,19
 99 735 99 735 89 736 c 0,0,1
276 -479 m 0,20,21
 277 -469 277 -469 274 -460 c 0,22,23
 263 -431 263 -431 242.5 -412 c 128,-1,24
 222 -393 222 -393 197 -386 c 128,-1,25
 172 -379 172 -379 146 -380 c 128,-1,26
 120 -381 120 -381 96 -390 c 0,27,28
 47 -407 47 -407 18 -452.5 c 128,-1,29
 -11 -498 -11 -498 5 -556 c 0,30,31
 14 -586 14 -586 35 -607 c 128,-1,32
 56 -628 56 -628 82 -637.5 c 128,-1,33
 108 -647 108 -647 137.5 -649.5 c 128,-1,34
 167 -652 167 -652 191 -644 c 0,35,36
 240 -630 240 -630 265.5 -585 c 128,-1,37
 291 -540 291 -540 276 -479 c 0,20,21
193 -477 m 0,38,39
 193 -482 193 -482 195 -486 c 0,40,41
 202 -507 202 -507 202.5 -522.5 c 128,-1,42
 203 -538 203 -538 197.5 -546.5 c 128,-1,43
 192 -555 192 -555 185.5 -559.5 c 128,-1,44
 179 -564 179 -564 169 -567 c 0,45,46
 142 -575 142 -575 114.5 -563.5 c 128,-1,47
 87 -552 87 -552 82 -534 c 0,48,49
 72 -498 72 -498 102 -476 c 0,50,51
 118 -465 118 -465 137 -461.5 c 128,-1,52
 156 -458 156 -458 171 -462.5 c 128,-1,53
 186 -467 186 -467 193 -477 c 0,38,39
243 738 m 0,54,55
 233 739 233 739 223.5 734 c 128,-1,56
 214 729 214 729 208 720.5 c 128,-1,57
 202 712 202 712 201 701 c 0,58,59
 192 566 192 566 166.5 337 c 128,-1,60
 141 108 141 108 124 -60 c 128,-1,61
 107 -228 107 -228 110 -280 c 0,62,63
 112 -296 112 -296 124.5 -307 c 128,-1,64
 137 -318 137 -318 153 -317 c 128,-1,65
 169 -316 169 -316 180 -303 c 128,-1,66
 191 -290 191 -290 190 -274 c 0,67,68
 187 -234 187 -234 204.5 -68 c 128,-1,69
 222 98 222 98 246.5 327.5 c 128,-1,70
 271 557 271 557 281 696 c 0,71,72
 282 712 282 712 271 724.5 c 128,-1,73
 260 737 260 737 243 738 c 0,54,55
88.5 656 m 128,-1,75
 105 657 105 657 116 669.5 c 128,-1,76
 127 682 127 682 126 698 c 0,77,78
 126 700 126 700 130.5 705 c 128,-1,79
 135 710 135 710 148 715.5 c 128,-1,80
 161 721 161 721 177 720 c 256,81,82
 193 719 193 719 197 715 c 128,-1,83
 201 711 201 711 201 701 c 0,84,85
 200 684 200 684 211 671.5 c 128,-1,86
 222 659 222 659 238 658 c 0,87,88
 246 658 246 658 254 660.5 c 128,-1,89
 262 663 262 663 267.5 668.5 c 128,-1,90
 273 674 273 674 276.5 681 c 128,-1,91
 280 688 280 688 281 696 c 0,92,93
 283 743 283 743 252.5 770 c 128,-1,94
 222 797 222 797 182 800 c 0,95,96
 153 801 153 801 122.5 792 c 128,-1,97
 92 783 92 783 68 757 c 128,-1,98
 44 731 44 731 46 694 c 0,99,100
 47 678 47 678 59.5 666.5 c 128,-1,74
 72 655 72 655 88.5 656 c 128,-1,75
EndSplineSet
Validated: 37
EndChar

StartChar: quotedbl
Encoding: 34 34 4
Width: 367
Flags: W
LayerCount: 2
Fore
SplineSet
57.5 837 m 128,-1,1
 41 838 41 838 28.5 827 c 128,-1,2
 16 816 16 816 15 800 c 0,3,4
 6 674 6 674 3 617.5 c 128,-1,5
 0 561 0 561 0 544 c 128,-1,6
 0 527 0 527 3 504 c 128,-1,7
 6 481 6 481 8 458 c 0,8,9
 9 442 9 442 22 431 c 128,-1,10
 35 420 35 420 51 421 c 128,-1,11
 67 422 67 422 78 434.5 c 128,-1,12
 89 447 89 447 88 464 c 0,13,14
 86 495 86 495 82 518 c 0,15,16
 79 537 79 537 80 567.5 c 128,-1,17
 81 598 81 598 92 761 c 0,18,19
 93 768 93 768 93 772 c 128,-1,20
 93 776 93 776 93.5 782.5 c 128,-1,21
 94 789 94 789 94 795 c 0,22,23
 96 811 96 811 85 823.5 c 128,-1,0
 74 836 74 836 57.5 837 c 128,-1,1
186 837 m 0,24,25
 169 838 169 838 156.5 827 c 128,-1,26
 144 816 144 816 143 800 c 0,27,28
 135 674 135 674 132 617.5 c 128,-1,29
 129 561 129 561 128.5 544 c 128,-1,30
 128 527 128 527 131.5 504 c 128,-1,31
 135 481 135 481 137 458 c 0,32,33
 138 442 138 442 150.5 431 c 128,-1,34
 163 420 163 420 179.5 421 c 128,-1,35
 196 422 196 422 207 434.5 c 128,-1,36
 218 447 218 447 216 464 c 0,37,38
 214 495 214 495 210 518 c 0,39,40
 207 537 207 537 208.5 567.5 c 128,-1,41
 210 598 210 598 221 761 c 0,42,43
 222 783 222 783 223 795 c 0,44,45
 224 803 224 803 221 810.5 c 128,-1,46
 218 818 218 818 213 823.5 c 128,-1,47
 208 829 208 829 201 833 c 128,-1,48
 194 837 194 837 186 837 c 0,24,25
EndSplineSet
Validated: 41
EndChar

StartChar: numbersign
Encoding: 35 35 5
Width: 1066
Flags: W
LayerCount: 2
Fore
SplineSet
262 837 m 128,-1,1
 246 838 246 838 233 827 c 128,-1,2
 220 816 220 816 219 800 c 0,3,4
 209 614 209 614 209 412 c 128,-1,5
 209 210 209 210 226 25.5 c 128,-1,6
 243 -159 243 -159 271 -220 c 0,7,8
 276 -229 276 -229 284.5 -235.5 c 128,-1,9
 293 -242 293 -242 303.5 -242.5 c 128,-1,10
 314 -243 314 -243 324 -239 c 0,11,12
 339 -232 339 -232 344.5 -216.5 c 128,-1,13
 350 -201 350 -201 343 -186 c 0,14,15
 313 -120 313 -120 297.5 212.5 c 128,-1,16
 282 545 282 545 299 795 c 0,17,18
 300 811 300 811 289 823.5 c 128,-1,0
 278 836 278 836 262 837 c 128,-1,1
641 824.5 m 128,-1,20
 625 825 625 825 613 813.5 c 128,-1,21
 601 802 601 802 601 785 c 0,22,23
 598 611 598 611 598 242.5 c 128,-1,24
 598 -126 598 -126 597 -215 c 0,25,26
 597 -231 597 -231 609 -243 c 128,-1,27
 621 -255 621 -255 637 -255 c 128,-1,28
 653 -255 653 -255 665 -243.5 c 128,-1,29
 677 -232 677 -232 677 -216 c 0,30,31
 678 -145 678 -145 678 242.5 c 128,-1,32
 678 630 678 630 681 784 c 0,33,34
 681 800 681 800 669 812 c 128,-1,19
 657 824 657 824 641 824.5 c 128,-1,20
-35 480 m 128,-1,36
 -33 464 -33 464 -20 453.5 c 128,-1,37
 -7 443 -7 443 9 445 c 0,38,39
 81 453 81 453 215.5 443.5 c 128,-1,40
 350 434 350 434 470.5 419 c 128,-1,41
 591 404 591 404 719.5 397.5 c 128,-1,42
 848 391 848 391 907 405 c 0,43,44
 915 407 915 407 921.5 411.5 c 128,-1,45
 928 416 928 416 932 422.5 c 128,-1,46
 936 429 936 429 937.5 437 c 128,-1,47
 939 445 939 445 937 453 c 0,48,49
 934 469 934 469 920 478 c 128,-1,50
 906 487 906 487 890 483 c 0,51,52
 841 472 841 472 722.5 479.5 c 128,-1,53
 604 487 604 487 480 502 c 128,-1,54
 356 517 356 517 220 525.5 c 128,-1,55
 84 534 84 534 0 525 c 0,56,57
 -16 523 -16 523 -26.5 509.5 c 128,-1,35
 -37 496 -37 496 -35 480 c 128,-1,36
-22 145.5 m 128,-1,59
 -20 129 -20 129 -7 119 c 128,-1,60
 6 109 6 109 22 110 c 0,61,62
 94 119 94 119 228 109 c 128,-1,63
 362 99 362 99 483 84.5 c 128,-1,64
 604 70 604 70 732.5 63 c 128,-1,65
 861 56 861 56 920 70 c 0,66,67
 936 74 936 74 945 88 c 128,-1,68
 954 102 954 102 950.5 118 c 128,-1,69
 947 134 947 134 932.5 143 c 128,-1,70
 918 152 918 152 903 149 c 0,71,72
 854 138 854 138 735.5 145.5 c 128,-1,73
 617 153 617 153 492.5 167.5 c 128,-1,74
 368 182 368 182 232.5 190.5 c 128,-1,75
 97 199 97 199 13 190 c 0,76,77
 -3 188 -3 188 -13.5 175 c 128,-1,58
 -24 162 -24 162 -22 145.5 c 128,-1,59
EndSplineSet
Validated: 37
EndChar

StartChar: dollar
Encoding: 36 36 6
Width: 1000
Flags: W
LayerCount: 2
Fore
SplineSet
721 444 m 0,0,1
 732 444 732 444 741 449 c 128,-1,2
 750 454 750 454 755.5 462.5 c 128,-1,3
 761 471 761 471 762 482 c 0,4,5
 763 537 763 537 754 584 c 0,6,7
 743 643 743 643 716 688 c 128,-1,8
 689 733 689 733 652.5 759 c 128,-1,9
 616 785 616 785 571.5 800.5 c 128,-1,10
 527 816 527 816 481 816 c 128,-1,11
 435 816 435 816 389 809 c 0,12,13
 333 798 333 798 279.5 773 c 128,-1,14
 226 748 226 748 183 713 c 128,-1,15
 140 678 140 678 118 629.5 c 128,-1,16
 96 581 96 581 106 529 c 0,17,18
 118 466 118 466 150 419.5 c 128,-1,19
 182 373 182 373 225.5 346.5 c 128,-1,20
 269 320 269 320 322 301 c 128,-1,21
 375 282 375 282 430.5 268.5 c 128,-1,22
 486 255 486 255 541 240.5 c 128,-1,23
 596 226 596 226 644.5 203 c 128,-1,24
 693 180 693 180 730 146.5 c 128,-1,25
 767 113 767 113 789 57.5 c 128,-1,26
 811 2 811 2 811 -72 c 0,27,28
 812 -100 812 -100 776.5 -129 c 128,-1,29
 741 -158 741 -158 683.5 -182 c 128,-1,30
 626 -206 626 -206 545.5 -220 c 128,-1,31
 465 -234 465 -234 382 -231 c 0,32,33
 242 -226 242 -226 158.5 -177.5 c 128,-1,34
 75 -129 75 -129 78 -44 c 0,35,36
 79 -28 79 -28 67.5 -16.5 c 128,-1,37
 56 -5 56 -5 40 -4 c 128,-1,38
 24 -3 24 -3 12.5 -14.5 c 128,-1,39
 1 -26 1 -26 0 -42 c 0,40,41
 -2 -97 -2 -97 19.5 -142.5 c 128,-1,42
 41 -188 41 -188 78 -217.5 c 128,-1,43
 115 -247 115 -247 165.5 -267.5 c 128,-1,44
 216 -288 216 -288 269 -297.5 c 128,-1,45
 322 -307 322 -307 380 -309 c 0,46,47
 446 -311 446 -311 515.5 -303.5 c 128,-1,48
 585 -296 585 -296 652.5 -277.5 c 128,-1,49
 720 -259 720 -259 772.5 -232 c 128,-1,50
 825 -205 825 -205 857.5 -163.5 c 128,-1,51
 890 -122 890 -122 889 -72 c 0,52,53
 889 12 889 12 866 78.5 c 128,-1,54
 843 145 843 145 804.5 188.5 c 128,-1,55
 766 232 766 232 716 264.5 c 128,-1,56
 666 297 666 297 609.5 317.5 c 128,-1,57
 553 338 553 338 496.5 355 c 128,-1,58
 440 372 440 372 387 388 c 128,-1,59
 334 404 334 404 291.5 423.5 c 128,-1,60
 249 443 249 443 220 473 c 128,-1,61
 191 503 191 503 183 543 c 0,62,63
 173 597 173 597 238 655 c 128,-1,64
 303 713 303 713 404 732 c 0,65,66
 442 738 442 738 478 738.5 c 128,-1,67
 514 739 514 739 547 728 c 128,-1,68
 580 717 580 717 606 698 c 128,-1,69
 632 679 632 679 651 646 c 128,-1,70
 670 613 670 613 678 569 c 0,71,72
 685 531 685 531 684 484 c 0,73,74
 683 468 683 468 694 456 c 128,-1,75
 705 444 705 444 721 444 c 0,0,1
429.5 973 m 128,-1,77
 413 974 413 974 400.5 963 c 128,-1,78
 388 952 388 952 387 936 c 0,79,80
 371 653 371 653 371.5 157 c 128,-1,81
 372 -339 372 -339 380 -449 c 0,82,83
 381 -465 381 -465 394 -476 c 128,-1,84
 407 -487 407 -487 423 -486 c 128,-1,85
 439 -485 439 -485 450 -472.5 c 128,-1,86
 461 -460 461 -460 460 -443 c 0,87,88
 457 -403 457 -403 455 -230.5 c 128,-1,89
 453 -58 453 -58 452 155.5 c 128,-1,90
 451 369 451 369 455 591.5 c 128,-1,91
 459 814 459 814 467 931 c 0,92,93
 468 947 468 947 457 959.5 c 128,-1,76
 446 972 446 972 429.5 973 c 128,-1,77
EndSplineSet
Validated: 37
EndChar

StartChar: percent
Encoding: 37 37 7
Width: 1284
Flags: W
LayerCount: 2
Fore
SplineSet
1112 917.5 m 128,-1,1
 1099 918 1099 918 1089.5 908.5 c 128,-1,2
 1080 899 1080 899 1080 886 c 0,3,4
 1077 786 1077 786 835 545 c 0,5,6
 757 467 757 467 479 214 c 0,7,8
 202 -40 202 -40 101 -162 c 0,9,10
 2 -283 2 -283 0 -351 c 0,11,12
 0 -357 0 -357 2.5 -363 c 128,-1,13
 5 -369 5 -369 9 -373.5 c 128,-1,14
 13 -378 13 -378 19 -380.5 c 128,-1,15
 25 -383 25 -383 31 -383 c 0,16,17
 44 -384 44 -384 54 -374.5 c 128,-1,18
 64 -365 64 -365 64 -352 c 0,19,20
 65 -315 65 -315 124.5 -243 c 128,-1,21
 184 -171 184 -171 279 -82 c 128,-1,22
 374 7 374 7 488.5 110 c 128,-1,23
 603 213 603 213 717.5 321 c 128,-1,24
 832 429 832 429 927 530 c 128,-1,25
 1022 631 1022 631 1082 725 c 128,-1,26
 1142 819 1142 819 1144 885 c 0,27,28
 1144 898 1144 898 1134.5 907.5 c 128,-1,0
 1125 917 1125 917 1112 917.5 c 128,-1,1
539 782 m 1,29,30
 543 793 543 793 540 803 c 0,31,32
 525 849 525 849 496 882 c 128,-1,33
 467 915 467 915 431.5 929 c 128,-1,34
 396 943 396 943 355 945.5 c 128,-1,35
 314 948 314 948 277 935 c 0,36,37
 234 922 234 922 198 894.5 c 128,-1,38
 162 867 162 867 136 827 c 128,-1,39
 110 787 110 787 102 736.5 c 128,-1,40
 94 686 94 686 108 627 c 0,41,42
 124 564 124 564 171.5 522 c 128,-1,43
 219 480 219 480 278.5 466 c 128,-1,44
 338 452 338 452 395 466 c 0,45,46
 483 488 483 488 526.5 571 c 128,-1,47
 570 654 570 654 539 782 c 1,29,30
471 802 m 1,48,49
 469 793 469 793 471 785 c 0,50,51
 474 777 474 777 475 770 c 0,52,53
 487 724 487 724 487.5 686 c 128,-1,54
 488 648 488 648 479.5 622 c 128,-1,55
 471 596 471 596 455 576.5 c 128,-1,56
 439 557 439 557 420.5 546 c 128,-1,57
 402 535 402 535 379 529 c 0,58,59
 314 513 314 513 250.5 545.5 c 128,-1,60
 187 578 187 578 171 642 c 0,61,62
 151 722 151 722 182.5 780.5 c 128,-1,63
 214 839 214 839 275 866 c 0,64,65
 332 893 332 893 389 876 c 128,-1,66
 446 859 446 859 471 802 c 1,48,49
1046 -78 m 1,67,68
 1049 -67 1049 -67 1046 -57 c 0,69,70
 1035 -20 1035 -20 1013.5 8.5 c 128,-1,71
 992 37 992 37 965.5 53.5 c 128,-1,72
 939 70 939 70 908.5 78.5 c 128,-1,73
 878 87 878 87 846 85.5 c 128,-1,74
 814 84 814 84 784 75 c 0,75,76
 741 62 741 62 704.5 34.5 c 128,-1,77
 668 7 668 7 642.5 -33 c 128,-1,78
 617 -73 617 -73 609 -123.5 c 128,-1,79
 601 -174 601 -174 615 -234 c 0,80,81
 630 -296 630 -296 677.5 -338.5 c 128,-1,82
 725 -381 725 -381 784.5 -394.5 c 128,-1,83
 844 -408 844 -408 901 -394 c 0,84,85
 989 -372 989 -372 1032.5 -289 c 128,-1,86
 1076 -206 1076 -206 1046 -78 c 1,67,68
978 -58 m 1,87,88
 976 -67 976 -67 978 -75 c 256,89,90
 980 -83 980 -83 982 -90 c 0,91,92
 995 -150 995 -150 993.5 -192 c 128,-1,93
 992 -234 992 -234 975.5 -263 c 128,-1,94
 959 -292 959 -292 936.5 -308 c 128,-1,95
 914 -324 914 -324 886 -331 c 0,96,97
 820 -347 820 -347 756.5 -314.5 c 128,-1,98
 693 -282 693 -282 678 -218 c 0,99,100
 658 -139 658 -139 689.5 -80 c 128,-1,101
 721 -21 721 -21 782 5 c 0,102,103
 839 32 839 32 896 15.5 c 128,-1,104
 953 -1 953 -1 978 -58 c 1,87,88
EndSplineSet
Validated: 41
EndChar

StartChar: ampersand
Encoding: 38 38 8
Width: 1000
Flags: W
LayerCount: 2
Fore
SplineSet
862 -516 m 0,0,1
 867 -510 867 -510 869 -502 c 128,-1,2
 871 -494 871 -494 870.5 -486.5 c 128,-1,3
 870 -479 870 -479 866 -472 c 128,-1,4
 862 -465 862 -465 856 -460 c 0,5,6
 796 -411 796 -411 702 -308 c 1,7,8
 766 -243 766 -243 813 -168.5 c 128,-1,9
 860 -94 860 -94 883 -23 c 0,10,11
 888 -7 888 -7 880 7.5 c 128,-1,12
 872 22 872 22 856.5 27 c 128,-1,13
 841 32 841 32 826 24 c 128,-1,14
 811 16 811 16 806 1 c 0,15,16
 788 -58 788 -58 746 -124.5 c 128,-1,17
 704 -191 704 -191 649 -248 c 1,18,19
 453 -22 453 -22 345 181 c 1,20,21
 375 205 375 205 424 240 c 128,-1,22
 473 275 473 275 507 299 c 128,-1,23
 541 323 541 323 580.5 355.5 c 128,-1,24
 620 388 620 388 643.5 414.5 c 128,-1,25
 667 441 667 441 682 472 c 128,-1,26
 697 503 697 503 695 532 c 0,27,28
 690 608 690 608 656.5 670.5 c 128,-1,29
 623 733 623 733 564 769 c 128,-1,30
 505 805 505 805 433 800 c 0,31,32
 372 796 372 796 311 760 c 0,33,34
 252 726 252 726 217.5 677 c 128,-1,35
 183 628 183 628 172 574 c 128,-1,36
 161 520 161 520 167.5 456 c 128,-1,37
 174 392 174 392 193.5 331 c 128,-1,38
 213 270 213 270 244 203 c 1,39,40
 188 157 188 157 145 115 c 128,-1,41
 102 73 102 73 63 17 c 128,-1,42
 24 -39 24 -39 8.5 -91 c 128,-1,43
 -7 -143 -7 -143 2.5 -204.5 c 128,-1,44
 12 -266 12 -266 55 -325 c 0,45,46
 65 -338 65 -338 74 -350 c 0,47,48
 124 -411 124 -411 184 -444.5 c 128,-1,49
 244 -478 244 -478 302 -484 c 128,-1,50
 360 -490 360 -490 421.5 -476 c 128,-1,51
 483 -462 483 -462 537.5 -433 c 128,-1,52
 592 -404 592 -404 643 -362 c 1,53,54
 741 -470 741 -470 806 -522 c 0,55,56
 818 -532 818 -532 835 -530.5 c 128,-1,57
 852 -529 852 -529 862 -516 c 0,0,1
590 -302 m 1,58,59
 532 -349 532 -349 474 -375.5 c 128,-1,60
 416 -402 416 -402 357 -407.5 c 128,-1,61
 298 -413 298 -413 240.5 -385 c 128,-1,62
 183 -357 183 -357 135 -297 c 0,63,64
 127 -288 127 -288 120 -278 c 0,65,66
 83 -228 83 -228 78.5 -176.5 c 128,-1,67
 74 -125 74 -125 101 -73.5 c 128,-1,68
 128 -22 128 -22 171.5 26.5 c 128,-1,69
 215 75 215 75 281 130 c 1,70,71
 394 -76 394 -76 590 -302 c 1,58,59
309 254 m 1,72,73
 161 580 161 580 351 691 c 0,74,75
 396 717 396 717 439 720 c 0,76,77
 484 724 484 724 522.5 701 c 128,-1,78
 561 678 561 678 586 632.5 c 128,-1,79
 611 587 611 587 615 527 c 0,80,81
 616 518 616 518 608 505 c 128,-1,82
 600 492 600 492 578.5 471.5 c 128,-1,83
 557 451 557 451 538 434 c 128,-1,84
 519 417 519 417 479.5 386 c 128,-1,85
 440 355 440 355 414.5 335.5 c 128,-1,86
 389 316 389 316 337 276 c 0,87,88
 331 271 331 271 327.5 268.5 c 128,-1,89
 324 266 324 266 318.5 262 c 128,-1,90
 313 258 313 258 309 254 c 1,72,73
EndSplineSet
Validated: 41
EndChar

StartChar: quotesingle
Encoding: 39 39 9
Width: 289
Flags: W
LayerCount: 2
Fore
SplineSet
57.5 837 m 128,-1,1
 41 838 41 838 28.5 827 c 128,-1,2
 16 816 16 816 15 800 c 0,3,4
 6 674 6 674 3 617.5 c 128,-1,5
 0 561 0 561 0 544 c 128,-1,6
 0 527 0 527 3 504 c 128,-1,7
 6 481 6 481 8 458 c 0,8,9
 9 442 9 442 22 431 c 128,-1,10
 35 420 35 420 51 421 c 128,-1,11
 67 422 67 422 78 434.5 c 128,-1,12
 89 447 89 447 88 464 c 0,13,14
 86 495 86 495 82 518 c 0,15,16
 79 537 79 537 80 567.5 c 128,-1,17
 81 598 81 598 92 761 c 0,18,19
 93 768 93 768 93 772 c 128,-1,20
 93 776 93 776 93.5 782.5 c 128,-1,21
 94 789 94 789 94 795 c 0,22,23
 96 811 96 811 85 823.5 c 128,-1,0
 74 836 74 836 57.5 837 c 128,-1,1
EndSplineSet
Validated: 41
EndChar

StartChar: parenleft
Encoding: 40 40 10
Width: 412
Flags: W
LayerCount: 2
Fore
SplineSet
339 1005.5 m 128,-1,1
 334 1020 334 1020 320 1027 c 128,-1,2
 306 1034 306 1034 292 1029 c 0,3,4
 140 978 140 978 59 704 c 0,5,6
 31 610 31 610 15.5 498.5 c 128,-1,7
 0 387 0 387 -1.5 272.5 c 128,-1,8
 -3 158 -3 158 13 47.5 c 128,-1,9
 29 -63 29 -63 60 -153 c 128,-1,10
 91 -243 91 -243 145.5 -307.5 c 128,-1,11
 200 -372 200 -372 272 -393 c 0,12,13
 286 -397 286 -397 299.5 -389.5 c 128,-1,14
 313 -382 313 -382 317.5 -367.5 c 128,-1,15
 322 -353 322 -353 314.5 -339.5 c 128,-1,16
 307 -326 307 -326 293 -322 c 0,17,18
 232 -304 232 -304 184.5 -230.5 c 128,-1,19
 137 -157 137 -157 112 -50 c 128,-1,20
 87 57 87 57 78.5 182 c 128,-1,21
 70 307 70 307 83.5 439 c 128,-1,22
 97 571 97 571 130 683 c 0,23,24
 152 757 152 757 181.5 815 c 128,-1,25
 211 873 211 873 245 909.5 c 128,-1,26
 279 946 279 946 315 958 c 0,27,28
 330 963 330 963 337 977 c 128,-1,0
 344 991 344 991 339 1005.5 c 128,-1,1
EndSplineSet
Validated: 41
EndChar

StartChar: parenright
Encoding: 41 41 11
Width: 412
Flags: W
LayerCount: 2
Fore
SplineSet
0.5 1005.5 m 128,-1,1
 5 1020 5 1020 19 1027 c 128,-1,2
 33 1034 33 1034 48 1029 c 0,3,4
 200 978 200 978 281 704 c 0,5,6
 308 610 308 610 323.5 498.5 c 128,-1,7
 339 387 339 387 341 272.5 c 128,-1,8
 343 158 343 158 327 47.5 c 128,-1,9
 311 -63 311 -63 280 -153 c 128,-1,10
 249 -243 249 -243 194 -307.5 c 128,-1,11
 139 -372 139 -372 68 -393 c 0,12,13
 58 -396 58 -396 48.5 -393.5 c 128,-1,14
 39 -391 39 -391 31.5 -384 c 128,-1,15
 24 -377 24 -377 22 -368 c 0,16,17
 17 -353 17 -353 24.5 -339.5 c 128,-1,18
 32 -326 32 -326 47 -322 c 0,19,20
 108 -304 108 -304 155 -230.5 c 128,-1,21
 202 -157 202 -157 227 -50 c 128,-1,22
 252 57 252 57 260.5 182 c 128,-1,23
 269 307 269 307 255.5 439 c 128,-1,24
 242 571 242 571 209 683 c 256,25,26
 176 795 176 795 127 867.5 c 128,-1,27
 78 940 78 940 24 958 c 0,28,29
 10 963 10 963 3 977 c 128,-1,0
 -4 991 -4 991 0.5 1005.5 c 128,-1,1
EndSplineSet
Validated: 33
EndChar

StartChar: asterisk
Encoding: 42 42 12
Width: 874
Flags: W
LayerCount: 2
Fore
SplineSet
330 837 m 0,0,1
 319 838 319 838 309.5 833 c 128,-1,2
 300 828 300 828 294 819.5 c 128,-1,3
 288 811 288 811 287 800 c 0,4,5
 270 546 270 546 269.5 528 c 128,-1,6
 269 510 269 510 274 427 c 0,7,8
 275 417 275 417 281 408 c 128,-1,9
 287 399 287 399 296.5 394.5 c 128,-1,10
 306 390 306 390 317 390 c 0,11,12
 333 392 333 392 344 404.5 c 128,-1,13
 355 417 355 417 354 433 c 0,14,15
 353 447 353 447 352 461 c 128,-1,16
 351 475 351 475 350 480 c 128,-1,17
 349 485 349 485 348.5 495 c 128,-1,18
 348 505 348 505 348 509 c 128,-1,19
 348 513 348 513 348.5 527 c 128,-1,20
 349 541 349 541 350 551 c 128,-1,21
 351 561 351 561 352.5 586.5 c 128,-1,22
 354 612 354 612 356 636 c 128,-1,23
 358 660 358 660 361 704.5 c 128,-1,24
 364 749 364 749 367 795 c 0,25,26
 368 811 368 811 357 823.5 c 128,-1,27
 346 836 346 836 330 837 c 0,0,1
342 459.5 m 128,-1,29
 330 471 330 471 313 470.5 c 128,-1,30
 296 470 296 470 285 458 c 0,31,32
 254 425 254 425 230 397 c 128,-1,33
 206 369 206 369 182.5 337 c 128,-1,34
 159 305 159 305 146 286.5 c 128,-1,35
 133 268 133 268 104 223 c 128,-1,36
 75 178 75 178 60 156 c 0,37,38
 51 143 51 143 54.5 126.5 c 128,-1,39
 58 110 58 110 71.5 101 c 128,-1,40
 85 92 85 92 101.5 95 c 128,-1,41
 118 98 118 98 127 112 c 0,42,43
 143 136 143 136 171.5 179.5 c 128,-1,44
 200 223 200 223 212 241 c 128,-1,45
 224 259 224 259 246.5 289.5 c 128,-1,46
 269 320 269 320 291 345.5 c 128,-1,47
 313 371 313 371 343 403 c 0,48,49
 354 415 354 415 354 431.5 c 128,-1,28
 354 448 354 448 342 459.5 c 128,-1,29
286.5 459.5 m 128,-1,51
 275 448 275 448 274.5 431.5 c 128,-1,52
 274 415 274 415 285 403 c 0,53,54
 331 354 331 354 356 320.5 c 128,-1,55
 381 287 381 287 416.5 228.5 c 128,-1,56
 452 170 452 170 479 129 c 0,57,58
 488 116 488 116 504.5 112.5 c 128,-1,59
 521 109 521 109 535 118 c 0,60,61
 544 124 544 124 548.5 134 c 128,-1,62
 553 144 553 144 552.5 154.5 c 128,-1,63
 552 165 552 165 546 174 c 0,64,65
 522 209 522 209 485.5 270 c 128,-1,66
 449 331 449 331 420.5 368.5 c 128,-1,67
 392 406 392 406 343 458 c 0,68,69
 332 470 332 470 315 470.5 c 128,-1,50
 298 471 298 471 286.5 459.5 c 128,-1,51
658 592 m 0,70,71
 651 607 651 607 635 612 c 128,-1,72
 619 617 619 617 604 610 c 0,73,74
 563 589 563 589 508.5 570.5 c 128,-1,75
 454 552 454 552 402.5 529 c 128,-1,76
 351 506 351 506 291 463 c 0,77,78
 282 457 282 457 277.5 447 c 128,-1,79
 273 437 273 437 274 426.5 c 128,-1,80
 275 416 275 416 282 407 c 0,81,82
 291 394 291 394 307.5 391 c 128,-1,83
 324 388 324 388 337 398 c 0,84,85
 391 436 391 436 436 456 c 128,-1,86
 481 476 481 476 535.5 494.5 c 128,-1,87
 590 513 590 513 640 538 c 0,88,89
 650 543 650 543 655.5 552 c 128,-1,90
 661 561 661 561 662 571.5 c 128,-1,91
 663 582 663 582 658 592 c 0,70,71
-16 637.5 m 128,-1,93
 -24 623 -24 623 -19 607 c 128,-1,94
 -14 591 -14 591 0 583 c 0,95,96
 33 565 33 565 66.5 544.5 c 128,-1,97
 100 524 100 524 123 509 c 128,-1,98
 146 494 146 494 200 458 c 128,-1,99
 254 422 254 422 292 397 c 0,100,101
 306 388 306 388 322.5 391.5 c 128,-1,102
 339 395 339 395 348 408 c 0,103,104
 353 417 353 417 354 428 c 128,-1,105
 355 439 355 439 350 448.5 c 128,-1,106
 345 458 345 458 336 464 c 0,107,108
 298 488 298 488 244 524.5 c 128,-1,109
 190 561 190 561 166.5 576 c 128,-1,110
 143 591 143 591 108.5 612.5 c 128,-1,111
 74 634 74 634 39 653 c 0,112,113
 24 661 24 661 8 656.5 c 128,-1,92
 -8 652 -8 652 -16 637.5 c 128,-1,93
EndSplineSet
Validated: 37
EndChar

StartChar: plus
Encoding: 43 43 13
Width: 916
Flags: W
LayerCount: 2
Fore
SplineSet
377.5 837 m 128,-1,1
 361 838 361 838 348.5 827 c 128,-1,2
 336 816 336 816 335 800 c 0,3,4
 319 560 319 560 315 358 c 128,-1,5
 311 156 311 156 318 87 c 0,6,7
 319 71 319 71 332 60 c 128,-1,8
 345 49 345 49 361 50 c 128,-1,9
 377 51 377 51 388 64 c 128,-1,10
 399 77 399 77 398 93 c 0,11,12
 391 154 391 154 395 356.5 c 128,-1,13
 399 559 399 559 415 795 c 0,14,15
 416 811 416 811 405 823.5 c 128,-1,0
 394 836 394 836 377.5 837 c 128,-1,1
-38.5 442.5 m 128,-1,17
 -39 426 -39 426 -27.5 414 c 128,-1,18
 -16 402 -16 402 0 402 c 0,19,20
 41 400 41 400 145.5 402.5 c 128,-1,21
 250 405 250 405 349 408 c 128,-1,22
 448 411 448 411 555 409.5 c 128,-1,23
 662 408 662 408 719 400 c 0,24,25
 727 398 727 398 734.5 400.5 c 128,-1,26
 742 403 742 403 748.5 407.5 c 128,-1,27
 755 412 755 412 759 418.5 c 128,-1,28
 763 425 763 425 764 433 c 0,29,30
 767 449 767 449 757 462.5 c 128,-1,31
 747 476 747 476 731 479 c 0,32,33
 668 488 668 488 557 490 c 128,-1,34
 446 492 446 492 346.5 489 c 128,-1,35
 247 486 247 486 143.5 483 c 128,-1,36
 40 480 40 480 2 482 c 0,37,38
 -14 482 -14 482 -26 470.5 c 128,-1,16
 -38 459 -38 459 -38.5 442.5 c 128,-1,17
EndSplineSet
Validated: 37
EndChar

StartChar: comma
Encoding: 44 44 14
Width: 454
Flags: W
LayerCount: 2
Fore
SplineSet
273.5 122 m 132,-1,1
 260 132 260 132 243.5 129.5 c 132,-1,2
 227 127 227 127 217 114 c 4,3,4
 165 44 165 44 126 -15 c 132,-1,5
 87 -74 87 -74 52 -131.5 c 132,-1,6
 17 -189 17 -189 2 -212 c 4,7,8
 -7 -225 -7 -225 -4 -241.5 c 132,-1,9
 -1 -258 -1 -258 13 -267 c 132,-1,10
 27 -276 27 -276 43 -272.5 c 132,-1,11
 59 -269 59 -269 68 -255 c 4,12,13
 85 -230 85 -230 119.5 -173.5 c 132,-1,14
 154 -117 154 -117 192.5 -59.5 c 132,-1,15
 231 -2 231 -2 282 66 c 4,16,17
 291 79 291 79 289 95.5 c 132,-1,0
 287 112 287 112 273.5 122 c 132,-1,1
186 139.5 m 132,-1,19
 171 146 171 146 155.5 140 c 132,-1,20
 140 134 140 134 133 119 c 4,21,22
 94 30 94 30 69 -33.5 c 132,-1,23
 44 -97 44 -97 37 -121 c 132,-1,24
 30 -145 30 -145 21.5 -168 c 132,-1,25
 13 -191 13 -191 0 -214 c 4,26,27
 -8 -228 -8 -228 -3.5 -244.5 c 132,-1,28
 1 -261 1 -261 15.5 -268.5 c 132,-1,29
 30 -276 30 -276 46 -271.5 c 132,-1,30
 62 -267 62 -267 70 -253 c 4,31,32
 91 -216 91 -216 100 -188 c 132,-1,33
 109 -160 109 -160 133.5 -91.5 c 132,-1,34
 158 -23 158 -23 207 87 c 4,35,36
 213 102 213 102 207 117.5 c 132,-1,18
 201 133 201 133 186 139.5 c 132,-1,19
282 112 m 4,37,38
 282 119 282 119 280 125 c 4,39,40
 269 159 269 159 239 172 c 132,-1,41
 209 185 209 185 179 176 c 4,42,43
 147 166 147 166 128 135.5 c 132,-1,44
 109 105 109 105 118 65 c 4,45,46
 127 29 127 29 159.5 13 c 132,-1,47
 192 -3 192 -3 224 5 c 260,48,49
 256 13 256 13 272.5 43 c 132,-1,50
 289 73 289 73 282 112 c 4,37,38
210 109 m 4,51,52
 211 106 211 106 211 105 c 4,53,54
 220 75 220 75 208 73 c 4,55,56
 207 73 207 73 207 73 c 6,57,58
 203 72 203 72 199.5 72.5 c 132,-1,59
 196 73 196 73 193.5 74.5 c 132,-1,60
 191 76 191 76 189 78 c 132,-1,61
 187 80 187 80 186 82 c 4,62,63
 184 94 184 94 189 101 c 4,64,65
 192 105 192 105 197 107.5 c 132,-1,66
 202 110 202 110 205.5 109.5 c 132,-1,67
 209 109 209 109 210 109 c 4,51,52
245 114 m 5,68,69
 261 58 261 58 223 41 c 4,70,71
 193 29 193 29 168 50 c 4,72,73
 156 59 156 59 152 74 c 4,74,75
 142 115 142 115 177 136 c 4,76,77
 207 155 207 155 232 137 c 4,78,79
 242 128 242 128 247 114 c 5,80,-1
 245 114 l 5,68,69
EndSplineSet
Validated: 37
EndChar

StartChar: hyphen
Encoding: 45 45 15
Width: 922
Flags: WO
LayerCount: 2
Fore
SplineSet
-39 310 m 4,0,1
 -39 300 -39 300 -34 290.5 c 132,-1,2
 -29 281 -29 281 -20 275 c 132,-1,3
 -11 269 -11 269 0 269 c 4,4,5
 41 268 41 268 145.5 270.5 c 132,-1,6
 250 273 250 273 349 276 c 132,-1,7
 448 279 448 279 555 277.5 c 132,-1,8
 662 276 662 276 719 267 c 4,9,10
 729 266 729 266 739 270 c 132,-1,11
 749 274 749 274 756 282 c 132,-1,12
 763 290 763 290 764 301 c 4,13,14
 767 317 767 317 757 330.5 c 132,-1,15
 747 344 747 344 731 346 c 4,16,17
 668 356 668 356 557 357.5 c 132,-1,18
 446 359 446 359 346.5 356.5 c 132,-1,19
 247 354 247 354 143.5 351 c 132,-1,20
 40 348 40 348 2 349 c 4,21,22
 -14 350 -14 350 -26 338.5 c 132,-1,23
 -38 327 -38 327 -39 310 c 4,0,1
EndSplineSet
EndChar

StartChar: period
Encoding: 46 46 16
Width: 307
Flags: W
LayerCount: 2
Fore
SplineSet
166 112 m 4,0,1
 166 119 166 119 164 125 c 4,2,3
 154 159 154 159 124 172 c 132,-1,4
 94 185 94 185 64 176 c 4,5,6
 31 166 31 166 12 135.5 c 132,-1,7
 -7 105 -7 105 3 65 c 4,8,9
 12 29 12 29 44 13 c 132,-1,10
 76 -3 76 -3 109 5 c 4,11,12
 140 13 140 13 157 43 c 132,-1,13
 174 73 174 73 166 112 c 4,0,1
95 109 m 5,14,15
 95 106 95 106 96 105 c 4,16,17
 104 75 104 75 92 73 c 4,18,19
 87 72 87 72 82 73.5 c 132,-1,20
 77 75 77 75 74 77.5 c 132,-1,21
 71 80 71 80 71 82 c 4,22,23
 68 94 68 94 73 101 c 4,24,25
 76 105 76 105 81.5 107.5 c 132,-1,26
 87 110 87 110 90 109.5 c 132,-1,27
 93 109 93 109 95 109 c 5,14,15
129 114 m 5,28,29
 145 58 145 58 107 41 c 4,30,31
 78 29 78 29 52 50 c 4,32,33
 40 59 40 59 37 74 c 4,34,35
 26 115 26 115 61 136 c 4,36,37
 92 155 92 155 116 137 c 4,38,39
 127 128 127 128 131 114 c 5,40,-1
 129 114 l 5,28,29
EndSplineSet
Validated: 41
EndChar

StartChar: slash
Encoding: 47 47 17
Width: 811
Flags: W
LayerCount: 2
Fore
SplineSet
570 1006.5 m 128,-1,1
 585 1006 585 1006 596 995 c 128,-1,2
 607 984 607 984 606 968 c 0,3,4
 604 871 604 871 549 710 c 128,-1,5
 494 549 494 549 416.5 380.5 c 128,-1,6
 339 212 339 212 262 49 c 128,-1,7
 185 -114 185 -114 130.5 -251.5 c 128,-1,8
 76 -389 76 -389 74 -451 c 0,9,10
 74 -467 74 -467 63 -477.5 c 128,-1,11
 52 -488 52 -488 36.5 -487.5 c 128,-1,12
 21 -487 21 -487 10.5 -476 c 128,-1,13
 0 -465 0 -465 0 -450 c 0,14,15
 2 -373 2 -373 56.5 -227.5 c 128,-1,16
 111 -82 111 -82 188 82.5 c 128,-1,17
 265 247 265 247 342.5 413 c 128,-1,18
 420 579 420 579 475 731.5 c 128,-1,19
 530 884 530 884 532 970 c 0,20,21
 532 985 532 985 543.5 996 c 128,-1,0
 555 1007 555 1007 570 1006.5 c 128,-1,1
EndSplineSet
Validated: 1
EndChar

StartChar: zero
Encoding: 48 48 18
Width: 1096
Flags: W
LayerCount: 2
Fore
SplineSet
873 424 m 1,0,1
 882 440 882 440 877 457 c 0,2,3
 858 518 858 518 825 567 c 128,-1,4
 792 616 792 616 750.5 648.5 c 128,-1,5
 709 681 709 681 660.5 701.5 c 128,-1,6
 612 722 612 722 560 729 c 128,-1,7
 508 736 508 736 454.5 731 c 128,-1,8
 401 726 401 726 350 710 c 0,9,10
 265 683 265 683 193.5 629.5 c 128,-1,11
 122 576 122 576 71.5 498 c 128,-1,12
 21 420 21 420 5.5 321.5 c 128,-1,13
 -10 223 -10 223 18 105 c 0,14,15
 31 52 31 52 58 5.5 c 128,-1,16
 85 -41 85 -41 121 -77 c 128,-1,17
 157 -113 157 -113 201 -141.5 c 128,-1,18
 245 -170 245 -170 293.5 -187.5 c 128,-1,19
 342 -205 342 -205 393 -213.5 c 128,-1,20
 444 -222 444 -222 495.5 -220 c 128,-1,21
 547 -218 547 -218 595 -205 c 0,22,23
 678 -184 678 -184 742 -135 c 128,-1,24
 806 -86 806 -86 849 -7 c 128,-1,25
 892 72 892 72 899 179 c 128,-1,26
 906 286 906 286 873 424 c 1,0,1
790 463 m 1,27,28
 783 448 783 448 787 434 c 0,29,30
 792 419 792 419 796 403 c 0,31,32
 820 306 820 306 821 224 c 128,-1,33
 822 142 822 142 803.5 84 c 128,-1,34
 785 26 785 26 750 -18.5 c 128,-1,35
 715 -63 715 -63 671.5 -89 c 128,-1,36
 628 -115 628 -115 576 -128 c 0,37,38
 517 -141 517 -141 457 -139.5 c 128,-1,39
 397 -138 397 -138 338 -117.5 c 128,-1,40
 279 -97 279 -97 230.5 -64.5 c 128,-1,41
 182 -32 182 -32 146 17.5 c 128,-1,42
 110 67 110 67 95 125 c 0,43,44
 74 219 74 219 83 297.5 c 128,-1,45
 92 376 92 376 129 440 c 128,-1,46
 166 504 166 504 219 549 c 128,-1,47
 272 594 272 594 339 621 c 0,48,49
 405 648 405 648 472.5 652.5 c 128,-1,50
 540 657 540 657 601 639 c 128,-1,51
 662 621 662 621 712 576 c 128,-1,52
 762 531 762 531 790 463 c 1,27,28
979.5 799 m 128,-1,54
 974 805 974 805 965.5 805.5 c 128,-1,55
 957 806 957 806 951 800 c 0,56,57
 526 400 526 400 3 -254 c 0,58,59
 -2 -260 -2 -260 -1 -268.5 c 128,-1,60
 0 -277 0 -277 6.5 -282 c 128,-1,61
 13 -287 13 -287 21 -286 c 128,-1,62
 29 -285 29 -285 35 -279 c 0,63,64
 556 373 556 373 978 771 c 0,65,66
 984 776 984 776 984.5 784.5 c 128,-1,53
 985 793 985 793 979.5 799 c 128,-1,54
EndSplineSet
Validated: 37
EndChar

StartChar: one
Encoding: 49 49 19
Width: 424
Flags: W
LayerCount: 2
Fore
SplineSet
10 473.5 m 128,-1,1
 23 465 23 465 38.5 468 c 128,-1,2
 54 471 54 471 62 484 c 0,3,4
 98 537 98 537 120.5 568.5 c 128,-1,5
 143 600 143 600 150 609 c 128,-1,6
 157 618 157 618 172 634 c 128,-1,7
 187 650 187 650 192 655 c 1,8,9
 168 345 168 345 188 -119 c 0,10,11
 189 -134 189 -134 200.5 -145 c 128,-1,12
 212 -156 212 -156 227.5 -155 c 128,-1,13
 243 -154 243 -154 253.5 -142.5 c 128,-1,14
 264 -131 264 -131 263 -116 c 0,15,16
 240 428 240 428 278 773 c 2,17,-1
 294 911 l 1,18,-1
 211 800 l 2,19,20
 178 755 178 755 156 729 c 128,-1,21
 134 703 134 703 124 693 c 128,-1,22
 114 683 114 683 101.5 668.5 c 128,-1,23
 89 654 89 654 65 620 c 128,-1,24
 41 586 41 586 0 526 c 0,25,26
 -9 513 -9 513 -6 497.5 c 128,-1,0
 -3 482 -3 482 10 473.5 c 128,-1,1
EndSplineSet
Validated: 41
EndChar

StartChar: two
Encoding: 50 50 20
Width: 537
Flags: W
LayerCount: 2
Fore
SplineSet
62 401.5 m 128,-1,1
 77 403 77 403 87 415.5 c 128,-1,2
 97 428 97 428 95 443 c 0,3,4
 92 469 92 469 92 495 c 0,5,6
 92 539 92 539 101.5 578 c 128,-1,7
 111 617 111 617 125.5 643.5 c 128,-1,8
 140 670 140 670 157.5 689 c 128,-1,9
 175 708 175 708 192 717 c 128,-1,10
 209 726 209 726 223 726 c 0,11,12
 234 726 234 726 245.5 718.5 c 128,-1,13
 257 711 257 711 269.5 694 c 128,-1,14
 282 677 282 677 289.5 641 c 128,-1,15
 297 605 297 605 297 555 c 1,16,17
 292 514 292 514 267 464 c 128,-1,18
 242 414 242 414 208.5 367.5 c 128,-1,19
 175 321 175 321 137 261.5 c 128,-1,20
 99 202 99 202 67.5 144.5 c 128,-1,21
 36 87 36 87 16.5 13.5 c 128,-1,22
 -3 -60 -3 -60 0 -133 c 0,23,24
 1 -149 1 -149 12.5 -159.5 c 128,-1,25
 24 -170 24 -170 39.5 -169.5 c 128,-1,26
 55 -169 55 -169 65.5 -157.5 c 128,-1,27
 76 -146 76 -146 75 -130 c 0,28,29
 73 -76 73 -76 87 -21.5 c 128,-1,30
 101 33 101 33 125 80 c 128,-1,31
 149 127 149 127 179.5 173.5 c 128,-1,32
 210 220 210 220 241.5 265.5 c 128,-1,33
 273 311 273 311 300 355.5 c 128,-1,34
 327 400 327 400 347 450.5 c 128,-1,35
 367 501 367 501 372 549 c 1,36,-1
 372 551 l 1,37,-1
 372 553 l 2,38,39
 373 666 373 666 333 733 c 128,-1,40
 293 800 293 800 223 801 c 0,41,42
 169 801 169 801 121.5 761.5 c 128,-1,43
 74 722 74 722 46 651.5 c 128,-1,44
 18 581 18 581 17 497 c 0,45,46
 17 466 17 466 21 434 c 0,47,48
 22 419 22 419 34.5 409.5 c 128,-1,0
 47 400 47 400 62 401.5 c 128,-1,1
1.5 -123.5 m 128,-1,50
 -2 -139 -2 -139 6.5 -152 c 128,-1,51
 15 -165 15 -165 30 -168 c 0,52,53
 55 -174 55 -174 126.5 -167 c 128,-1,54
 198 -160 198 -160 261.5 -159.5 c 128,-1,55
 325 -159 325 -159 348 -180 c 0,56,57
 359 -190 359 -190 374.5 -189.5 c 128,-1,58
 390 -189 390 -189 400.5 -177.5 c 128,-1,59
 411 -166 411 -166 410 -150.5 c 128,-1,60
 409 -135 409 -135 398 -125 c 0,61,62
 366 -95 366 -95 307 -84.5 c 128,-1,63
 248 -74 248 -74 197 -78.5 c 128,-1,64
 146 -83 146 -83 98 -89.5 c 128,-1,65
 50 -96 50 -96 46 -95 c 0,66,67
 31 -92 31 -92 18 -100 c 128,-1,49
 5 -108 5 -108 1.5 -123.5 c 128,-1,50
EndSplineSet
Validated: 37
EndChar

StartChar: three
Encoding: 51 51 21
Width: 547
Flags: W
LayerCount: 2
Fore
SplineSet
69.5 525 m 128,-1,1
 83 531 83 531 88.5 545 c 128,-1,2
 94 559 94 559 88 573 c 0,3,4
 80 591 80 591 79 610 c 0,5,6
 77 653 77 653 116 689 c 128,-1,7
 155 725 155 725 205 727 c 0,8,9
 223 728 223 728 239 724 c 128,-1,10
 255 720 255 720 271.5 708.5 c 128,-1,11
 288 697 288 697 300 678 c 128,-1,12
 312 659 312 659 320 628 c 128,-1,13
 328 597 328 597 330 556 c 0,14,15
 333 477 333 477 286 415.5 c 128,-1,16
 239 354 239 354 163 328 c 2,17,-1
 -41 257 l 1,18,-1
 175 257 l 2,19,20
 183 257 183 257 194 253 c 0,21,22
 234 237 234 237 275.5 175 c 128,-1,23
 317 113 317 113 337 39 c 128,-1,24
 357 -35 357 -35 339 -80 c 0,25,26
 331 -99 331 -99 313 -112 c 128,-1,27
 295 -125 295 -125 261 -131 c 128,-1,28
 227 -137 227 -137 167 -124 c 128,-1,29
 107 -111 107 -111 28 -78 c 0,30,31
 14 -72 14 -72 0 -78 c 128,-1,32
 -14 -84 -14 -84 -19.5 -97.5 c 128,-1,33
 -25 -111 -25 -111 -19.5 -125 c 128,-1,34
 -14 -139 -14 -139 0 -145 c 0,35,36
 169 -213 169 -213 270.5 -202 c 128,-1,37
 372 -191 372 -191 406 -107 c 0,38,39
 431 -40 431 -40 415 37.5 c 128,-1,40
 399 115 399 115 356.5 186 c 128,-1,41
 314 257 314 257 263 296 c 1,42,43
 328 339 328 339 367 408 c 128,-1,44
 406 477 406 477 403 559 c 0,45,46
 400 620 400 620 383 667.5 c 128,-1,47
 366 715 366 715 338 744 c 128,-1,48
 310 773 310 773 275.5 787.5 c 128,-1,49
 241 802 241 802 202 800 c 0,50,51
 125 797 125 797 64 741.5 c 128,-1,52
 3 686 3 686 7 607 c 0,53,54
 8 574 8 574 22 543 c 0,55,56
 28 530 28 530 42 524.5 c 128,-1,0
 56 519 56 519 69.5 525 c 128,-1,1
EndSplineSet
Validated: 41
EndChar

StartChar: four
Encoding: 52 52 22
Width: 745
Flags: W
LayerCount: 2
Fore
SplineSet
368 833 m 0,0,1
 358 834 358 834 349 830 c 128,-1,2
 340 826 340 826 334 818 c 128,-1,3
 328 810 328 810 327 800 c 0,4,5
 287 449 287 449 311 -101 c 0,6,7
 312 -116 312 -116 323.5 -126.5 c 128,-1,8
 335 -137 335 -137 350.5 -136.5 c 128,-1,9
 366 -136 366 -136 376.5 -124.5 c 128,-1,10
 387 -113 387 -113 386 -98 c 0,11,12
 363 446 363 446 401 792 c 0,13,14
 403 807 403 807 393.5 819 c 128,-1,15
 384 831 384 831 368 833 c 0,0,1
171 811.5 m 128,-1,17
 161 813 161 813 152 809 c 128,-1,18
 143 805 143 805 137 796.5 c 128,-1,19
 131 788 131 788 129 778 c 0,20,21
 121 704 121 704 112.5 654 c 128,-1,22
 104 604 104 604 91 563 c 128,-1,23
 78 522 78 522 69 499.5 c 128,-1,24
 60 477 60 477 37.5 430 c 128,-1,25
 15 383 15 383 0 350 c 0,26,27
 -6 336 -6 336 -0.5 321.5 c 128,-1,28
 5 307 5 307 19 300.5 c 128,-1,29
 33 294 33 294 48 300 c 128,-1,30
 63 306 63 306 69 320 c 0,31,32
 81 348 81 348 104.5 398 c 128,-1,33
 128 448 128 448 137.5 472 c 128,-1,34
 147 496 147 496 162 541 c 128,-1,35
 177 586 177 586 186.5 640.5 c 128,-1,36
 196 695 196 695 204 770 c 0,37,38
 205 780 205 780 201 789 c 128,-1,39
 197 798 197 798 189 804 c 128,-1,16
 181 810 181 810 171 811.5 c 128,-1,17
623 365 m 0,40,41
 623 373 623 373 619.5 380 c 128,-1,42
 616 387 616 387 611 391.5 c 128,-1,43
 606 396 606 396 599 399 c 128,-1,44
 592 402 592 402 584 402 c 0,45,46
 491 399 491 399 407.5 394.5 c 128,-1,47
 324 390 324 390 220 383.5 c 128,-1,48
 116 377 116 377 32 372 c 0,49,50
 22 372 22 372 14 366.5 c 128,-1,51
 6 361 6 361 1 352 c 128,-1,52
 -4 343 -4 343 -3 333 c 0,53,54
 -2 318 -2 318 9.5 307.5 c 128,-1,55
 21 297 21 297 36 297 c 0,56,57
 121 302 121 302 225 308.5 c 128,-1,58
 329 315 329 315 411.5 319.5 c 128,-1,59
 494 324 494 324 587 327 c 0,60,61
 602 327 602 327 613 338.5 c 128,-1,62
 624 350 624 350 623 365 c 0,40,41
EndSplineSet
Validated: 37
EndChar

StartChar: five
Encoding: 53 53 23
Width: 742
Flags: W
LayerCount: 2
Fore
SplineSet
56 794.5 m 128,-1,1
 41 797 41 797 28.5 788 c 128,-1,2
 16 779 16 779 13 764 c 0,3,4
 4 711 4 711 6.5 669 c 128,-1,5
 9 627 9 627 14.5 584 c 128,-1,6
 20 541 20 541 13 427 c 0,7,8
 12 412 12 412 22 400 c 128,-1,9
 32 388 32 388 48 387 c 0,10,11
 58 386 58 386 66.5 390.5 c 128,-1,12
 75 395 75 395 81 403.5 c 128,-1,13
 87 412 87 412 87 422 c 0,14,15
 93 500 93 500 91.5 558 c 128,-1,16
 90 616 90 616 86.5 636.5 c 128,-1,17
 83 657 83 657 82 690 c 128,-1,18
 81 723 81 723 87 751 c 0,19,20
 89 767 89 767 80 779.5 c 128,-1,0
 71 792 71 792 56 794.5 c 128,-1,1
-15 21.5 m 128,-1,22
 -22 8 -22 8 -17.5 -7 c 128,-1,23
 -13 -22 -13 -22 0 -30 c 0,24,25
 121 -96 121 -96 239 -89 c 0,26,27
 339 -83 339 -83 417 -28 c 128,-1,28
 495 27 495 27 535.5 117 c 128,-1,29
 576 207 576 207 570 313 c 0,30,31
 562 439 562 439 510 508 c 0,32,33
 472 557 472 557 416 574.5 c 128,-1,34
 360 592 360 592 306 583.5 c 128,-1,35
 252 575 252 575 193.5 550 c 128,-1,36
 135 525 135 525 96.5 501.5 c 128,-1,37
 58 478 58 478 27 454 c 0,38,39
 15 445 15 445 13 429.5 c 128,-1,40
 11 414 11 414 20.5 402 c 128,-1,41
 30 390 30 390 45.5 387.5 c 128,-1,42
 61 385 61 385 73 395 c 0,43,44
 111 424 111 424 161 450 c 128,-1,45
 211 476 211 476 266 494 c 128,-1,46
 321 512 321 512 371.5 505.5 c 128,-1,47
 422 499 422 499 450 462 c 0,48,49
 489 412 489 412 495 308 c 0,50,51
 499 243 499 243 480.5 184.5 c 128,-1,52
 462 126 462 126 427.5 83.5 c 128,-1,53
 393 41 393 41 343 15 c 128,-1,54
 293 -11 293 -11 235 -14 c 0,55,56
 138 -20 138 -20 36 36 c 0,57,58
 22 43 22 43 7 39 c 128,-1,21
 -8 35 -8 35 -15 21.5 c 128,-1,22
453 762 m 0,59,60
 453 777 453 777 441.5 788 c 128,-1,61
 430 799 430 799 414 798 c 0,62,63
 323 795 323 795 240.5 798.5 c 128,-1,64
 158 802 158 802 48 795 c 0,65,66
 33 795 33 795 22.5 783 c 128,-1,67
 12 771 12 771 12.5 756 c 128,-1,68
 13 741 13 741 25 730.5 c 128,-1,69
 37 720 37 720 52 720 c 0,70,71
 158 727 158 727 238.5 723.5 c 128,-1,72
 319 720 319 720 417 723 c 0,73,74
 424 723 424 723 431 726.5 c 128,-1,75
 438 730 438 730 443 735 c 128,-1,76
 448 740 448 740 450.5 747 c 128,-1,77
 453 754 453 754 453 762 c 0,59,60
EndSplineSet
Validated: 37
EndChar

StartChar: colon
Encoding: 58 58 24
Width: 418
Flags: W
LayerCount: 2
Fore
SplineSet
184 732 m 0,0,1
 184 739 184 739 182 745 c 0,2,3
 171 779 171 779 141 792 c 128,-1,4
 111 805 111 805 81 796 c 0,5,6
 49 786 49 786 30 755.5 c 128,-1,7
 11 725 11 725 20 685 c 0,8,9
 29 649 29 649 61.5 633 c 128,-1,10
 94 617 94 617 126 625 c 256,11,12
 158 633 158 633 174.5 663 c 128,-1,13
 191 693 191 693 184 732 c 0,0,1
112 729 m 0,14,15
 113 726 113 726 113 725 c 0,16,17
 122 695 122 695 110 693 c 0,18,19
 109 693 109 693 109 693 c 2,20,21
 102 691 102 691 95.5 694.5 c 128,-1,22
 89 698 89 698 88 702 c 0,23,24
 86 714 86 714 91 721 c 0,25,26
 94 725 94 725 99 727.5 c 128,-1,27
 104 730 104 730 107.5 729.5 c 128,-1,28
 111 729 111 729 112 729 c 0,14,15
147 734 m 1,29,30
 163 678 163 678 125 661 c 0,31,32
 95 649 95 649 70 670 c 0,33,34
 58 679 58 679 54 694 c 0,35,36
 47 726 47 726 67 747 c 128,-1,37
 87 768 87 768 113.5 765 c 128,-1,38
 140 762 140 762 149 734 c 1,39,-1
 147 734 l 1,29,30
166 290 m 0,40,41
 166 297 166 297 164 303 c 0,42,43
 154 337 154 337 124 350 c 128,-1,44
 94 363 94 363 64 354 c 0,45,46
 31 344 31 344 12 313.5 c 128,-1,47
 -7 283 -7 283 3 243 c 0,48,49
 12 207 12 207 44 191 c 128,-1,50
 76 175 76 175 109 183 c 0,51,52
 140 191 140 191 157 221 c 128,-1,53
 174 251 174 251 166 290 c 0,40,41
95 287 m 1,54,55
 95 284 95 284 96 283 c 0,56,57
 104 253 104 253 92 251 c 0,58,59
 87 250 87 250 82 251.5 c 128,-1,60
 77 253 77 253 74 255.5 c 128,-1,61
 71 258 71 258 71 260 c 0,62,63
 68 272 68 272 73 279 c 0,64,65
 76 284 76 284 81.5 286 c 128,-1,66
 87 288 87 288 90 287.5 c 128,-1,67
 93 287 93 287 95 287 c 1,54,55
129 292 m 1,68,69
 145 236 145 236 107 219 c 0,70,71
 78 207 78 207 52 228 c 0,72,73
 40 237 40 237 37 252 c 0,74,75
 29 284 29 284 49 305 c 128,-1,76
 69 326 69 326 95.5 323 c 128,-1,77
 122 320 122 320 131 292 c 1,78,-1
 129 292 l 1,68,69
EndSplineSet
Validated: 41
EndChar

StartChar: semicolon
Encoding: 59 59 25
Width: 532
Flags: W
LayerCount: 2
Fore
SplineSet
273.5 267 m 128,-1,1
 260 277 260 277 243.5 274.5 c 128,-1,2
 227 272 227 272 217 259 c 0,3,4
 165 189 165 189 126 130 c 128,-1,5
 87 71 87 71 52 13.5 c 128,-1,6
 17 -44 17 -44 2 -67 c 0,7,8
 -7 -80 -7 -80 -4 -96.5 c 128,-1,9
 -1 -113 -1 -113 13 -122 c 128,-1,10
 27 -131 27 -131 43 -127.5 c 128,-1,11
 59 -124 59 -124 68 -111 c 0,12,13
 85 -85 85 -85 119.5 -28.5 c 128,-1,14
 154 28 154 28 192.5 85.5 c 128,-1,15
 231 143 231 143 282 211 c 0,16,17
 291 224 291 224 289 240.5 c 128,-1,0
 287 257 287 257 273.5 267 c 128,-1,1
186 284.5 m 128,-1,19
 171 291 171 291 155.5 285 c 128,-1,20
 140 279 140 279 133 264 c 0,21,22
 94 175 94 175 69 111 c 128,-1,23
 44 47 44 47 37 23 c 128,-1,24
 30 -1 30 -1 21.5 -23.5 c 128,-1,25
 13 -46 13 -46 0 -69 c 0,26,27
 -8 -83 -8 -83 -3.5 -99.5 c 128,-1,28
 1 -116 1 -116 15.5 -124 c 128,-1,29
 30 -132 30 -132 46 -127 c 128,-1,30
 62 -122 62 -122 70 -108 c 0,31,32
 91 -71 91 -71 100 -43 c 128,-1,33
 109 -15 109 -15 133.5 53.5 c 128,-1,34
 158 122 158 122 207 232 c 0,35,36
 213 247 213 247 207 262.5 c 128,-1,18
 201 278 201 278 186 284.5 c 128,-1,19
282 257 m 0,37,38
 282 264 282 264 280 270 c 0,39,40
 269 304 269 304 239 317 c 128,-1,41
 209 330 209 330 179 321 c 0,42,43
 147 311 147 311 128 280 c 128,-1,44
 109 249 109 249 118 210 c 0,45,46
 127 174 127 174 159.5 158 c 128,-1,47
 192 142 192 142 224 150 c 256,48,49
 256 158 256 158 272.5 188 c 128,-1,50
 289 218 289 218 282 257 c 0,37,38
210 254 m 0,51,52
 211 251 211 251 211 250 c 0,53,54
 219 220 219 220 207 218 c 0,55,56
 200 216 200 216 193.5 219.5 c 128,-1,57
 187 223 187 223 186 227 c 0,58,59
 184 239 184 239 189 246 c 0,60,61
 192 250 192 250 197 252.5 c 128,-1,62
 202 255 202 255 205.5 254.5 c 128,-1,63
 209 254 209 254 210 254 c 0,51,52
245 259 m 1,64,65
 261 202 261 202 223 186 c 0,66,67
 193 174 193 174 168 195 c 0,68,69
 156 204 156 204 152 219 c 0,70,71
 144 251 144 251 164.5 272 c 128,-1,72
 185 293 185 293 211.5 290 c 128,-1,73
 238 287 238 287 247 259 c 1,74,-1
 245 259 l 1,64,65
301 732 m 0,75,76
 301 739 301 739 300 745 c 0,77,78
 289 779 289 779 259 792 c 128,-1,79
 229 805 229 805 199 796 c 0,80,81
 167 786 167 786 148 755.5 c 128,-1,82
 129 725 129 725 138 685 c 0,83,84
 147 649 147 649 179.5 633 c 128,-1,85
 212 617 212 617 244 625 c 256,86,87
 276 633 276 633 292.5 663 c 128,-1,88
 309 693 309 693 301 732 c 0,75,76
230 729 m 0,89,90
 231 726 231 726 231 725 c 0,91,92
 239 695 239 695 227 693 c 0,93,94
 220 691 220 691 213.5 694.5 c 128,-1,95
 207 698 207 698 206 702 c 0,96,97
 203 714 203 714 209 721 c 0,98,99
 212 725 212 725 217 727.5 c 128,-1,100
 222 730 222 730 225.5 729.5 c 128,-1,101
 229 729 229 729 230 729 c 0,89,90
265 734 m 1,102,103
 281 678 281 678 242 661 c 0,104,105
 213 649 213 649 188 670 c 0,106,107
 176 679 176 679 172 694 c 0,108,109
 164 726 164 726 184 747 c 128,-1,110
 204 768 204 768 231 765 c 128,-1,111
 258 762 258 762 266 734 c 1,112,-1
 265 734 l 1,102,103
EndSplineSet
Validated: 37
EndChar

StartChar: less
Encoding: 60 60 26
Width: 682
Flags: W
LayerCount: 2
Fore
SplineSet
501 10.5 m 132,-1,1
 509 24 509 24 505 39 c 132,-1,2
 501 54 501 54 488 62 c 4,3,4
 158 257 158 257 35 322 c 4,5,6
 21 329 21 329 6 324.5 c 132,-1,7
 -9 320 -9 320 -16 306.5 c 132,-1,8
 -23 293 -23 293 -18.5 278 c 132,-1,9
 -14 263 -14 263 0 256 c 4,10,11
 122 192 122 192 449 -3 c 4,12,13
 463 -10 463 -10 478 -6.5 c 132,-1,0
 493 -3 493 -3 501 10.5 c 132,-1,1
501 567 m 132,-1,15
 493 580 493 580 478 584 c 132,-1,16
 463 588 463 588 449 580 c 4,17,18
 122 386 122 386 0 322 c 4,19,20
 -14 315 -14 315 -18.5 300 c 132,-1,21
 -23 285 -23 285 -16 271.5 c 132,-1,22
 -9 258 -9 258 6 253 c 132,-1,23
 21 248 21 248 35 256 c 4,24,25
 158 320 158 320 488 515 c 4,26,27
 501 523 501 523 505 538.5 c 132,-1,14
 509 554 509 554 501 567 c 132,-1,15
EndSplineSet
Validated: 5
EndChar

StartChar: equal
Encoding: 61 61 27
Width: 919
Flags: W
LayerCount: 2
Fore
SplineSet
-39 752 m 0,0,1
 -39 742 -39 742 -34 732.5 c 128,-1,2
 -29 723 -29 723 -20 717 c 128,-1,3
 -11 711 -11 711 0 711 c 0,4,5
 41 710 41 710 145.5 712.5 c 128,-1,6
 250 715 250 715 349 718 c 128,-1,7
 448 721 448 721 555 719.5 c 128,-1,8
 662 718 662 718 719 709 c 0,9,10
 729 708 729 708 739 712 c 128,-1,11
 749 716 749 716 756 724 c 128,-1,12
 763 732 763 732 764 743 c 0,13,14
 767 759 767 759 757 772.5 c 128,-1,15
 747 786 747 786 731 788 c 0,16,17
 668 798 668 798 557 799.5 c 128,-1,18
 446 801 446 801 346.5 798.5 c 128,-1,19
 247 796 247 796 143.5 793 c 128,-1,20
 40 790 40 790 2 791 c 0,21,22
 -14 792 -14 792 -26 780.5 c 128,-1,23
 -38 769 -38 769 -39 752 c 0,0,1
-38.5 539.5 m 128,-1,25
 -39 523 -39 523 -27.5 511 c 128,-1,26
 -16 499 -16 499 0 499 c 0,27,28
 41 497 41 497 145.5 499.5 c 128,-1,29
 250 502 250 502 349 505 c 128,-1,30
 448 508 448 508 555 506.5 c 128,-1,31
 662 505 662 505 719 497 c 0,32,33
 729 495 729 495 739 499 c 128,-1,34
 749 503 749 503 756 511.5 c 128,-1,35
 763 520 763 520 764 530 c 0,36,37
 767 546 767 546 757 559.5 c 128,-1,38
 747 573 747 573 731 576 c 0,39,40
 668 585 668 585 557 587 c 128,-1,41
 446 589 446 589 346.5 586 c 128,-1,42
 247 583 247 583 143.5 580 c 128,-1,43
 40 577 40 577 2 579 c 0,44,45
 -14 579 -14 579 -26 567.5 c 128,-1,24
 -38 556 -38 556 -38.5 539.5 c 128,-1,25
EndSplineSet
Validated: 41
EndChar

StartChar: greater
Encoding: 62 62 28
Width: 658
Flags: W
LayerCount: 2
Fore
SplineSet
-13 20.5 m 132,-1,1
 -5 7 -5 7 10 3.5 c 132,-1,2
 25 0 25 0 38 7 c 4,3,4
 366 202 366 202 488 266 c 4,5,6
 501 273 501 273 506 288 c 132,-1,7
 511 303 511 303 503.5 316.5 c 132,-1,8
 496 330 496 330 481 334.5 c 132,-1,9
 466 339 466 339 453 332 c 4,10,11
 330 267 330 267 0 72 c 4,12,13
 -13 64 -13 64 -17 49 c 132,-1,0
 -21 34 -21 34 -13 20.5 c 132,-1,1
-13 577 m 132,-1,15
 -21 564 -21 564 -17 548.5 c 132,-1,16
 -13 533 -13 533 0 525 c 4,17,18
 330 330 330 330 453 266 c 4,19,20
 466 258 466 258 481 263 c 132,-1,21
 496 268 496 268 503.5 281.5 c 132,-1,22
 511 295 511 295 506 310 c 132,-1,23
 501 325 501 325 488 332 c 4,24,25
 366 396 366 396 38 590 c 4,26,27
 25 598 25 598 10 594 c 132,-1,14
 -5 590 -5 590 -13 577 c 132,-1,15
EndSplineSet
Validated: 5
EndChar

StartChar: at
Encoding: 64 64 29
Width: 1213
Flags: W
LayerCount: 2
Fore
SplineSet
747 520 m 1,0,1
 714 556 714 556 671.5 569 c 128,-1,2
 629 582 629 582 585.5 572.5 c 128,-1,3
 542 563 542 563 501 541 c 128,-1,4
 460 519 460 519 424 488 c 0,5,6
 376 445 376 445 341 388 c 128,-1,7
 306 331 306 331 288.5 266 c 128,-1,8
 271 201 271 201 287 130.5 c 128,-1,9
 303 60 303 60 356 0 c 0,10,11
 363 -8 363 -8 370 -15 c 0,12,13
 375 -20 375 -20 380 -22 c 0,14,15
 457 -66 457 -66 524 -75.5 c 128,-1,16
 591 -85 591 -85 640.5 -63.5 c 128,-1,17
 690 -42 690 -42 724 5 c 1,18,19
 725 -5 725 -5 726 -13 c 0,20,21
 728 -26 728 -26 736 -35 c 0,22,23
 763 -65 763 -65 798.5 -68.5 c 128,-1,24
 834 -72 834 -72 864.5 -58 c 128,-1,25
 895 -44 895 -44 923 -19 c 0,26,27
 960 14 960 14 993 63 c 128,-1,28
 1026 112 1026 112 1049.5 174.5 c 128,-1,29
 1073 237 1073 237 1081.5 302.5 c 128,-1,30
 1090 368 1090 368 1074 439 c 128,-1,31
 1058 510 1058 510 1016 570 c 0,32,33
 956 656 956 656 883 710 c 128,-1,34
 810 764 810 764 736 783.5 c 128,-1,35
 662 803 662 803 584 797.5 c 128,-1,36
 506 792 506 792 434.5 764.5 c 128,-1,37
 363 737 363 737 297 691 c 0,38,39
 151 588 151 588 66 428 c 128,-1,40
 -19 268 -19 268 5 111 c 0,41,42
 20 11 20 11 78.5 -81 c 128,-1,43
 137 -173 137 -173 223.5 -238.5 c 128,-1,44
 310 -304 310 -304 426.5 -335.5 c 128,-1,45
 543 -367 543 -367 666 -349 c 0,46,47
 838 -323 838 -323 998 -202 c 0,48,49
 1007 -195 1007 -195 1011.5 -184.5 c 128,-1,50
 1016 -174 1016 -174 1014.5 -163 c 128,-1,51
 1013 -152 1013 -152 1006 -143 c 0,52,53
 996 -129 996 -129 978.5 -126.5 c 128,-1,54
 961 -124 961 -124 947 -134 c 0,55,56
 804 -242 804 -242 653 -265 c 0,57,58
 548 -280 548 -280 448 -253 c 128,-1,59
 348 -226 348 -226 274 -169.5 c 128,-1,60
 200 -113 200 -113 150.5 -36 c 128,-1,61
 101 41 101 41 89 124 c 0,62,63
 70 251 70 251 144 391 c 128,-1,64
 218 531 218 531 346 621 c 0,65,66
 419 672 419 672 495.5 695.5 c 128,-1,67
 572 719 572 719 650.5 714 c 128,-1,68
 729 709 729 709 806 660.5 c 128,-1,69
 883 612 883 612 946 522 c 0,70,71
 1018 419 1018 419 990 277 c 0,72,73
 979 219 979 219 952.5 166 c 128,-1,74
 926 113 926 113 898 81 c 128,-1,75
 870 49 870 49 845 31.5 c 128,-1,76
 820 14 820 14 809 16 c 1,77,78
 805 53 805 53 802 120 c 0,79,80
 800 176 800 176 799 251 c 1,81,82
 810 372 810 372 797 483 c 0,83,84
 795 498 795 498 784 508.5 c 128,-1,85
 773 519 773 519 758 521 c 0,86,87
 753 521 753 521 747 520 c 1,0,1
713 254 m 1,88,89
 708 193 708 193 694 145 c 0,90,91
 683 104 683 104 667 75 c 0,92,93
 652 47 652 47 634 30.5 c 128,-1,94
 616 14 616 14 588.5 6.5 c 128,-1,95
 561 -1 561 -1 520.5 9.5 c 128,-1,96
 480 20 480 20 427 49 c 1,97,98
 385 92 385 92 372 144 c 0,99,100
 359 195 359 195 374 252.5 c 128,-1,101
 389 310 389 310 422 356.5 c 128,-1,102
 455 403 455 403 500 438.5 c 128,-1,103
 545 474 545 474 588 485 c 0,104,105
 635 498 635 498 666 480 c 128,-1,106
 697 462 697 462 712 402 c 1,107,108
 712 324 712 324 713 254 c 1,88,89
EndSplineSet
Validated: 41
EndChar

StartChar: A
Encoding: 65 65 30
Width: 1282
Flags: W
LayerCount: 2
Fore
SplineSet
18 -241 m 128,-1,1
 32 -247 32 -247 46.5 -241.5 c 128,-1,2
 61 -236 61 -236 68 -223 c 0,3,4
 119 -111 119 -111 162.5 -25.5 c 128,-1,5
 206 60 206 60 251.5 135.5 c 128,-1,6
 297 211 297 211 326 256.5 c 128,-1,7
 355 302 355 302 413.5 388 c 128,-1,8
 472 474 472 474 506 527 c 0,9,10
 566 618 566 618 613 666.5 c 128,-1,11
 660 715 660 715 688 723 c 0,12,13
 722 733 722 733 746.5 688.5 c 128,-1,14
 771 644 771 644 790.5 547.5 c 128,-1,15
 810 451 810 451 827.5 340.5 c 128,-1,16
 845 230 845 230 876.5 75 c 128,-1,17
 908 -80 908 -80 946 -207 c 0,18,19
 950 -222 950 -222 963.5 -229.5 c 128,-1,20
 977 -237 977 -237 992 -232.5 c 128,-1,21
 1007 -228 1007 -228 1014.5 -214.5 c 128,-1,22
 1022 -201 1022 -201 1017 -186 c 0,23,24
 1000 -125 1000 -125 983 -47 c 128,-1,25
 966 31 966 31 954 104 c 128,-1,26
 942 177 942 177 928.5 257.5 c 128,-1,27
 915 338 915 338 902 407.5 c 128,-1,28
 889 477 889 477 873.5 543.5 c 128,-1,29
 858 610 858 610 838 659.5 c 128,-1,30
 818 709 818 709 794 744.5 c 128,-1,31
 770 780 770 780 738 793 c 128,-1,32
 706 806 706 806 667 795 c 0,33,34
 633 785 633 785 597.5 756 c 128,-1,35
 562 727 562 727 525.5 681.5 c 128,-1,36
 489 636 489 636 444 568 c 0,37,38
 411 517 411 517 352 430 c 128,-1,39
 293 343 293 343 263 296.5 c 128,-1,40
 233 250 233 250 187 173 c 128,-1,41
 141 96 141 96 96.5 8.5 c 128,-1,42
 52 -79 52 -79 0 -191 c 0,43,44
 -6 -205 -6 -205 -1 -220 c 128,-1,0
 4 -235 4 -235 18 -241 c 128,-1,1
68.5 361 m 128,-1,46
 71 351 71 351 78 344 c 128,-1,47
 85 337 85 337 94.5 334.5 c 128,-1,48
 104 332 104 332 114 334 c 0,49,50
 181 352 181 352 233.5 364 c 128,-1,51
 286 376 286 376 366 391.5 c 128,-1,52
 446 407 446 407 512.5 415 c 128,-1,53
 579 423 579 423 663.5 427 c 128,-1,54
 748 431 748 431 822 425.5 c 128,-1,55
 896 420 896 420 977.5 403.5 c 128,-1,56
 1059 387 1059 387 1132 358 c 0,57,58
 1142 355 1142 355 1151.5 356.5 c 128,-1,59
 1161 358 1161 358 1169 364 c 128,-1,60
 1177 370 1177 370 1181 380 c 0,61,62
 1186 394 1186 394 1180 408.5 c 128,-1,63
 1174 423 1174 423 1159 428 c 0,64,65
 1080 459 1080 459 992.5 476.5 c 128,-1,66
 905 494 905 494 827.5 500 c 128,-1,67
 750 506 750 506 661 502 c 128,-1,68
 572 498 572 498 504 490 c 128,-1,69
 436 482 436 482 351.5 465.5 c 128,-1,70
 267 449 267 449 216.5 437 c 128,-1,71
 166 425 166 425 95 407 c 0,72,73
 85 404 85 404 78 397 c 128,-1,74
 71 390 71 390 68.5 380.5 c 128,-1,45
 66 371 66 371 68.5 361 c 128,-1,46
EndSplineSet
Validated: 37
EndChar

StartChar: B
Encoding: 66 66 31
Width: 787
Flags: W
LayerCount: 2
Fore
SplineSet
56 342 m 128,-1,1
 59 330 59 330 70 323.5 c 128,-1,2
 81 317 81 317 93 320 c 0,3,4
 219 352 219 352 327 316 c 0,5,6
 378 300 378 300 420.5 269.5 c 128,-1,7
 463 239 463 239 490 203 c 128,-1,8
 517 167 517 167 535.5 125.5 c 128,-1,9
 554 84 554 84 555.5 46 c 128,-1,10
 557 8 557 8 547 -26 c 0,11,12
 536 -60 536 -60 509 -85 c 128,-1,13
 482 -110 482 -110 436.5 -125 c 128,-1,14
 391 -140 391 -140 318 -133 c 128,-1,15
 245 -126 245 -126 153 -96 c 0,16,17
 141 -92 141 -92 130 -97.5 c 128,-1,18
 119 -103 119 -103 115 -114.5 c 128,-1,19
 111 -126 111 -126 116.5 -137.5 c 128,-1,20
 122 -149 122 -149 134 -152 c 0,21,22
 267 -197 267 -197 364.5 -193.5 c 128,-1,23
 462 -190 462 -190 522 -151.5 c 128,-1,24
 582 -113 582 -113 604 -45 c 0,25,26
 629 29 629 29 604.5 114 c 128,-1,27
 580 199 580 199 511.5 270 c 128,-1,28
 443 341 443 341 346 373 c 0,29,30
 221 415 221 415 78 378 c 0,31,32
 66 375 66 375 59.5 364.5 c 128,-1,0
 53 354 53 354 56 342 c 128,-1,1
35 770 m 0,33,34
 27 770 27 770 20.5 765 c 128,-1,35
 14 760 14 760 10.5 753 c 128,-1,36
 7 746 7 746 8 738 c 0,37,38
 18 622 18 622 44.5 441.5 c 128,-1,39
 71 261 71 261 92.5 101 c 128,-1,40
 114 -59 114 -59 118 -160 c 0,41,42
 119 -172 119 -172 128 -180.5 c 128,-1,43
 137 -189 137 -189 149.5 -188.5 c 128,-1,44
 162 -188 162 -188 170.5 -178.5 c 128,-1,45
 179 -169 179 -169 178 -157 c 0,46,47
 173 -23 173 -23 125.5 300.5 c 128,-1,48
 78 624 78 624 67 743 c 0,49,50
 66 755 66 755 56.5 763 c 128,-1,51
 47 771 47 771 35 770 c 0,33,34
-7 683 m 0,52,53
 0 673 0 673 12 671 c 128,-1,54
 24 669 24 669 34 676 c 0,55,56
 135 747 135 747 219 740 c 0,57,58
 289 734 289 734 329.5 678 c 128,-1,59
 370 622 370 622 364 552 c 0,60,61
 361 516 361 516 344.5 484.5 c 128,-1,62
 328 453 328 453 297 427.5 c 128,-1,63
 266 402 266 402 212.5 389.5 c 128,-1,64
 159 377 159 377 90 383 c 0,65,66
 78 384 78 384 68.5 376 c 128,-1,67
 59 368 59 368 58 356 c 0,68,69
 57 350 57 350 59 344 c 128,-1,70
 61 338 61 338 64.5 334 c 128,-1,71
 68 330 68 330 73.5 327 c 128,-1,72
 79 324 79 324 85 324 c 0,73,74
 164 317 164 317 228 332.5 c 128,-1,75
 292 348 292 348 332.5 380.5 c 128,-1,76
 373 413 373 413 396.5 455.5 c 128,-1,77
 420 498 420 498 424 547 c 0,78,79
 427 582 427 582 420 616.5 c 128,-1,80
 413 651 413 651 396.5 682.5 c 128,-1,81
 380 714 380 714 356 739 c 128,-1,82
 332 764 332 764 297.5 780 c 128,-1,83
 263 796 263 796 224 799 c 0,84,85
 119 808 119 808 0 725 c 0,86,87
 -7 720 -7 720 -10 712.5 c 128,-1,88
 -13 705 -13 705 -12.5 697 c 128,-1,89
 -12 689 -12 689 -7 683 c 0,52,53
EndSplineSet
Validated: 37
EndChar

StartChar: C
Encoding: 67 67 32
Width: 985
Flags: W
LayerCount: 2
Fore
SplineSet
806 641 m 0,0,1
 819 657 819 657 816.5 678 c 128,-1,2
 814 699 814 699 798 711 c 0,3,4
 669 810 669 810 517 800 c 0,5,6
 413 793 413 793 313.5 736 c 128,-1,7
 214 679 214 679 144 594.5 c 128,-1,8
 74 510 74 510 34 405 c 128,-1,9
 -6 300 -6 300 1 200 c 0,10,11
 5 129 5 129 34 69 c 128,-1,12
 63 9 63 9 119 -40.5 c 128,-1,13
 175 -90 175 -90 255 -122.5 c 128,-1,14
 335 -155 335 -155 447.5 -168.5 c 128,-1,15
 560 -182 560 -182 696 -173 c 0,16,17
 716 -171 716 -171 730 -155.5 c 128,-1,18
 744 -140 744 -140 742.5 -119.5 c 128,-1,19
 741 -99 741 -99 725.5 -85.5 c 128,-1,20
 710 -72 710 -72 689 -73 c 0,21,22
 561 -82 561 -82 459 -70.5 c 128,-1,23
 357 -59 357 -59 292.5 -33 c 128,-1,24
 228 -7 228 -7 184.5 32.5 c 128,-1,25
 141 72 141 72 122 115 c 128,-1,26
 103 158 103 158 100 207 c 0,27,28
 95 285 95 285 129 371.5 c 128,-1,29
 163 458 163 458 222 528.5 c 128,-1,30
 281 599 281 599 362 647 c 128,-1,31
 443 695 443 695 524 701 c 0,32,33
 638 708 638 708 736 632 c 0,34,35
 747 624 747 624 760 622.5 c 128,-1,36
 773 621 773 621 785.5 626 c 128,-1,37
 798 631 798 631 806 641 c 0,0,1
EndSplineSet
Validated: 41
EndChar

StartChar: D
Encoding: 68 68 33
Width: 801
Flags: W
LayerCount: 2
Fore
SplineSet
50.5 641 m 128,-1,1
 62 633 62 633 76.5 635.5 c 128,-1,2
 91 638 91 638 100 649 c 0,3,4
 158 731 158 731 229 729 c 0,5,6
 283 728 283 728 342.5 678 c 128,-1,7
 402 628 402 628 450 552.5 c 128,-1,8
 498 477 498 477 528 378.5 c 128,-1,9
 558 280 558 280 555 190 c 0,10,11
 554 122 554 122 534 68 c 128,-1,12
 514 14 514 14 472.5 -29.5 c 128,-1,13
 431 -73 431 -73 358.5 -96 c 128,-1,14
 286 -119 286 -119 187 -116 c 0,15,16
 181 -116 181 -116 175.5 -117.5 c 128,-1,17
 170 -119 170 -119 165.5 -122 c 128,-1,18
 161 -125 161 -125 157.5 -129.5 c 128,-1,19
 154 -134 154 -134 152 -139 c 128,-1,20
 150 -144 150 -144 150 -150 c 0,21,22
 150 -165 150 -165 160 -175.5 c 128,-1,23
 170 -186 170 -186 185 -187 c 0,24,25
 275 -189 275 -189 348.5 -170.5 c 128,-1,26
 422 -152 422 -152 472 -118 c 128,-1,27
 522 -84 522 -84 557 -35.5 c 128,-1,28
 592 13 592 13 608.5 69 c 128,-1,29
 625 125 625 125 626 188 c 0,30,31
 629 266 629 266 609.5 352.5 c 128,-1,32
 590 439 590 439 552 517 c 128,-1,33
 514 595 514 595 465.5 658.5 c 128,-1,34
 417 722 417 722 355.5 760 c 128,-1,35
 294 798 294 798 231 800 c 0,36,37
 122 803 122 803 42 690 c 0,38,39
 34 679 34 679 36.5 664 c 128,-1,0
 39 649 39 649 50.5 641 c 128,-1,1
22.5 762.5 m 128,-1,41
 9 758 9 758 2 744.5 c 128,-1,42
 -5 731 -5 731 0 717 c 0,43,44
 39 603 39 603 56.5 491 c 128,-1,45
 74 379 74 379 75.5 293 c 128,-1,46
 77 207 77 207 77 127 c 128,-1,47
 77 47 77 47 86.5 -34 c 128,-1,48
 96 -115 96 -115 123 -186 c 0,49,50
 128 -200 128 -200 141.5 -206 c 128,-1,51
 155 -212 155 -212 168.5 -207 c 128,-1,52
 182 -202 182 -202 188 -188 c 128,-1,53
 194 -174 194 -174 189 -161 c 0,54,55
 167 -100 167 -100 159 -25 c 128,-1,56
 151 50 151 50 151.5 129.5 c 128,-1,57
 152 209 152 209 149.5 297.5 c 128,-1,58
 147 386 147 386 127.5 503 c 128,-1,59
 108 620 108 620 67 740 c 0,60,61
 63 754 63 754 49.5 760.5 c 128,-1,40
 36 767 36 767 22.5 762.5 c 128,-1,41
EndSplineSet
Validated: 37
EndChar

StartChar: E
Encoding: 69 69 34
Width: 990
Flags: W
LayerCount: 2
Fore
SplineSet
806 641 m 0,0,1
 819 657 819 657 816.5 678 c 128,-1,2
 814 699 814 699 798 711 c 0,3,4
 669 810 669 810 517 800 c 0,5,6
 413 793 413 793 313.5 736 c 128,-1,7
 214 679 214 679 144 594.5 c 128,-1,8
 74 510 74 510 34 405 c 128,-1,9
 -6 300 -6 300 1 200 c 0,10,11
 5 129 5 129 34 69 c 128,-1,12
 63 9 63 9 119 -40.5 c 128,-1,13
 175 -90 175 -90 255 -122.5 c 128,-1,14
 335 -155 335 -155 447.5 -168.5 c 128,-1,15
 560 -182 560 -182 696 -173 c 0,16,17
 716 -171 716 -171 730 -155.5 c 128,-1,18
 744 -140 744 -140 742.5 -119.5 c 128,-1,19
 741 -99 741 -99 725.5 -85.5 c 128,-1,20
 710 -72 710 -72 689 -73 c 0,21,22
 561 -82 561 -82 459 -70.5 c 128,-1,23
 357 -59 357 -59 292.5 -33 c 128,-1,24
 228 -7 228 -7 184.5 32.5 c 128,-1,25
 141 72 141 72 122 115 c 128,-1,26
 103 158 103 158 100 207 c 0,27,28
 95 285 95 285 129 371.5 c 128,-1,29
 163 458 163 458 222 528.5 c 128,-1,30
 281 599 281 599 362 647 c 128,-1,31
 443 695 443 695 524 701 c 0,32,33
 638 708 638 708 736 632 c 0,34,35
 747 624 747 624 760 622.5 c 128,-1,36
 773 621 773 621 785.5 626 c 128,-1,37
 798 631 798 631 806 641 c 0,0,1
89 368 m 0,38,39
 88 358 88 358 93 349 c 128,-1,40
 98 340 98 340 106 334.5 c 128,-1,41
 114 329 114 329 124 329 c 2,42,-1
 674 304 l 2,43,44
 690 303 690 303 701.5 313.5 c 128,-1,45
 713 324 713 324 713.5 339.5 c 128,-1,46
 714 355 714 355 703.5 366.5 c 128,-1,47
 693 378 693 378 678 379 c 2,48,-1
 128 404 l 2,49,50
 113 404 113 404 101 393.5 c 128,-1,51
 89 383 89 383 89 368 c 0,38,39
EndSplineSet
Validated: 37
EndChar

StartChar: F
Encoding: 70 70 35
Width: 1279
Flags: W
LayerCount: 2
Fore
SplineSet
341 940 m 128,-1,1
 326 938 326 938 316 926 c 128,-1,2
 306 914 306 914 308 899 c 0,3,4
 324 738 324 738 326 558.5 c 128,-1,5
 328 379 328 379 322 148 c 128,-1,6
 316 -83 316 -83 316 -186 c 0,7,8
 316 -201 316 -201 327 -212.5 c 128,-1,9
 338 -224 338 -224 353.5 -224 c 128,-1,10
 369 -224 369 -224 380 -212.5 c 128,-1,11
 391 -201 391 -201 391 -186 c 0,12,13
 391 -86 391 -86 397.5 146 c 128,-1,14
 404 378 404 378 401.5 560 c 128,-1,15
 399 742 399 742 382 907 c 0,16,17
 381 922 381 922 368.5 932 c 128,-1,0
 356 942 356 942 341 940 c 128,-1,1
275.5 434 m 128,-1,19
 275 419 275 419 285.5 407.5 c 128,-1,20
 296 396 296 396 312 395 c 2,21,-1
 725 379 l 2,22,23
 731 378 731 378 737 380 c 128,-1,24
 743 382 743 382 747.5 385 c 128,-1,25
 752 388 752 388 755.5 392.5 c 128,-1,26
 759 397 759 397 761.5 403 c 128,-1,27
 764 409 764 409 764 415 c 0,28,29
 765 430 765 430 754 441.5 c 128,-1,30
 743 453 743 453 728 454 c 2,31,-1
 315 470 l 2,32,33
 299 471 299 471 287.5 460 c 128,-1,18
 276 449 276 449 275.5 434 c 128,-1,19
-36 915 m 128,-1,35
 -37 900 -37 900 -26 888.5 c 128,-1,36
 -15 877 -15 877 0 876 c 2,37,-1
 1063 835 l 2,38,39
 1073 835 1073 835 1081.5 839.5 c 128,-1,40
 1090 844 1090 844 1095.5 852.5 c 128,-1,41
 1101 861 1101 861 1101 871 c 0,42,43
 1102 887 1102 887 1091.5 898.5 c 128,-1,44
 1081 910 1081 910 1065 910 c 2,45,-1
 3 951 l 2,46,47
 -12 952 -12 952 -23.5 941 c 128,-1,34
 -35 930 -35 930 -36 915 c 128,-1,35
EndSplineSet
Validated: 37
EndChar

StartChar: G
Encoding: 71 71 36
Width: 1016
Flags: W
LayerCount: 2
Fore
SplineSet
806 641 m 0,0,1
 819 657 819 657 816.5 678 c 128,-1,2
 814 699 814 699 798 711 c 0,3,4
 669 810 669 810 517 800 c 0,5,6
 413 793 413 793 313.5 736 c 128,-1,7
 214 679 214 679 144 594.5 c 128,-1,8
 74 510 74 510 34 405 c 128,-1,9
 -6 300 -6 300 1 200 c 0,10,11
 5 129 5 129 34 69 c 128,-1,12
 63 9 63 9 119 -40.5 c 128,-1,13
 175 -90 175 -90 255 -122.5 c 128,-1,14
 335 -155 335 -155 447.5 -168.5 c 128,-1,15
 560 -182 560 -182 696 -173 c 0,16,17
 716 -171 716 -171 730 -155.5 c 128,-1,18
 744 -140 744 -140 742.5 -119.5 c 128,-1,19
 741 -99 741 -99 725.5 -85.5 c 128,-1,20
 710 -72 710 -72 689 -73 c 0,21,22
 561 -82 561 -82 459 -70.5 c 128,-1,23
 357 -59 357 -59 292.5 -33 c 128,-1,24
 228 -7 228 -7 184.5 32.5 c 128,-1,25
 141 72 141 72 122 115 c 128,-1,26
 103 158 103 158 100 207 c 0,27,28
 95 285 95 285 129 371.5 c 128,-1,29
 163 458 163 458 222 528.5 c 128,-1,30
 281 599 281 599 362 647 c 128,-1,31
 443 695 443 695 524 701 c 0,32,33
 638 708 638 708 736 632 c 0,34,35
 747 624 747 624 760 622.5 c 128,-1,36
 773 621 773 621 785.5 626 c 128,-1,37
 798 631 798 631 806 641 c 0,0,1
245 319.5 m 128,-1,39
 241 305 241 305 249 291.5 c 128,-1,40
 257 278 257 278 271 274 c 0,41,42
 313 263 313 263 389 264.5 c 128,-1,43
 465 266 465 266 534.5 273.5 c 128,-1,44
 604 281 604 281 678 282.5 c 128,-1,45
 752 284 752 284 789 272 c 0,46,47
 803 268 803 268 817 275 c 128,-1,48
 831 282 831 282 835.5 297 c 128,-1,49
 840 312 840 312 833 325.5 c 128,-1,50
 826 339 826 339 811 344 c 0,51,52
 762 360 762 360 680.5 361 c 128,-1,53
 599 362 599 362 528.5 354 c 128,-1,54
 458 346 458 346 388 342.5 c 128,-1,55
 318 339 318 339 291 346 c 0,56,57
 276 350 276 350 262.5 342 c 128,-1,38
 249 334 249 334 245 319.5 c 128,-1,39
707 -198 m 128,-1,59
 722 -197 722 -197 732.5 -185.5 c 128,-1,60
 743 -174 743 -174 743 -159 c 0,61,62
 741 -132 741 -132 744 -90 c 128,-1,63
 747 -48 747 -48 751.5 -7 c 128,-1,64
 756 34 756 34 764 88.5 c 128,-1,65
 772 143 772 143 778 180.5 c 128,-1,66
 784 218 784 218 792 268 c 128,-1,67
 800 318 800 318 803 337 c 0,68,69
 805 352 805 352 795.5 364.5 c 128,-1,70
 786 377 786 377 771 380 c 0,71,72
 761 381 761 381 752 377.5 c 128,-1,73
 743 374 743 374 736.5 366 c 128,-1,74
 730 358 730 358 729 348 c 0,75,76
 727 340 727 340 711.5 242.5 c 128,-1,77
 696 145 696 145 688.5 93 c 128,-1,78
 681 41 681 41 673.5 -37.5 c 128,-1,79
 666 -116 666 -116 668 -162 c 0,80,81
 668 -177 668 -177 680 -188 c 128,-1,58
 692 -199 692 -199 707 -198 c 128,-1,59
EndSplineSet
Validated: 37
EndChar

StartChar: H
Encoding: 72 72 37
Width: 946
Flags: W
LayerCount: 2
Fore
SplineSet
52 889 m 128,-1,1
 36 890 36 890 23 879 c 128,-1,2
 10 868 10 868 9 852 c 0,3,4
 -1 666 -1 666 -1 464 c 128,-1,5
 -1 262 -1 262 16 77.5 c 128,-1,6
 33 -107 33 -107 61 -168 c 0,7,8
 68 -182 68 -182 83.5 -188 c 128,-1,9
 99 -194 99 -194 114 -187 c 128,-1,10
 129 -180 129 -180 134.5 -164.5 c 128,-1,11
 140 -149 140 -149 133 -134 c 0,12,13
 103 -68 103 -68 87.5 264.5 c 128,-1,14
 72 597 72 597 89 847 c 0,15,16
 90 863 90 863 79 875.5 c 128,-1,0
 68 888 68 888 52 889 c 128,-1,1
701.5 889 m 128,-1,18
 685 889 685 889 673 877.5 c 128,-1,19
 661 866 661 866 661 850 c 0,20,21
 658 675 658 675 658 307 c 128,-1,22
 658 -61 658 -61 658 -150 c 0,23,24
 658 -167 658 -167 669.5 -179 c 128,-1,25
 681 -191 681 -191 697 -191 c 0,26,27
 708 -191 708 -191 717.5 -185.5 c 128,-1,28
 727 -180 727 -180 732.5 -171 c 128,-1,29
 738 -162 738 -162 738 -151 c 0,30,31
 738 -81 738 -81 738 307 c 128,-1,32
 738 695 738 695 741 849 c 0,33,34
 741 865 741 865 729.5 877 c 128,-1,17
 718 889 718 889 701.5 889 c 128,-1,18
25 382 m 0,35,36
 27 366 27 366 40 355.5 c 128,-1,37
 53 345 53 345 70 347 c 0,38,39
 145 355 145 355 238 353.5 c 128,-1,40
 331 352 331 352 408.5 346.5 c 128,-1,41
 486 341 486 341 571.5 342.5 c 128,-1,42
 657 344 657 344 717 357 c 0,43,44
 728 359 728 359 735.5 366.5 c 128,-1,45
 743 374 743 374 746.5 384 c 128,-1,46
 750 394 750 394 748 405 c 0,47,48
 744 421 744 421 730 430 c 128,-1,49
 716 439 716 439 700 435 c 0,50,51
 649 424 649 424 569.5 423.5 c 128,-1,52
 490 423 490 423 412.5 428.5 c 128,-1,53
 335 434 335 434 239 435 c 128,-1,54
 143 436 143 436 60 427 c 0,55,56
 52 426 52 426 45 422 c 128,-1,57
 38 418 38 418 33.5 412 c 128,-1,58
 29 406 29 406 26.5 398 c 128,-1,59
 24 390 24 390 25 382 c 0,35,36
EndSplineSet
Validated: 37
EndChar

StartChar: I
Encoding: 73 73 38
Width: 298
Flags: W
LayerCount: 2
Fore
SplineSet
52 875 m 128,-1,1
 36 876 36 876 23 865 c 128,-1,2
 10 854 10 854 9 838 c 0,3,4
 1 709 1 709 -0.5 551.5 c 128,-1,5
 -2 394 -2 394 4 248 c 128,-1,6
 10 102 10 102 25 -17 c 128,-1,7
 40 -136 40 -136 61 -182 c 0,8,9
 68 -196 68 -196 83.5 -202 c 128,-1,10
 99 -208 99 -208 114 -201 c 128,-1,11
 129 -194 129 -194 134.5 -178.5 c 128,-1,12
 140 -163 140 -163 133 -148 c 0,13,14
 103 -82 103 -82 87.5 250.5 c 128,-1,15
 72 583 72 583 89 833 c 0,16,17
 90 849 90 849 79 861.5 c 128,-1,0
 68 874 68 874 52 875 c 128,-1,1
EndSplineSet
Validated: 41
EndChar

StartChar: J
Encoding: 74 74 39
Width: 902
Flags: W
LayerCount: 2
Fore
SplineSet
555 917 m 128,-1,1
 539 918 539 918 526 907 c 128,-1,2
 513 896 513 896 512 880 c 0,3,4
 502 694 502 694 502 491.5 c 128,-1,5
 502 289 502 289 519 105 c 128,-1,6
 536 -79 536 -79 564 -140 c 0,7,8
 571 -155 571 -155 586.5 -160.5 c 128,-1,9
 602 -166 602 -166 617 -159 c 128,-1,10
 632 -152 632 -152 637.5 -136.5 c 128,-1,11
 643 -121 643 -121 636 -106 c 0,12,13
 606 -40 606 -40 590.5 292 c 128,-1,14
 575 624 575 624 592 874 c 0,15,16
 593 891 593 891 582 903.5 c 128,-1,0
 571 916 571 916 555 917 c 128,-1,1
99 823 m 0,17,18
 104 814 104 814 113.5 809 c 128,-1,19
 123 804 123 804 133.5 804 c 128,-1,20
 144 804 144 804 154 810 c 0,21,22
 203 839 203 839 268.5 851.5 c 128,-1,23
 334 864 334 864 390 860.5 c 128,-1,24
 446 857 446 857 484 851.5 c 128,-1,25
 522 846 522 846 535 841 c 0,26,27
 543 837 543 837 551 837 c 128,-1,28
 559 837 559 837 566 839.5 c 128,-1,29
 573 842 573 842 579 847.5 c 128,-1,30
 585 853 585 853 588 860 c 0,31,32
 595 875 595 875 589.5 890.5 c 128,-1,33
 584 906 584 906 569 913 c 0,34,35
 557 919 557 919 526.5 926.5 c 128,-1,36
 496 934 496 934 446 939.5 c 128,-1,37
 396 945 396 945 342.5 943 c 128,-1,38
 289 941 289 941 226.5 925 c 128,-1,39
 164 909 164 909 112 878 c 0,40,41
 98 870 98 870 94 853.5 c 128,-1,42
 90 837 90 837 99 823 c 0,17,18
554 89 m 128,-1,44
 538 89 538 89 526 77.5 c 128,-1,45
 514 66 514 66 514 49 c 0,46,47
 513 -2 513 -2 486 -40.5 c 128,-1,48
 459 -79 459 -79 415 -98.5 c 128,-1,49
 371 -118 371 -118 317 -118 c 0,50,51
 272 -118 272 -118 231 -103 c 128,-1,52
 190 -88 190 -88 155.5 -58.5 c 128,-1,53
 121 -29 121 -29 100.5 21.5 c 128,-1,54
 80 72 80 72 80 138 c 0,55,56
 80 154 80 154 68 166 c 128,-1,57
 56 178 56 178 40 178 c 128,-1,58
 24 178 24 178 12 166 c 128,-1,59
 0 154 0 154 0 138 c 0,60,61
 0 56 0 56 27.5 -10 c 128,-1,62
 55 -76 55 -76 101 -116 c 128,-1,63
 147 -156 147 -156 202.5 -177 c 128,-1,64
 258 -198 258 -198 317 -198 c 0,65,66
 369 -198 369 -198 417.5 -181.5 c 128,-1,67
 466 -165 466 -165 505.5 -135 c 128,-1,68
 545 -105 545 -105 569 -57.5 c 128,-1,69
 593 -10 593 -10 594 49 c 0,70,71
 594 65 594 65 582 77 c 128,-1,43
 570 89 570 89 554 89 c 128,-1,44
EndSplineSet
Validated: 37
EndChar

StartChar: K
Encoding: 75 75 40
Width: 970
Flags: W
LayerCount: 2
Fore
SplineSet
52 932 m 0,0,1
 41 933 41 933 31.5 928 c 128,-1,2
 22 923 22 923 16 914.5 c 128,-1,3
 10 906 10 906 9 895 c 0,4,5
 -2 730 -2 730 0.5 494.5 c 128,-1,6
 3 259 3 259 9 87.5 c 128,-1,7
 15 -84 15 -84 21 -159 c 0,8,9
 22 -175 22 -175 34.5 -186 c 128,-1,10
 47 -197 47 -197 63.5 -195.5 c 128,-1,11
 80 -194 80 -194 91 -181.5 c 128,-1,12
 102 -169 102 -169 100 -153 c 0,13,14
 95 -81 95 -81 89 90.5 c 128,-1,15
 83 262 83 262 80.5 495 c 128,-1,16
 78 728 78 728 89 890 c 0,17,18
 90 906 90 906 79 918.5 c 128,-1,19
 68 931 68 931 52 932 c 0,0,1
733.5 886 m 128,-1,21
 722 897 722 897 705 897 c 128,-1,22
 688 897 688 897 677 885 c 0,23,24
 614 819 614 819 508 737 c 128,-1,25
 402 655 402 655 239.5 542 c 128,-1,26
 77 429 77 429 48 408 c 0,27,28
 35 399 35 399 32 382.5 c 128,-1,29
 29 366 29 366 39 352.5 c 128,-1,30
 49 339 49 339 65.5 336.5 c 128,-1,31
 82 334 82 334 95 344 c 0,32,33
 123 364 123 364 285.5 476.5 c 128,-1,34
 448 589 448 589 557 673.5 c 128,-1,35
 666 758 666 758 735 829 c 0,36,37
 746 841 746 841 745.5 858 c 128,-1,20
 745 875 745 875 733.5 886 c 128,-1,21
40 401 m 128,-1,39
 30 388 30 388 32 371.5 c 128,-1,40
 34 355 34 355 47 345 c 0,41,42
 109 295 109 295 194 226 c 128,-1,43
 279 157 279 157 323 122 c 128,-1,44
 367 87 367 87 430.5 40 c 128,-1,45
 494 -7 494 -7 556.5 -47.5 c 128,-1,46
 619 -88 619 -88 697 -133 c 0,47,48
 711 -141 711 -141 727.5 -136.5 c 128,-1,49
 744 -132 744 -132 752 -118 c 128,-1,50
 760 -104 760 -104 755.5 -88 c 128,-1,51
 751 -72 751 -72 737 -63 c 0,52,53
 643 -9 643 -9 560 47.5 c 128,-1,54
 477 104 477 104 432 138.5 c 128,-1,55
 387 173 387 173 273.5 265 c 128,-1,56
 160 357 160 357 96 407 c 0,57,58
 83 417 83 417 66.5 415.5 c 128,-1,38
 50 414 50 414 40 401 c 128,-1,39
EndSplineSet
Validated: 37
EndChar

StartChar: L
Encoding: 76 76 41
Width: 922
Flags: W
LayerCount: 2
Fore
SplineSet
52 908 m 128,-1,1
 36 909 36 909 23 898 c 128,-1,2
 10 887 10 887 9 871 c 0,3,4
 -2 706 -2 706 0.5 470.5 c 128,-1,5
 3 235 3 235 9 63.5 c 128,-1,6
 15 -108 15 -108 21 -183 c 0,7,8
 22 -199 22 -199 34.5 -210 c 128,-1,9
 47 -221 47 -221 63.5 -219.5 c 128,-1,10
 80 -218 80 -218 91 -205.5 c 128,-1,11
 102 -193 102 -193 100 -177 c 0,12,13
 95 -105 95 -105 89 66.5 c 128,-1,14
 83 238 83 238 80.5 471 c 128,-1,15
 78 704 78 704 89 866 c 0,16,17
 90 882 90 882 79 894.5 c 128,-1,0
 68 907 68 907 52 908 c 128,-1,1
23 -137.5 m 128,-1,19
 23 -153 23 -153 34 -164 c 128,-1,20
 45 -175 45 -175 60 -175 c 2,21,-1
 706 -183 l 2,22,23
 716 -183 716 -183 725 -178 c 128,-1,24
 734 -173 734 -173 739 -164.5 c 128,-1,25
 744 -156 744 -156 744 -146 c 128,-1,26
 744 -136 744 -136 739 -127.5 c 128,-1,27
 734 -119 734 -119 725.5 -113.5 c 128,-1,28
 717 -108 717 -108 707 -108 c 2,29,-1
 61 -100 l 2,30,31
 46 -100 46 -100 34.5 -111 c 128,-1,18
 23 -122 23 -122 23 -137.5 c 128,-1,19
EndSplineSet
Validated: 37
EndChar

StartChar: M
Encoding: 77 77 42
Width: 1192
Flags: W
LayerCount: 2
Fore
SplineSet
52 933 m 0,0,1
 41 934 41 934 31.5 929 c 128,-1,2
 22 924 22 924 16 915 c 128,-1,3
 10 906 10 906 9 896 c 0,4,5
 -2 731 -2 731 0.5 495 c 128,-1,6
 3 259 3 259 9 88 c 128,-1,7
 15 -83 15 -83 21 -158 c 0,8,9
 22 -174 22 -174 34.5 -185 c 128,-1,10
 47 -196 47 -196 63.5 -195 c 128,-1,11
 80 -194 80 -194 91 -181 c 128,-1,12
 102 -168 102 -168 100 -152 c 0,13,14
 95 -81 95 -81 89 90.5 c 128,-1,15
 83 262 83 262 80.5 495.5 c 128,-1,16
 78 729 78 729 89 890 c 0,17,18
 90 907 90 907 79 919.5 c 128,-1,19
 68 932 68 932 52 933 c 0,0,1
906 933 m 0,20,21
 898 934 898 934 890.5 931 c 128,-1,22
 883 928 883 928 877 923 c 128,-1,23
 871 918 871 918 867.5 911 c 128,-1,24
 864 904 864 904 863 896 c 0,25,26
 852 731 852 731 854.5 495 c 128,-1,27
 857 259 857 259 863 88 c 128,-1,28
 869 -83 869 -83 875 -158 c 0,29,30
 875 -166 875 -166 879 -173 c 128,-1,31
 883 -180 883 -180 888.5 -185 c 128,-1,32
 894 -190 894 -190 901.5 -192.5 c 128,-1,33
 909 -195 909 -195 917 -195 c 0,34,35
 934 -194 934 -194 945 -181 c 128,-1,36
 956 -168 956 -168 954 -152 c 0,37,38
 949 -81 949 -81 943 90.5 c 128,-1,39
 937 262 937 262 934.5 495.5 c 128,-1,40
 932 729 932 729 943 890 c 0,41,42
 944 901 944 901 939 910.5 c 128,-1,43
 934 920 934 920 925.5 926 c 128,-1,44
 917 932 917 932 906 933 c 0,20,21
16.5 915.5 m 128,-1,46
 7 902 7 902 10 886 c 128,-1,47
 13 870 13 870 26 860 c 0,48,49
 87 818 87 818 134.5 766 c 128,-1,50
 182 714 182 714 215 661.5 c 128,-1,51
 248 609 248 609 279.5 556 c 128,-1,52
 311 503 311 503 358 441.5 c 128,-1,53
 405 380 405 380 462 328 c 0,54,55
 474 317 474 317 491 317.5 c 128,-1,56
 508 318 508 318 519 330 c 128,-1,57
 530 342 530 342 529 359 c 128,-1,58
 528 376 528 376 516 387 c 0,59,60
 466 432 466 432 424 490 c 128,-1,61
 382 548 382 548 350.5 601.5 c 128,-1,62
 319 655 319 655 283.5 710 c 128,-1,63
 248 765 248 765 194.5 821.5 c 128,-1,64
 141 878 141 878 72 926 c 0,65,66
 59 935 59 935 42.5 932 c 128,-1,45
 26 929 26 929 16.5 915.5 c 128,-1,46
962 916 m 0,67,68
 956 925 956 925 946.5 929.5 c 128,-1,69
 937 934 937 934 926 933 c 128,-1,70
 915 932 915 932 906 926 c 0,71,72
 856 891 856 891 814 851.5 c 128,-1,73
 772 812 772 812 742 773.5 c 128,-1,74
 712 735 712 735 686 695.5 c 128,-1,75
 660 656 660 656 636 615.5 c 128,-1,76
 612 575 612 575 588 537.5 c 128,-1,77
 564 500 564 500 531.5 460 c 128,-1,78
 499 420 499 420 462 387 c 0,79,80
 454 379 454 379 451 369 c 128,-1,81
 448 359 448 359 450 348.5 c 128,-1,82
 452 338 452 338 460 330 c 0,83,84
 471 318 471 318 487.5 317.5 c 128,-1,85
 504 317 504 317 516 328 c 0,86,87
 574 380 574 380 620.5 441.5 c 128,-1,88
 667 503 667 503 698.5 556 c 128,-1,89
 730 609 730 609 763.5 661.5 c 128,-1,90
 797 714 797 714 844 766 c 128,-1,91
 891 818 891 818 952 860 c 0,92,93
 965 870 965 870 968 886 c 128,-1,94
 971 902 971 902 962 916 c 0,67,68
EndSplineSet
Validated: 37
EndChar

StartChar: N
Encoding: 78 78 43
Width: 1264
Flags: W
LayerCount: 2
Fore
SplineSet
52 932 m 128,-1,1
 36 933 36 933 23 922 c 128,-1,2
 10 911 10 911 9 895 c 0,3,4
 -2 730 -2 730 0.5 494 c 128,-1,5
 3 258 3 258 9 87 c 128,-1,6
 15 -84 15 -84 21 -159 c 0,7,8
 22 -175 22 -175 34.5 -186 c 128,-1,9
 47 -197 47 -197 63.5 -196 c 128,-1,10
 80 -195 80 -195 91 -182 c 128,-1,11
 102 -169 102 -169 100 -153 c 0,12,13
 95 -82 95 -82 89 89.5 c 128,-1,14
 83 261 83 261 80.5 494.5 c 128,-1,15
 78 728 78 728 89 889 c 0,16,17
 90 906 90 906 79 918.5 c 128,-1,0
 68 931 68 931 52 932 c 128,-1,1
906 932 m 0,18,19
 890 933 890 933 877 922 c 128,-1,20
 864 911 864 911 863 895 c 0,21,22
 852 730 852 730 854.5 494 c 128,-1,23
 857 258 857 258 863 87 c 128,-1,24
 869 -84 869 -84 875 -159 c 0,25,26
 876 -175 876 -175 888.5 -186 c 128,-1,27
 901 -197 901 -197 917.5 -196 c 128,-1,28
 934 -195 934 -195 945 -182 c 128,-1,29
 956 -169 956 -169 954 -153 c 0,30,31
 949 -82 949 -82 943 89.5 c 128,-1,32
 937 261 937 261 934.5 494.5 c 128,-1,33
 932 728 932 728 943 889 c 0,34,35
 944 900 944 900 939 909.5 c 128,-1,36
 934 919 934 919 925.5 925 c 128,-1,37
 917 931 917 931 906 932 c 0,18,19
16.5 914.5 m 128,-1,39
 7 901 7 901 10 885 c 128,-1,40
 13 869 13 869 26 859 c 0,41,42
 87 817 87 817 178.5 712 c 128,-1,43
 270 607 270 607 366 479 c 128,-1,44
 462 351 462 351 556.5 222.5 c 128,-1,45
 651 94 651 94 741 -20 c 128,-1,46
 831 -134 831 -134 887 -185 c 0,47,48
 899 -196 899 -196 916 -195.5 c 128,-1,49
 933 -195 933 -195 944 -183 c 128,-1,50
 955 -171 955 -171 954.5 -154.5 c 128,-1,51
 954 -138 954 -138 941 -126 c 0,52,53
 891 -80 891 -80 804 31 c 128,-1,54
 717 142 717 142 623.5 270.5 c 128,-1,55
 530 399 530 399 432.5 529 c 128,-1,56
 335 659 335 659 238 768 c 128,-1,57
 141 877 141 877 72 925 c 0,58,59
 59 934 59 934 42.5 931 c 128,-1,38
 26 928 26 928 16.5 914.5 c 128,-1,39
EndSplineSet
Validated: 37
EndChar

StartChar: O
Encoding: 79 79 44
Width: 1132
Flags: W
LayerCount: 2
Fore
SplineSet
873 490 m 1,0,1
 882 507 882 507 877 523 c 0,2,3
 854 597 854 597 811.5 652.5 c 128,-1,4
 769 708 769 708 716 740 c 128,-1,5
 663 772 663 772 601 787.5 c 128,-1,6
 539 803 539 803 475.5 799.5 c 128,-1,7
 412 796 412 796 350 776 c 0,8,9
 265 750 265 750 193.5 696.5 c 128,-1,10
 122 643 122 643 71.5 564.5 c 128,-1,11
 21 486 21 486 5.5 387.5 c 128,-1,12
 -10 289 -10 289 18 172 c 0,13,14
 33 110 33 110 67 57 c 128,-1,15
 101 4 101 4 146 -34.5 c 128,-1,16
 191 -73 191 -73 246 -100 c 128,-1,17
 301 -127 301 -127 359.5 -140 c 128,-1,18
 418 -153 418 -153 478.5 -153 c 128,-1,19
 539 -153 539 -153 595 -139 c 0,20,21
 678 -118 678 -118 742 -69 c 128,-1,22
 806 -20 806 -20 849 59.5 c 128,-1,23
 892 139 892 139 899 246 c 128,-1,24
 906 353 906 353 873 490 c 1,0,1
790 530 m 1,25,26
 783 515 783 515 787 501 c 0,27,28
 792 485 792 485 796 470 c 0,29,30
 820 373 820 373 821 291 c 128,-1,31
 822 209 822 209 803.5 151 c 128,-1,32
 785 93 785 93 750 48.5 c 128,-1,33
 715 4 715 4 671.5 -22 c 128,-1,34
 628 -48 628 -48 576 -61 c 0,35,36
 517 -74 517 -74 457 -73 c 128,-1,37
 397 -72 397 -72 338 -51 c 128,-1,38
 279 -30 279 -30 230.5 2 c 128,-1,39
 182 34 182 34 146 83.5 c 128,-1,40
 110 133 110 133 95 192 c 0,41,42
 74 286 74 286 83 364.5 c 128,-1,43
 92 443 92 443 129 506.5 c 128,-1,44
 166 570 166 570 219 615 c 128,-1,45
 272 660 272 660 339 688 c 0,46,47
 405 715 405 715 472.5 719 c 128,-1,48
 540 723 540 723 601 705.5 c 128,-1,49
 662 688 662 688 712 643 c 128,-1,50
 762 598 762 598 790 530 c 1,25,26
EndSplineSet
Validated: 41
EndChar

StartChar: P
Encoding: 80 80 45
Width: 898
Flags: W
LayerCount: 2
Fore
SplineSet
52 940 m 128,-1,1
 36 941 36 941 23 930 c 128,-1,2
 10 919 10 919 9 903 c 0,3,4
 -2 737 -2 737 0.5 501.5 c 128,-1,5
 3 266 3 266 9 95 c 128,-1,6
 15 -76 15 -76 21 -151 c 0,7,8
 22 -167 22 -167 34.5 -178 c 128,-1,9
 47 -189 47 -189 63.5 -188 c 128,-1,10
 80 -187 80 -187 91 -174 c 128,-1,11
 102 -161 102 -161 100 -145 c 0,12,13
 95 -74 95 -74 89 97.5 c 128,-1,14
 83 269 83 269 80.5 502 c 128,-1,15
 78 735 78 735 89 897 c 0,16,17
 90 914 90 914 79 926.5 c 128,-1,0
 68 939 68 939 52 940 c 128,-1,1
18 875.5 m 128,-1,19
 28 863 28 863 44.5 860.5 c 128,-1,20
 61 858 61 858 74 868 c 0,21,22
 153 929 153 929 244 923 c 0,23,24
 310 919 310 919 375 880 c 128,-1,25
 440 841 440 841 487 785 c 128,-1,26
 534 729 534 729 561.5 659.5 c 128,-1,27
 589 590 589 590 585 527 c 0,28,29
 582 487 582 487 567 452.5 c 128,-1,30
 552 418 552 418 517 386.5 c 128,-1,31
 482 355 482 355 430.5 334 c 128,-1,32
 379 313 379 313 297 303.5 c 128,-1,33
 215 294 215 294 112 301 c 0,34,35
 105 302 105 302 99 300.5 c 128,-1,36
 93 299 93 299 88 295.5 c 128,-1,37
 83 292 83 292 78.5 287.5 c 128,-1,38
 74 283 74 283 71.5 277 c 128,-1,39
 69 271 69 271 69 264.5 c 128,-1,40
 69 258 69 258 70.5 251.5 c 128,-1,41
 72 245 72 245 75.5 240 c 128,-1,42
 79 235 79 235 83.5 231 c 128,-1,43
 88 227 88 227 94 224.5 c 128,-1,44
 100 222 100 222 106 222 c 0,45,46
 242 212 242 212 348.5 231 c 128,-1,47
 455 250 455 250 521.5 292 c 128,-1,48
 588 334 588 334 624 392 c 128,-1,49
 660 450 660 450 665 521 c 0,50,51
 670 601 670 601 638 685.5 c 128,-1,52
 606 770 606 770 549.5 838 c 128,-1,53
 493 906 493 906 413 951.5 c 128,-1,54
 333 997 333 997 250 1003 c 0,55,56
 128 1011 128 1011 25 932 c 0,57,58
 12 922 12 922 10 905 c 128,-1,18
 8 888 8 888 18 875.5 c 128,-1,19
EndSplineSet
Validated: 37
EndChar

StartChar: Q
Encoding: 81 81 46
Width: 1200
Flags: W
LayerCount: 2
Fore
SplineSet
873 490 m 1,0,1
 882 507 882 507 877 523 c 0,2,3
 854 597 854 597 811.5 652.5 c 128,-1,4
 769 708 769 708 716 740 c 128,-1,5
 663 772 663 772 601 787.5 c 128,-1,6
 539 803 539 803 475.5 799.5 c 128,-1,7
 412 796 412 796 350 776 c 0,8,9
 265 750 265 750 193.5 696.5 c 128,-1,10
 122 643 122 643 71.5 564.5 c 128,-1,11
 21 486 21 486 5.5 387.5 c 128,-1,12
 -10 289 -10 289 18 172 c 0,13,14
 33 110 33 110 67 57 c 128,-1,15
 101 4 101 4 146 -34.5 c 128,-1,16
 191 -73 191 -73 246 -100 c 128,-1,17
 301 -127 301 -127 359.5 -140 c 128,-1,18
 418 -153 418 -153 478.5 -153 c 128,-1,19
 539 -153 539 -153 595 -139 c 0,20,21
 678 -118 678 -118 742 -69 c 128,-1,22
 806 -20 806 -20 849 59.5 c 128,-1,23
 892 139 892 139 899 246 c 128,-1,24
 906 353 906 353 873 490 c 1,0,1
790 530 m 1,25,26
 783 515 783 515 787 501 c 0,27,28
 792 485 792 485 796 470 c 0,29,30
 820 373 820 373 821 291 c 128,-1,31
 822 209 822 209 803.5 151 c 128,-1,32
 785 93 785 93 750 48.5 c 128,-1,33
 715 4 715 4 671.5 -22 c 128,-1,34
 628 -48 628 -48 576 -61 c 0,35,36
 517 -74 517 -74 457 -73 c 128,-1,37
 397 -72 397 -72 338 -51 c 128,-1,38
 279 -30 279 -30 230.5 2 c 128,-1,39
 182 34 182 34 146 83.5 c 128,-1,40
 110 133 110 133 95 192 c 0,41,42
 74 286 74 286 83 364.5 c 128,-1,43
 92 443 92 443 129 506.5 c 128,-1,44
 166 570 166 570 219 615 c 128,-1,45
 272 660 272 660 339 688 c 0,46,47
 405 715 405 715 472.5 719 c 128,-1,48
 540 723 540 723 601 705.5 c 128,-1,49
 662 688 662 688 712 643 c 128,-1,50
 762 598 762 598 790 530 c 1,25,26
316.5 -109.5 m 128,-1,52
 322 -124 322 -124 336 -130.5 c 128,-1,53
 350 -137 350 -137 364 -131 c 0,54,55
 398 -119 398 -119 431.5 -97 c 128,-1,56
 465 -75 465 -75 488 -55 c 128,-1,57
 511 -35 511 -35 537 -11 c 128,-1,58
 563 13 563 13 577 23 c 0,59,60
 596 37 596 37 604.5 41 c 128,-1,61
 613 45 613 45 619.5 41.5 c 128,-1,62
 626 38 626 38 636 24 c 0,63,64
 640 19 640 19 648 8 c 0,65,66
 670 -21 670 -21 681.5 -36.5 c 128,-1,67
 693 -52 693 -52 717 -78 c 128,-1,68
 741 -104 741 -104 760.5 -118.5 c 128,-1,69
 780 -133 780 -133 811.5 -152.5 c 128,-1,70
 843 -172 843 -172 876 -183 c 128,-1,71
 909 -194 909 -194 954 -203 c 128,-1,72
 999 -212 999 -212 1052 -215 c 0,73,74
 1062 -216 1062 -216 1071 -211.5 c 128,-1,75
 1080 -207 1080 -207 1085.5 -198.5 c 128,-1,76
 1091 -190 1091 -190 1092 -180 c 0,77,78
 1092 -173 1092 -173 1089.5 -165.5 c 128,-1,79
 1087 -158 1087 -158 1082.5 -153 c 128,-1,80
 1078 -148 1078 -148 1071 -144.5 c 128,-1,81
 1064 -141 1064 -141 1057 -140 c 0,82,83
 1021 -138 1021 -138 990.5 -133.5 c 128,-1,84
 960 -129 960 -129 936 -124 c 128,-1,85
 912 -119 912 -119 889 -109 c 128,-1,86
 866 -99 866 -99 851 -92.5 c 128,-1,87
 836 -86 836 -86 818 -71 c 128,-1,88
 800 -56 800 -56 790.5 -48.5 c 128,-1,89
 781 -41 781 -41 765 -21.5 c 128,-1,90
 749 -2 749 -2 743 5.5 c 128,-1,91
 737 13 737 13 720 36.5 c 128,-1,92
 703 60 703 60 697 69 c 0,93,94
 673 101 673 101 642 110 c 128,-1,95
 611 119 611 119 584.5 110.5 c 128,-1,96
 558 102 558 102 532 83 c 0,97,98
 512 68 512 68 474 34 c 128,-1,99
 436 0 436 0 403 -24.5 c 128,-1,100
 370 -49 370 -49 339 -61 c 0,101,102
 324 -66 324 -66 317.5 -80.5 c 128,-1,51
 311 -95 311 -95 316.5 -109.5 c 128,-1,52
EndSplineSet
Validated: 37
EndChar

StartChar: R
Encoding: 82 82 47
Width: 988
Flags: W
LayerCount: 2
Fore
SplineSet
52 862 m 0,0,1
 41 863 41 863 31.5 858 c 128,-1,2
 22 853 22 853 16 844 c 128,-1,3
 10 835 10 835 9 825 c 0,4,5
 -2 659 -2 659 0.5 423.5 c 128,-1,6
 3 188 3 188 9 17 c 128,-1,7
 15 -154 15 -154 21 -229 c 0,8,9
 22 -245 22 -245 34.5 -256 c 128,-1,10
 47 -267 47 -267 63.5 -266 c 128,-1,11
 80 -265 80 -265 91 -252.5 c 128,-1,12
 102 -240 102 -240 100 -223 c 0,13,14
 95 -152 95 -152 89 19.5 c 128,-1,15
 83 191 83 191 80.5 424 c 128,-1,16
 78 657 78 657 89 819 c 0,17,18
 90 836 90 836 79 848.5 c 128,-1,19
 68 861 68 861 52 862 c 0,0,1
18 797 m 128,-1,21
 28 784 28 784 44.5 782 c 128,-1,22
 61 780 61 780 74 790 c 0,23,24
 159 857 159 857 255 850 c 0,25,26
 313 846 313 846 368.5 815 c 128,-1,27
 424 784 424 784 463.5 738.5 c 128,-1,28
 503 693 503 693 525.5 637 c 128,-1,29
 548 581 548 581 544 529 c 0,30,31
 541 492 541 492 525.5 459 c 128,-1,32
 510 426 510 426 473.5 395 c 128,-1,33
 437 364 437 364 383 343 c 128,-1,34
 329 322 329 322 242.5 313 c 128,-1,35
 156 304 156 304 48 311 c 0,36,37
 40 312 40 312 32 309.5 c 128,-1,38
 24 307 24 307 18.5 302 c 128,-1,39
 13 297 13 297 9.5 289.5 c 128,-1,40
 6 282 6 282 5 274 c 0,41,42
 4 258 4 258 15 245.5 c 128,-1,43
 26 233 26 233 42 232 c 0,44,45
 184 222 184 222 295 240 c 128,-1,46
 406 258 406 258 475 299.5 c 128,-1,47
 544 341 544 341 581.5 397.5 c 128,-1,48
 619 454 619 454 624 524 c 0,49,50
 630 617 630 617 582.5 708.5 c 128,-1,51
 535 800 535 800 448 861.5 c 128,-1,52
 361 923 361 923 261 930 c 0,53,54
 134 939 134 939 25 854 c 0,55,56
 12 844 12 844 10 827 c 128,-1,20
 8 810 8 810 18 797 c 128,-1,21
277 269.5 m 128,-1,58
 279 253 279 253 292 243 c 128,-1,59
 305 233 305 233 321 235 c 0,60,61
 354 238 354 238 381 213.5 c 128,-1,62
 408 189 408 189 426.5 147 c 128,-1,63
 445 105 445 105 462.5 53.5 c 128,-1,64
 480 2 480 2 500 -48 c 128,-1,65
 520 -98 520 -98 543 -137.5 c 128,-1,66
 566 -177 566 -177 601.5 -197 c 128,-1,67
 637 -217 637 -217 681 -207 c 0,68,69
 697 -204 697 -204 706 -190 c 128,-1,70
 715 -176 715 -176 711.5 -160 c 128,-1,71
 708 -144 708 -144 694 -135 c 128,-1,72
 680 -126 680 -126 664 -129 c 0,73,74
 644 -134 644 -134 628.5 -116.5 c 128,-1,75
 613 -99 613 -99 602.5 -66 c 128,-1,76
 592 -33 592 -33 580 9 c 128,-1,77
 568 51 568 51 556 95.5 c 128,-1,78
 544 140 544 140 523 182 c 128,-1,79
 502 224 502 224 475.5 255.5 c 128,-1,80
 449 287 449 287 407 303.5 c 128,-1,81
 365 320 365 320 312 314 c 0,82,83
 296 312 296 312 285.5 299 c 128,-1,57
 275 286 275 286 277 269.5 c 128,-1,58
EndSplineSet
Validated: 37
EndChar

StartChar: S
Encoding: 83 83 48
Width: 790
Flags: W
LayerCount: 2
Fore
SplineSet
482 424 m 0,0,1
 490 421 490 421 497.5 421.5 c 128,-1,2
 505 422 505 422 512 425 c 128,-1,3
 519 428 519 428 524.5 433.5 c 128,-1,4
 530 439 530 439 533 446 c 0,5,6
 561 516 561 516 556 576.5 c 128,-1,7
 551 637 551 637 523 682.5 c 128,-1,8
 495 728 495 728 449 757 c 0,9,10
 392 793 392 793 323 799.5 c 128,-1,11
 254 806 254 806 187 777 c 128,-1,12
 120 748 120 748 80 685 c 0,13,14
 46 630 46 630 42.5 575 c 128,-1,15
 39 520 39 520 62 471.5 c 128,-1,16
 85 423 85 423 121.5 376.5 c 128,-1,17
 158 330 158 330 204 286 c 128,-1,18
 250 242 250 242 291 202.5 c 128,-1,19
 332 163 332 163 366 121 c 128,-1,20
 400 79 400 79 411 44 c 0,21,22
 420 19 420 19 417 0.5 c 128,-1,23
 414 -18 414 -18 405.5 -28.5 c 128,-1,24
 397 -39 397 -39 380 -48 c 0,25,26
 351 -64 351 -64 305 -65.5 c 128,-1,27
 259 -67 259 -67 214 -56 c 128,-1,28
 169 -45 169 -45 128 -19 c 128,-1,29
 87 7 87 7 69 42 c 0,30,31
 61 56 61 56 45.5 60.5 c 128,-1,32
 30 65 30 65 16 57.5 c 128,-1,33
 2 50 2 50 -3 34 c 128,-1,34
 -8 18 -8 18 0 4 c 0,35,36
 28 -47 28 -47 81 -83 c 128,-1,37
 134 -119 134 -119 193.5 -134 c 128,-1,38
 253 -149 253 -149 313.5 -145 c 128,-1,39
 374 -141 374 -141 418 -117 c 0,40,41
 465 -91 465 -91 484.5 -42 c 128,-1,42
 504 7 504 7 485 68 c 0,43,44
 467 124 467 124 431 177.5 c 128,-1,45
 395 231 395 231 355 270.5 c 128,-1,46
 315 310 315 310 272 348 c 128,-1,47
 229 386 229 386 195.5 419.5 c 128,-1,48
 162 453 162 453 140 487.5 c 128,-1,49
 118 522 118 522 118.5 561.5 c 128,-1,50
 119 601 119 601 146 643 c 0,51,52
 160 665 160 665 179 681 c 128,-1,53
 198 697 198 697 220 706 c 128,-1,54
 242 715 242 715 266.5 719 c 128,-1,55
 291 723 291 723 315 721 c 128,-1,56
 339 719 339 719 363 711.5 c 128,-1,57
 387 704 387 704 407 691 c 0,58,59
 439 671 439 671 457 642.5 c 128,-1,60
 475 614 475 614 479 571 c 128,-1,61
 483 528 483 528 461 475 c 0,62,63
 455 460 455 460 461.5 445 c 128,-1,64
 468 430 468 430 482 424 c 0,0,1
EndSplineSet
Validated: 41
EndChar

StartChar: T
Encoding: 84 84 49
Width: 1022
Flags: W
LayerCount: 2
Fore
SplineSet
342 936 m 0,0,1
 332 937 332 937 322 932 c 128,-1,2
 312 927 312 927 306 918.5 c 128,-1,3
 300 910 300 910 300 899 c 0,4,5
 292 780 292 780 291 608.5 c 128,-1,6
 290 437 290 437 294 282 c 128,-1,7
 298 127 298 127 302.5 11 c 128,-1,8
 307 -105 307 -105 311 -155 c 0,9,10
 312 -171 312 -171 324.5 -182 c 128,-1,11
 337 -193 337 -193 353.5 -191.5 c 128,-1,12
 370 -190 370 -190 381 -177.5 c 128,-1,13
 392 -165 392 -165 391 -149 c 0,14,15
 385 -77 385 -77 379 94.5 c 128,-1,16
 373 266 373 266 370.5 499 c 128,-1,17
 368 732 368 732 380 894 c 0,18,19
 381 910 381 910 370 922.5 c 128,-1,20
 359 935 359 935 342 936 c 0,0,1
-35 832 m 128,-1,22
 -33 816 -33 816 -20 805.5 c 128,-1,23
 -7 795 -7 795 9 797 c 0,24,25
 85 805 85 805 219.5 803.5 c 128,-1,26
 354 802 354 802 480.5 796 c 128,-1,27
 607 790 607 790 733.5 791.5 c 128,-1,28
 860 793 860 793 921 807 c 0,29,30
 937 810 937 810 946 824.5 c 128,-1,31
 955 839 955 839 951.5 854.5 c 128,-1,32
 948 870 948 870 934 879 c 128,-1,33
 920 888 920 888 904 885 c 0,34,35
 840 871 840 871 654.5 874 c 128,-1,36
 469 877 469 877 305.5 883.5 c 128,-1,37
 142 890 142 890 0 876 c 0,38,39
 -16 874 -16 874 -26.5 861 c 128,-1,21
 -37 848 -37 848 -35 832 c 128,-1,22
EndSplineSet
Validated: 37
EndChar

StartChar: U
Encoding: 85 85 50
Width: 1232
Flags: W
LayerCount: 2
Fore
SplineSet
936 -192 m 0,0,1
 943 -189 943 -189 949 -183.5 c 128,-1,2
 955 -178 955 -178 958 -171 c 128,-1,3
 961 -164 961 -164 962 -156 c 128,-1,4
 963 -148 963 -148 960 -140 c 0,5,6
 936 -75 936 -75 925.5 5 c 128,-1,7
 915 85 915 85 916.5 163 c 128,-1,8
 918 241 918 241 924.5 329 c 128,-1,9
 931 417 931 417 941 496.5 c 128,-1,10
 951 576 951 576 957.5 660 c 128,-1,11
 964 744 964 744 965.5 814 c 128,-1,12
 967 884 967 884 956 953 c 0,13,14
 954 969 954 969 940.5 979 c 128,-1,15
 927 989 927 989 910.5 986 c 128,-1,16
 894 983 894 983 884.5 969.5 c 128,-1,17
 875 956 875 956 877 940 c 0,18,19
 886 879 886 879 883.5 791 c 128,-1,20
 881 703 881 703 869 614.5 c 128,-1,21
 857 526 857 526 848 420.5 c 128,-1,22
 839 315 839 315 834.5 219 c 128,-1,23
 830 123 830 123 842 19.5 c 128,-1,24
 854 -84 854 -84 884 -168 c 0,25,26
 890 -183 890 -183 905 -190 c 128,-1,27
 920 -197 920 -197 936 -192 c 0,0,1
952 63.5 m 128,-1,29
 944 78 944 78 928 83 c 128,-1,30
 912 88 912 88 898 80 c 0,31,32
 494 -132 494 -132 294 -100 c 0,33,34
 251 -94 251 -94 216.5 -75.5 c 128,-1,35
 182 -57 182 -57 159 -23 c 128,-1,36
 136 11 136 11 119 46 c 128,-1,37
 102 81 102 81 95.5 138.5 c 128,-1,38
 89 196 89 196 84.5 243 c 128,-1,39
 80 290 80 290 85 367.5 c 128,-1,40
 90 445 90 445 94.5 499.5 c 128,-1,41
 99 554 99 554 111.5 646 c 128,-1,42
 124 738 124 738 132.5 795.5 c 128,-1,43
 141 853 141 853 157 955 c 0,44,45
 160 971 160 971 150 984.5 c 128,-1,46
 140 998 140 998 124 1000.5 c 128,-1,47
 108 1003 108 1003 94.5 993 c 128,-1,48
 81 983 81 983 78 967 c 0,49,50
 74 940 74 940 65 886 c 0,51,52
 50 791 50 791 42.5 741.5 c 128,-1,53
 35 692 35 692 22.5 601 c 128,-1,54
 10 510 10 510 7 458 c 128,-1,55
 4 406 4 406 0 326 c 128,-1,56
 -4 246 -4 246 3 197.5 c 128,-1,57
 10 149 10 149 20.5 86.5 c 128,-1,58
 31 24 31 24 54 -14 c 128,-1,59
 77 -52 77 -52 107 -90 c 128,-1,60
 137 -128 137 -128 181.5 -149.5 c 128,-1,61
 226 -171 226 -171 281 -179 c 0,62,63
 507 -215 507 -215 935 9 c 0,64,65
 950 17 950 17 955 33 c 128,-1,28
 960 49 960 49 952 63.5 c 128,-1,29
EndSplineSet
Validated: 37
EndChar

StartChar: V
Encoding: 86 86 51
Width: 1190
Flags: W
LayerCount: 2
Fore
SplineSet
7 860 m 128,-1,1
 -6 850 -6 850 -8 833.5 c 128,-1,2
 -10 817 -10 817 0 804 c 0,3,4
 61 725 61 725 108.5 628 c 128,-1,5
 156 531 156 531 189 433.5 c 128,-1,6
 222 336 222 336 253 238.5 c 128,-1,7
 284 141 284 141 329 30 c 128,-1,8
 374 -81 374 -81 428 -174 c 0,9,10
 436 -188 436 -188 452.5 -192.5 c 128,-1,11
 469 -197 469 -197 483 -189 c 0,12,13
 490 -185 490 -185 494.5 -178.5 c 128,-1,14
 499 -172 499 -172 501 -164.5 c 128,-1,15
 503 -157 503 -157 502 -149 c 128,-1,16
 501 -141 501 -141 497 -134 c 0,17,18
 447 -47 447 -47 404.5 60.5 c 128,-1,19
 362 168 362 168 331 265.5 c 128,-1,20
 300 363 300 363 266 462.5 c 128,-1,21
 232 562 232 562 181 664.5 c 128,-1,22
 130 767 130 767 63 853 c 0,23,24
 53 866 53 866 36.5 868 c 128,-1,0
 20 870 20 870 7 860 c 128,-1,1
918 860 m 128,-1,26
 905 870 905 870 888.5 868 c 128,-1,27
 872 866 872 866 862 853 c 0,28,29
 795 767 795 767 744 664.5 c 128,-1,30
 693 562 693 562 659 462.5 c 128,-1,31
 625 363 625 363 594 265.5 c 128,-1,32
 563 168 563 168 521 60.5 c 128,-1,33
 479 -47 479 -47 428 -134 c 0,34,35
 420 -148 420 -148 424 -164.5 c 128,-1,36
 428 -181 428 -181 442 -189 c 0,37,38
 452 -194 452 -194 462.5 -194 c 128,-1,39
 473 -194 473 -194 482.5 -189 c 128,-1,40
 492 -184 492 -184 497 -174 c 0,41,42
 552 -81 552 -81 596.5 30 c 128,-1,43
 641 141 641 141 672 238.5 c 128,-1,44
 703 336 703 336 736 433.5 c 128,-1,45
 769 531 769 531 816.5 628 c 128,-1,46
 864 725 864 725 925 804 c 0,47,48
 935 817 935 817 933 833.5 c 128,-1,25
 931 850 931 850 918 860 c 128,-1,26
EndSplineSet
Validated: 5
EndChar

StartChar: W
Encoding: 87 87 52
Width: 1488
Flags: W
LayerCount: 2
Fore
SplineSet
589 557.5 m 128,-1,1
 580 551 580 551 578 539.5 c 128,-1,2
 576 528 576 528 583 519 c 0,3,4
 633 451 633 451 672 360.5 c 128,-1,5
 711 270 711 270 732.5 192 c 128,-1,6
 754 114 754 114 791 12.5 c 128,-1,7
 828 -89 828 -89 872 -168 c 0,8,9
 876 -174 876 -174 882.5 -178 c 128,-1,10
 889 -182 889 -182 896 -182 c 128,-1,11
 903 -182 903 -182 910 -178 c 0,12,13
 920 -173 920 -173 923 -162 c 128,-1,14
 926 -151 926 -151 920 -141 c 0,15,16
 879 -68 879 -68 844 31 c 128,-1,17
 809 130 809 130 787 209 c 128,-1,18
 765 288 765 288 723.5 383 c 128,-1,19
 682 478 682 478 627 552 c 0,20,21
 621 561 621 561 609.5 562.5 c 128,-1,0
 598 564 598 564 589 557.5 c 128,-1,1
1196 858 m 0,22,23
 1191 861 1191 861 1184 861.5 c 128,-1,24
 1177 862 1177 862 1171.5 860 c 128,-1,25
 1166 858 1166 858 1160.5 854 c 128,-1,26
 1155 850 1155 850 1152 844 c 0,27,28
 1099 740 1099 740 1058.5 605.5 c 128,-1,29
 1018 471 1018 471 996.5 359 c 128,-1,30
 975 247 975 247 939.5 105.5 c 128,-1,31
 904 -36 904 -36 863 -142 c 0,32,33
 858 -154 858 -154 863.5 -166.5 c 128,-1,34
 869 -179 869 -179 881.5 -184 c 128,-1,35
 894 -189 894 -189 906.5 -183.5 c 128,-1,36
 919 -178 919 -178 924 -166 c 0,37,38
 967 -55 967 -55 1003.5 89 c 128,-1,39
 1040 233 1040 233 1061.5 344.5 c 128,-1,40
 1083 456 1083 456 1121.5 586.5 c 128,-1,41
 1160 717 1160 717 1211 814 c 0,42,43
 1217 826 1217 826 1212.5 839 c 128,-1,44
 1208 852 1208 852 1196 858 c 0,22,23
14 858 m 128,-1,46
 2 852 2 852 -2 839 c 128,-1,47
 -6 826 -6 826 0 814 c 0,48,49
 50 717 50 717 89 586.5 c 128,-1,50
 128 456 128 456 149.5 344.5 c 128,-1,51
 171 233 171 233 207 89 c 128,-1,52
 243 -55 243 -55 287 -166 c 0,53,54
 292 -178 292 -178 304.5 -183.5 c 128,-1,55
 317 -189 317 -189 329 -184 c 0,56,57
 337 -181 337 -181 342.5 -174 c 128,-1,58
 348 -167 348 -167 349.5 -159 c 128,-1,59
 351 -151 351 -151 348 -142 c 0,60,61
 306 -36 306 -36 271 105.5 c 128,-1,62
 236 247 236 247 214.5 359 c 128,-1,63
 193 471 193 471 152.5 605.5 c 128,-1,64
 112 740 112 740 58 844 c 0,65,66
 52 856 52 856 39 860 c 128,-1,45
 26 864 26 864 14 858 c 128,-1,46
622 557.5 m 128,-1,68
 613 564 613 564 601.5 562.5 c 128,-1,69
 590 561 590 561 583 552 c 0,70,71
 529 478 529 478 487.5 383 c 128,-1,72
 446 288 446 288 424 209 c 128,-1,73
 402 130 402 130 366.5 31 c 128,-1,74
 331 -68 331 -68 290 -141 c 0,75,76
 285 -151 285 -151 288 -162 c 128,-1,77
 291 -173 291 -173 300.5 -178.5 c 128,-1,78
 310 -184 310 -184 321.5 -181 c 128,-1,79
 333 -178 333 -178 338 -168 c 0,80,81
 382 -89 382 -89 419 12.5 c 128,-1,82
 456 114 456 114 478 192 c 128,-1,83
 500 270 500 270 538.5 360.5 c 128,-1,84
 577 451 577 451 627 519 c 0,85,86
 634 528 634 528 632.5 539.5 c 128,-1,67
 631 551 631 551 622 557.5 c 128,-1,68
EndSplineSet
Validated: 5
EndChar

StartChar: X
Encoding: 88 88 53
Width: 1240
Flags: W
LayerCount: 2
Fore
SplineSet
167 -186 m 128,-1,1
 183 -185 183 -185 194 -172.5 c 128,-1,2
 205 -160 205 -160 204 -144 c 0,3,4
 201 -95 201 -95 224 -34.5 c 128,-1,5
 247 26 247 26 289.5 87.5 c 128,-1,6
 332 149 332 149 388.5 214.5 c 128,-1,7
 445 280 445 280 509.5 344 c 128,-1,8
 574 408 574 408 639 469.5 c 128,-1,9
 704 531 704 531 766 587.5 c 128,-1,10
 828 644 828 644 878 690.5 c 128,-1,11
 928 737 928 737 963 775.5 c 128,-1,12
 998 814 998 814 1009 837 c 0,13,14
 1015 851 1015 851 1009.5 867 c 128,-1,15
 1004 883 1004 883 989 890 c 0,16,17
 979 894 979 894 969 893 c 128,-1,18
 959 892 959 892 950 886 c 128,-1,19
 941 880 941 880 936 870 c 0,20,21
 930 857 930 857 879.5 811 c 128,-1,22
 829 765 829 765 755.5 700.5 c 128,-1,23
 682 636 682 636 594.5 555.5 c 128,-1,24
 507 475 507 475 422.5 383.5 c 128,-1,25
 338 292 338 292 269 202 c 128,-1,26
 200 112 200 112 159.5 19 c 128,-1,27
 119 -74 119 -74 124 -149 c 0,28,29
 125 -165 125 -165 138 -176 c 128,-1,0
 151 -187 151 -187 167 -186 c 128,-1,1
841.5 -160 m 128,-1,31
 858 -161 858 -161 870.5 -150 c 128,-1,32
 883 -139 883 -139 884 -123 c 0,33,34
 889 -47 889 -47 849 46 c 128,-1,35
 809 139 809 139 740 229 c 128,-1,36
 671 319 671 319 586 410.5 c 128,-1,37
 501 502 501 502 413.5 582 c 128,-1,38
 326 662 326 662 252.5 727 c 128,-1,39
 179 792 179 792 129 837.5 c 128,-1,40
 79 883 79 883 72 897 c 0,41,42
 66 912 66 912 50 917.5 c 128,-1,43
 34 923 34 923 19 916 c 128,-1,44
 4 909 4 909 -1.5 893.5 c 128,-1,45
 -7 878 -7 878 0 863 c 0,46,47
 13 835 13 835 66.5 780.5 c 128,-1,48
 120 726 120 726 192.5 659.5 c 128,-1,49
 265 593 265 593 350.5 514.5 c 128,-1,50
 436 436 436 436 517.5 352 c 128,-1,51
 599 268 599 268 665.5 187 c 128,-1,52
 732 106 732 106 770.5 25.5 c 128,-1,53
 809 -55 809 -55 804 -117 c 0,54,55
 803 -134 803 -134 814 -146.5 c 128,-1,30
 825 -159 825 -159 841.5 -160 c 128,-1,31
EndSplineSet
Validated: 37
EndChar

StartChar: Y
Encoding: 89 89 54
Width: 1320
Flags: W
LayerCount: 2
Fore
SplineSet
626 332 m 128,-1,1
 629 348 629 348 620 362 c 128,-1,2
 611 376 611 376 595 379 c 0,3,4
 576 383 576 383 512.5 395.5 c 128,-1,5
 449 408 449 408 427 412.5 c 128,-1,6
 405 417 405 417 354 428 c 128,-1,7
 303 439 303 439 278.5 446.5 c 128,-1,8
 254 454 254 454 219.5 465 c 128,-1,9
 185 476 185 476 162.5 487 c 128,-1,10
 140 498 140 498 123 511 c 0,11,12
 101 528 101 528 90.5 545 c 128,-1,13
 80 562 80 562 78.5 587.5 c 128,-1,14
 77 613 77 613 94 649 c 128,-1,15
 111 685 111 685 147 733 c 0,16,17
 153 741 153 741 154.5 751.5 c 128,-1,18
 156 762 156 762 151.5 772 c 128,-1,19
 147 782 147 782 139 789 c 0,20,21
 126 798 126 798 109.5 796 c 128,-1,22
 93 794 93 794 83 781 c 0,23,24
 2 674 2 674 1.5 587.5 c 128,-1,25
 1 501 1 501 75 447 c 0,26,27
 102 427 102 427 139 410 c 128,-1,28
 176 393 176 393 210 381.5 c 128,-1,29
 244 370 244 370 297 357.5 c 128,-1,30
 350 345 350 345 385 338 c 128,-1,31
 420 331 420 331 484 319 c 128,-1,32
 548 307 548 307 579 301 c 0,33,34
 595 297 595 297 609 306.5 c 128,-1,0
 623 316 623 316 626 332 c 128,-1,1
245.5 -257 m 128,-1,36
 262 -256 262 -256 273 -243.5 c 128,-1,37
 284 -231 284 -231 283 -214 c 0,38,39
 278 -152 278 -152 316.5 -71.5 c 128,-1,40
 355 9 355 9 421.5 90 c 128,-1,41
 488 171 488 171 569.5 255 c 128,-1,42
 651 339 651 339 736.5 417.5 c 128,-1,43
 822 496 822 496 894.5 562.5 c 128,-1,44
 967 629 967 629 1020.5 683.5 c 128,-1,45
 1074 738 1074 738 1087 766 c 0,46,47
 1094 781 1094 781 1088.5 796.5 c 128,-1,48
 1083 812 1083 812 1068 819 c 128,-1,49
 1053 826 1053 826 1037.5 820.5 c 128,-1,50
 1022 815 1022 815 1015 800 c 0,51,52
 1008 786 1008 786 958 740.5 c 128,-1,53
 908 695 908 695 834.5 630 c 128,-1,54
 761 565 761 565 673.5 485 c 128,-1,55
 586 405 586 405 501 313.5 c 128,-1,56
 416 222 416 222 347 132 c 128,-1,57
 278 42 278 42 238 -51 c 128,-1,58
 198 -144 198 -144 203 -220 c 0,59,60
 204 -236 204 -236 216.5 -247 c 128,-1,35
 229 -258 229 -258 245.5 -257 c 128,-1,36
EndSplineSet
Validated: 37
EndChar

StartChar: Z
Encoding: 90 90 55
Width: 1208
Flags: W
LayerCount: 2
Fore
SplineSet
70.5 697 m 128,-1,1
 74 682 74 682 87.5 674 c 128,-1,2
 101 666 101 666 116 669 c 0,3,4
 165 681 165 681 324 697.5 c 128,-1,5
 483 714 483 714 642.5 721 c 128,-1,6
 802 728 802 728 860 705 c 1,7,8
 846 660 846 660 760 571 c 128,-1,9
 674 482 674 482 557.5 381 c 128,-1,10
 441 280 441 280 325 181 c 128,-1,11
 209 82 209 82 118.5 -1.5 c 128,-1,12
 28 -85 28 -85 8 -120 c 0,13,14
 0 -135 0 -135 0 -149 c 0,15,16
 0 -166 0 -166 12 -177 c 128,-1,17
 24 -188 24 -188 40 -187 c 0,18,19
 177 -181 177 -181 238.5 -181 c 128,-1,20
 300 -181 300 -181 415 -184 c 128,-1,21
 530 -187 530 -187 590 -187 c 0,22,23
 655 -187 655 -187 739.5 -190.5 c 128,-1,24
 824 -194 824 -194 891 -194 c 0,25,26
 907 -194 907 -194 918 -183 c 128,-1,27
 929 -172 929 -172 929 -156 c 0,28,29
 929 -146 929 -146 924 -137.5 c 128,-1,30
 919 -129 919 -129 910 -123.5 c 128,-1,31
 901 -118 901 -118 891 -118 c 0,32,33
 826 -118 826 -118 742 -115 c 128,-1,34
 658 -112 658 -112 590 -112 c 0,35,36
 551 -112 551 -112 364.5 -107.5 c 128,-1,37
 178 -103 178 -103 118 -108 c 1,38,39
 156 -70 156 -70 240 1 c 128,-1,40
 324 72 324 72 410.5 143.5 c 128,-1,41
 497 215 497 215 594 301 c 128,-1,42
 691 387 691 387 765.5 460 c 128,-1,43
 840 533 840 533 889 602 c 128,-1,44
 938 671 938 671 938 714 c 0,45,46
 938 718 938 718 937 721 c 0,47,48
 930 759 930 759 874.5 780 c 128,-1,49
 819 801 819 801 734 803.5 c 128,-1,50
 649 806 649 806 558 801.5 c 128,-1,51
 467 797 467 797 370.5 784.5 c 128,-1,52
 274 772 274 772 215 763 c 128,-1,53
 156 754 156 754 116 746 c 0,54,55
 106 744 106 744 99 743 c 0,56,57
 84 739 84 739 75.5 725.5 c 128,-1,0
 67 712 67 712 70.5 697 c 128,-1,1
EndSplineSet
Validated: 41
EndChar

StartChar: backslash
Encoding: 92 92 56
Width: 944
Flags: W
LayerCount: 2
Fore
SplineSet
36.5 1006.5 m 128,-1,1
 21 1006 21 1006 10.5 995 c 128,-1,2
 0 984 0 984 0 968 c 0,3,4
 2 871 2 871 57 710 c 128,-1,5
 112 549 112 549 189.5 380.5 c 128,-1,6
 267 212 267 212 344 49 c 128,-1,7
 421 -114 421 -114 475.5 -251.5 c 128,-1,8
 530 -389 530 -389 532 -451 c 0,9,10
 532 -467 532 -467 543.5 -477.5 c 128,-1,11
 555 -488 555 -488 570 -488 c 0,12,13
 580 -488 580 -488 588.5 -482.5 c 128,-1,14
 597 -477 597 -477 601.5 -468.5 c 128,-1,15
 606 -460 606 -460 606 -450 c 0,16,17
 605 -373 605 -373 550 -227.5 c 128,-1,18
 495 -82 495 -82 418 82.5 c 128,-1,19
 341 247 341 247 263.5 413 c 128,-1,20
 186 579 186 579 131 731.5 c 128,-1,21
 76 884 76 884 74 970 c 0,22,23
 74 985 74 985 63 996 c 128,-1,0
 52 1007 52 1007 36.5 1006.5 c 128,-1,1
EndSplineSet
Validated: 9
EndChar

StartChar: a
Encoding: 97 97 57
Width: 688
Flags: W
LayerCount: 2
Fore
SplineSet
399 81 m 1,0,1
 401 78 401 78 406.5 59 c 128,-1,2
 412 40 412 40 418 26 c 128,-1,3
 424 12 424 12 438.5 0.5 c 128,-1,4
 453 -11 453 -11 474 -9 c 0,5,6
 494 -7 494 -7 504 5 c 128,-1,7
 514 17 514 17 514.5 37 c 128,-1,8
 515 57 515 57 512.5 75 c 128,-1,9
 510 93 510 93 505 117 c 128,-1,10
 500 141 500 141 499 150 c 0,11,12
 497 164 497 164 487 173.5 c 128,-1,13
 477 183 477 183 463 184 c 1,14,15
 484 237 484 237 481.5 295.5 c 128,-1,16
 479 354 479 354 461 405.5 c 128,-1,17
 443 457 443 457 403.5 499 c 128,-1,18
 364 541 364 541 311 560 c 0,19,20
 176 608 176 608 13 492 c 0,21,22
 0 483 0 483 -2.5 467.5 c 128,-1,23
 -5 452 -5 452 4 439.5 c 128,-1,24
 13 427 13 427 28.5 424 c 128,-1,25
 44 421 44 421 56 430 c 0,26,27
 176 516 176 516 270 493 c 0,28,29
 318 481 318 481 353.5 440 c 128,-1,30
 389 399 389 399 400 345 c 128,-1,31
 411 291 411 291 399 232 c 1,32,33
 276 406 276 406 115 378 c 0,34,35
 79 372 79 372 53 349.5 c 128,-1,36
 27 327 27 327 16 296.5 c 128,-1,37
 5 266 5 266 1 231 c 128,-1,38
 -3 196 -3 196 4 166 c 0,39,40
 10 131 10 131 25 99.5 c 128,-1,41
 40 68 40 68 63.5 41 c 128,-1,42
 87 14 87 14 122 0 c 128,-1,43
 157 -14 157 -14 199 -9 c 0,44,45
 323 4 323 4 399 81 c 1,0,1
361 152 m 1,46,47
 304 77 304 77 191 66 c 0,48,49
 148 61 148 61 118 93 c 128,-1,50
 88 125 88 125 79 178 c 0,51,52
 70 229 70 229 85 264 c 128,-1,53
 100 299 100 299 128 304 c 0,54,55
 256 326 256 326 361 152 c 1,46,47
EndSplineSet
Validated: 41
EndChar

StartChar: b
Encoding: 98 98 58
Width: 722
Flags: W
LayerCount: 2
Fore
SplineSet
30.5 387.5 m 128,-1,1
 22 400 22 400 25.5 415.5 c 128,-1,2
 29 431 29 431 41 439 c 0,3,4
 104 481 104 481 164 500.5 c 128,-1,5
 224 520 224 520 272 517.5 c 128,-1,6
 320 515 320 515 362.5 497.5 c 128,-1,7
 405 480 405 480 436 449.5 c 128,-1,8
 467 419 467 419 489 379.5 c 128,-1,9
 511 340 511 340 521.5 296 c 128,-1,10
 532 252 532 252 531.5 205.5 c 128,-1,11
 531 159 531 159 519 116 c 0,12,13
 501 58 501 58 463.5 13.5 c 128,-1,14
 426 -31 426 -31 367 -59 c 128,-1,15
 308 -87 308 -87 229.5 -87.5 c 128,-1,16
 151 -88 151 -88 52 -58 c 0,17,18
 38 -53 38 -53 30.5 -39 c 128,-1,19
 23 -25 23 -25 28 -10.5 c 128,-1,20
 33 4 33 4 46.5 11 c 128,-1,21
 60 18 60 18 75 14 c 0,22,23
 159 -13 159 -13 226.5 -14 c 128,-1,24
 294 -15 294 -15 337 7 c 128,-1,25
 380 29 380 29 407 62 c 128,-1,26
 434 95 434 95 447 138 c 0,27,28
 457 171 457 171 458.5 207 c 128,-1,29
 460 243 460 243 453 277 c 128,-1,30
 446 311 446 311 429.5 341 c 128,-1,31
 413 371 413 371 390.5 394 c 128,-1,32
 368 417 368 417 335.5 429.5 c 128,-1,33
 303 442 303 442 265.5 443 c 128,-1,34
 228 444 228 444 181 427.5 c 128,-1,35
 134 411 134 411 82 377 c 0,36,37
 70 369 70 369 54.5 372 c 128,-1,0
 39 375 39 375 30.5 387.5 c 128,-1,1
34 1100 m 0,38,39
 44 1101 44 1101 53 1096.5 c 128,-1,40
 62 1092 62 1092 67.5 1084 c 128,-1,41
 73 1076 73 1076 74 1066 c 0,42,43
 89 915 89 915 91.5 693.5 c 128,-1,44
 94 472 94 472 90 310 c 128,-1,45
 86 148 86 148 92 -21 c 0,46,47
 93 -36 93 -36 82.5 -47.5 c 128,-1,48
 72 -59 72 -59 56.5 -59.5 c 128,-1,49
 41 -60 41 -60 29.5 -49.5 c 128,-1,50
 18 -39 18 -39 18 -24 c 0,51,52
 12 147 12 147 15.5 310 c 128,-1,53
 19 473 19 473 16.5 692.5 c 128,-1,54
 14 912 14 912 0 1059 c 0,55,56
 -1 1074 -1 1074 8.5 1086 c 128,-1,57
 18 1098 18 1098 34 1100 c 0,38,39
EndSplineSet
Validated: 37
EndChar

StartChar: c
Encoding: 99 99 59
Width: 834
Flags: W
LayerCount: 2
Fore
SplineSet
562.5 277.5 m 128,-1,1
 547 275 547 275 538 262 c 128,-1,2
 529 249 529 249 531 234 c 0,3,4
 549 129 549 129 479 82 c 0,5,6
 446 61 446 61 398.5 56.5 c 128,-1,7
 351 52 351 52 300.5 65 c 128,-1,8
 250 78 250 78 199.5 113.5 c 128,-1,9
 149 149 149 149 114 201 c 0,10,11
 33 324 33 324 118 399 c 0,12,13
 163 439 163 439 237.5 451 c 128,-1,14
 312 463 312 463 393 439 c 128,-1,15
 474 415 474 415 526 355 c 0,16,17
 537 343 537 343 552.5 342 c 128,-1,18
 568 341 568 341 579.5 351 c 128,-1,19
 591 361 591 361 592 377 c 128,-1,20
 593 393 593 393 583 404 c 0,21,22
 533 462 533 462 462 494.5 c 128,-1,23
 391 527 391 527 320 531 c 128,-1,24
 249 535 249 535 181.5 515.5 c 128,-1,25
 114 496 114 496 68 456 c 0,26,27
 29 422 29 422 12 376 c 128,-1,28
 -5 330 -5 330 4 273.5 c 128,-1,29
 13 217 13 217 51 160 c 0,30,31
 93 96 93 96 154.5 52.5 c 128,-1,32
 216 9 216 9 280 -8.5 c 128,-1,33
 344 -26 344 -26 408 -19.5 c 128,-1,34
 472 -13 472 -13 521 19 c 0,35,36
 572 54 572 54 595 112.5 c 128,-1,37
 618 171 618 171 606 246 c 0,38,39
 603 262 603 262 590.5 271 c 128,-1,0
 578 280 578 280 562.5 277.5 c 128,-1,1
EndSplineSet
Validated: 41
EndChar

StartChar: d
Encoding: 100 100 60
Width: 874
Flags: W
LayerCount: 2
Fore
SplineSet
630 443 m 0,0,1
 636 455 636 455 632 468 c 128,-1,2
 628 481 628 481 616 487 c 0,3,4
 406 593 406 593 238 552 c 0,5,6
 152 531 152 531 92.5 474.5 c 128,-1,7
 33 418 33 418 11.5 345 c 128,-1,8
 -10 272 -10 272 8 199 c 0,9,10
 24 133 24 133 69 83 c 128,-1,11
 114 33 114 33 189 0.5 c 128,-1,12
 264 -32 264 -32 368 -34 c 128,-1,13
 472 -36 472 -36 607 -5 c 0,14,15
 620 -2 620 -2 627 10 c 128,-1,16
 634 22 634 22 631 35.5 c 128,-1,17
 628 49 628 49 616 56 c 128,-1,18
 604 63 604 63 591 60 c 0,19,20
 492 36 492 36 409 32.5 c 128,-1,21
 326 29 326 29 269 43 c 128,-1,22
 212 57 212 57 169.5 84.5 c 128,-1,23
 127 112 127 112 104.5 144.5 c 128,-1,24
 82 177 82 177 73 215 c 0,25,26
 59 270 59 270 75 325.5 c 128,-1,27
 91 381 91 381 138 425.5 c 128,-1,28
 185 470 185 470 254 487 c 0,29,30
 398 522 398 522 586 428 c 0,31,32
 594 424 594 424 602.5 424.5 c 128,-1,33
 611 425 611 425 618.5 430 c 128,-1,34
 626 435 626 435 630 443 c 0,0,1
637 1145 m 0,35,36
 630 1146 630 1146 624 1144 c 128,-1,37
 618 1142 618 1142 613 1138 c 128,-1,38
 608 1134 608 1134 604.5 1128.5 c 128,-1,39
 601 1123 601 1123 600 1116 c 0,40,41
 581 965 581 965 578 743 c 128,-1,42
 575 521 575 521 579.5 359 c 128,-1,43
 584 197 584 197 576 29 c 0,44,45
 576 22 576 22 578 16 c 128,-1,46
 580 10 580 10 584.5 5 c 128,-1,47
 589 0 589 0 595 -3 c 128,-1,48
 601 -6 601 -6 608 -6 c 0,49,50
 617 -7 617 -7 624.5 -2.5 c 128,-1,51
 632 2 632 2 637 9 c 128,-1,52
 642 16 642 16 643 25 c 0,53,54
 651 197 651 197 646.5 360 c 128,-1,55
 642 523 642 523 645 742 c 128,-1,56
 648 961 648 961 666 1108 c 0,57,58
 668 1121 668 1121 659.5 1132 c 128,-1,59
 651 1143 651 1143 637 1145 c 0,35,36
EndSplineSet
Validated: 37
EndChar

StartChar: e
Encoding: 101 101 61
Width: 938
Flags: W
LayerCount: 2
Fore
SplineSet
16 336 m 0,0,1
 16 327 16 327 17 324 c 0,2,3
 -10 243 -10 243 7.5 178 c 128,-1,4
 25 113 25 113 79 66 c 0,5,6
 131 20 131 20 208 -1.5 c 128,-1,7
 285 -23 285 -23 366 -18 c 128,-1,8
 447 -13 447 -13 528 24 c 128,-1,9
 609 61 609 61 666 127 c 0,10,11
 673 135 673 135 675 145 c 128,-1,12
 677 155 677 155 673.5 164.5 c 128,-1,13
 670 174 670 174 662.5 180.5 c 128,-1,14
 655 187 655 187 645 189 c 128,-1,15
 635 191 635 191 625.5 187.5 c 128,-1,16
 616 184 616 184 609 177 c 0,17,18
 562 123 562 123 494.5 92.5 c 128,-1,19
 427 62 427 62 360 58.5 c 128,-1,20
 293 55 293 55 230.5 71.5 c 128,-1,21
 168 88 168 88 129 123 c 0,22,23
 51 191 51 191 86 295 c 1,24,25
 167 295 167 295 344.5 289.5 c 128,-1,26
 522 284 522 284 652 277 c 0,27,28
 666 277 666 277 677.5 286.5 c 128,-1,29
 689 296 689 296 691 309 c 0,30,31
 705 395 705 395 678.5 462.5 c 128,-1,32
 652 530 652 530 594 569 c 0,33,34
 539 605 539 605 466 612 c 128,-1,35
 393 619 393 619 320 599 c 128,-1,36
 247 579 247 579 177 528.5 c 128,-1,37
 107 478 107 478 58 405 c 0,38,39
 45 385 45 385 35 366 c 0,40,41
 35 365 35 365 34 364 c 0,42,43
 15 352 15 352 16 336 c 0,0,1
126 370 m 1,44,45
 168 431 168 431 227.5 471.5 c 128,-1,46
 287 512 287 512 346 526.5 c 128,-1,47
 405 541 405 541 461 535.5 c 128,-1,48
 517 530 517 530 555 504 c 0,49,50
 625 455 625 455 620 355 c 1,51,52
 341 369 341 369 126 370 c 1,44,45
EndSplineSet
Validated: 41
EndChar

StartChar: f
Encoding: 102 102 62
Width: 598
Flags: W
LayerCount: 2
Fore
SplineSet
-21 290 m 0,0,1
 -27 275 -27 275 -20.5 260.5 c 128,-1,2
 -14 246 -14 246 0 240 c 0,3,4
 58 217 58 217 108.5 207 c 128,-1,5
 159 197 159 197 224.5 191.5 c 128,-1,6
 290 186 290 186 325 181 c 0,7,8
 341 178 341 178 353.5 187.5 c 128,-1,9
 366 197 366 197 368.5 212 c 128,-1,10
 371 227 371 227 361.5 240 c 128,-1,11
 352 253 352 253 337 255 c 0,12,13
 295 262 295 262 231.5 267.5 c 128,-1,14
 168 273 168 273 124 281.5 c 128,-1,15
 80 290 80 290 28 311 c 0,16,17
 21 314 21 314 13.5 313.5 c 128,-1,18
 6 313 6 313 -0.5 310 c 128,-1,19
 -7 307 -7 307 -12.5 302 c 128,-1,20
 -18 297 -18 297 -21 290 c 0,0,1
119 -872 m 0,21,22
 134 -872 134 -872 145.5 -861.5 c 128,-1,23
 157 -851 157 -851 158 -836 c 0,24,25
 165 -687 165 -687 161.5 -507 c 128,-1,26
 158 -327 158 -327 157 -126.5 c 128,-1,27
 156 74 156 74 158.5 245 c 128,-1,28
 161 416 161 416 180 545.5 c 128,-1,29
 199 675 199 675 235 713 c 0,30,31
 244 723 244 723 252 725.5 c 128,-1,32
 260 728 260 728 278.5 719.5 c 128,-1,33
 297 711 297 711 324 686 c 0,34,35
 335 675 335 675 351 675.5 c 128,-1,36
 367 676 367 676 377.5 687 c 128,-1,37
 388 698 388 698 387.5 714 c 128,-1,38
 387 730 387 730 376 740 c 0,39,40
 323 789 323 789 273 797.5 c 128,-1,41
 223 806 223 806 180 765 c 0,42,43
 138 720 138 720 113 612.5 c 128,-1,44
 88 505 88 505 81 367.5 c 128,-1,45
 74 230 74 230 72.5 65 c 128,-1,46
 71 -100 71 -100 77 -260 c 128,-1,47
 83 -420 83 -420 84.5 -571 c 128,-1,48
 86 -722 86 -722 83 -833 c 0,49,50
 83 -843 83 -843 87.5 -851.5 c 128,-1,51
 92 -860 92 -860 100.5 -865.5 c 128,-1,52
 109 -871 109 -871 119 -872 c 0,21,22
EndSplineSet
Validated: 37
EndChar

StartChar: g
Encoding: 103 103 63
Width: 1022
Flags: W
LayerCount: 2
Fore
SplineSet
562.5 275.5 m 128,-1,1
 548 273 548 273 539.5 261 c 128,-1,2
 531 249 531 249 533 235 c 0,3,4
 551 128 551 128 480 81 c 0,5,6
 447 59 447 59 399 54.5 c 128,-1,7
 351 50 351 50 300 63 c 128,-1,8
 249 76 249 76 198 112 c 128,-1,9
 147 148 147 148 112 201 c 0,10,11
 29 325 29 325 116 401 c 0,12,13
 162 441 162 441 237 453.5 c 128,-1,14
 312 466 312 466 393.5 441.5 c 128,-1,15
 475 417 475 417 528 356 c 0,16,17
 537 345 537 345 552 344 c 128,-1,18
 567 343 567 343 578 353 c 128,-1,19
 589 363 589 363 590 377.5 c 128,-1,20
 591 392 591 392 581 403 c 0,21,22
 531 460 531 460 460.5 492.5 c 128,-1,23
 390 525 390 525 319.5 529 c 128,-1,24
 249 533 249 533 182 514 c 128,-1,25
 115 495 115 495 70 455 c 0,26,27
 31 421 31 421 14 375.5 c 128,-1,28
 -3 330 -3 330 6 274 c 128,-1,29
 15 218 15 218 53 161 c 0,30,31
 95 98 95 98 156 54.5 c 128,-1,32
 217 11 217 11 280.5 -6 c 128,-1,33
 344 -23 344 -23 407.5 -16.5 c 128,-1,34
 471 -10 471 -10 519 21 c 0,35,36
 570 55 570 55 593 113.5 c 128,-1,37
 616 172 616 172 603 246 c 0,38,39
 601 261 601 261 589 269.5 c 128,-1,0
 577 278 577 278 562.5 275.5 c 128,-1,1
499.5 412 m 128,-1,41
 489 402 489 402 488.5 387 c 128,-1,42
 488 372 488 372 498 362 c 0,43,44
 518 341 518 341 543.5 282 c 128,-1,45
 569 223 569 223 585 197 c 0,46,47
 608 162 608 162 644 108 c 128,-1,48
 680 54 680 54 707.5 12.5 c 128,-1,49
 735 -29 735 -29 770.5 -85 c 128,-1,50
 806 -141 806 -141 831.5 -186.5 c 128,-1,51
 857 -232 857 -232 884.5 -288 c 128,-1,52
 912 -344 912 -344 929 -391.5 c 128,-1,53
 946 -439 946 -439 957.5 -492 c 128,-1,54
 969 -545 969 -545 969.5 -592 c 128,-1,55
 970 -639 970 -639 959 -687.5 c 128,-1,56
 948 -736 948 -736 924 -779 c 0,57,58
 904 -815 904 -815 879 -840 c 0,59,60
 838 -880 838 -880 780 -891.5 c 128,-1,61
 722 -903 722 -903 661.5 -890 c 128,-1,62
 601 -877 601 -877 534.5 -849 c 128,-1,63
 468 -821 468 -821 410 -786 c 128,-1,64
 352 -751 352 -751 299 -714 c 128,-1,65
 246 -677 246 -677 213 -649 c 128,-1,66
 180 -621 180 -621 163 -604 c 0,67,68
 116 -556 116 -556 89 -481 c 128,-1,69
 62 -406 62 -406 76 -344 c 0,70,71
 82 -315 82 -315 99 -291 c 128,-1,72
 116 -267 116 -267 146 -244.5 c 128,-1,73
 176 -222 176 -222 225.5 -209 c 128,-1,74
 275 -196 275 -196 340.5 -191.5 c 128,-1,75
 406 -187 406 -187 500.5 -198 c 128,-1,76
 595 -209 595 -209 708 -235 c 0,77,78
 722 -238 722 -238 735 -230 c 128,-1,79
 748 -222 748 -222 751 -208 c 128,-1,80
 754 -194 754 -194 746 -181.5 c 128,-1,81
 738 -169 738 -169 724 -166 c 0,82,83
 609 -139 609 -139 510.5 -128 c 128,-1,84
 412 -117 412 -117 337 -121.5 c 128,-1,85
 262 -126 262 -126 203.5 -141.5 c 128,-1,86
 145 -157 145 -157 105 -185 c 128,-1,87
 65 -213 65 -213 41 -248.5 c 128,-1,88
 17 -284 17 -284 7 -328 c 0,89,90
 -13 -412 -13 -412 20 -502.5 c 128,-1,91
 53 -593 53 -593 113 -654 c 0,92,93
 123 -665 123 -665 145 -684.5 c 128,-1,94
 167 -704 167 -704 205.5 -734.5 c 128,-1,95
 244 -765 244 -765 288 -796.5 c 128,-1,96
 332 -828 332 -828 386.5 -859.5 c 128,-1,97
 441 -891 441 -891 496 -916 c 128,-1,98
 551 -941 551 -941 610.5 -956 c 128,-1,99
 670 -971 670 -971 724.5 -971.5 c 128,-1,100
 779 -972 779 -972 832.5 -952 c 128,-1,101
 886 -932 886 -932 928 -891 c 0,102,103
 961 -858 961 -858 986 -813 c 0,104,105
 1022 -749 1022 -749 1034 -677.5 c 128,-1,106
 1046 -606 1046 -606 1040 -540 c 128,-1,107
 1034 -474 1034 -474 1008.5 -397.5 c 128,-1,108
 983 -321 983 -321 953.5 -259 c 128,-1,109
 924 -197 924 -197 879 -121 c 128,-1,110
 834 -45 834 -45 799 6.5 c 128,-1,111
 764 58 764 58 716.5 128 c 128,-1,112
 669 198 669 198 645 235 c 0,113,114
 636 250 636 250 622.5 284 c 128,-1,115
 609 318 609 318 591 352 c 128,-1,116
 573 386 573 386 549 411 c 0,117,118
 539 422 539 422 524.5 422 c 128,-1,40
 510 422 510 422 499.5 412 c 128,-1,41
EndSplineSet
Validated: 37
EndChar

StartChar: h
Encoding: 104 104 64
Width: 792
Flags: W
LayerCount: 2
Fore
SplineSet
49 408.5 m 128,-1,1
 58 396 58 396 74 394 c 128,-1,2
 90 392 90 392 102 402 c 0,3,4
 230 501 230 501 337 475 c 0,5,6
 380 464 380 464 414 429 c 128,-1,7
 448 394 448 394 469.5 336.5 c 128,-1,8
 491 279 491 279 490.5 191 c 128,-1,9
 490 103 490 103 464 -2 c 0,10,11
 460 -17 460 -17 468.5 -30.5 c 128,-1,12
 477 -44 477 -44 492 -47.5 c 128,-1,13
 507 -51 507 -51 520.5 -43 c 128,-1,14
 534 -35 534 -35 538 -20 c 0,15,16
 574 133 574 133 563 252 c 128,-1,17
 552 371 552 371 497.5 448.5 c 128,-1,18
 443 526 443 526 355 548 c 0,19,20
 286 565 286 565 209 543 c 128,-1,21
 132 521 132 521 56 462 c 0,22,23
 43 452 43 452 41.5 436.5 c 128,-1,0
 40 421 40 421 49 408.5 c 128,-1,1
31 1123 m 0,24,25
 16 1121 16 1121 7 1108 c 128,-1,26
 -2 1095 -2 1095 0 1080 c 0,27,28
 18 966 18 966 24.5 811 c 128,-1,29
 31 656 31 656 27.5 523 c 128,-1,30
 24 390 24 390 24 243.5 c 128,-1,31
 24 97 24 97 30 -1 c 0,32,33
 31 -17 31 -17 43 -27 c 128,-1,34
 55 -37 55 -37 70 -36 c 128,-1,35
 85 -35 85 -35 95.5 -23 c 128,-1,36
 106 -11 106 -11 105 4 c 0,37,38
 100 97 100 97 100 243 c 128,-1,39
 100 389 100 389 103.5 522.5 c 128,-1,40
 107 656 107 656 100.5 814.5 c 128,-1,41
 94 973 94 973 75 1092 c 0,42,43
 73 1102 73 1102 66.5 1110 c 128,-1,44
 60 1118 60 1118 50.5 1121.5 c 128,-1,45
 41 1125 41 1125 31 1123 c 0,24,25
EndSplineSet
Validated: 37
EndChar

StartChar: i
Encoding: 105 105 65
Width: 590
Flags: W
LayerCount: 2
Fore
SplineSet
170.5 408 m 128,-1,1
 155 405 155 405 146.5 392 c 128,-1,2
 138 379 138 379 141 364 c 0,3,4
 157 282 157 282 159 189.5 c 128,-1,5
 161 97 161 97 155 -24 c 128,-1,6
 149 -145 149 -145 149 -201 c 0,7,8
 149 -216 149 -216 160 -227.5 c 128,-1,9
 171 -239 171 -239 186.5 -239 c 128,-1,10
 202 -239 202 -239 213 -227.5 c 128,-1,11
 224 -216 224 -216 224 -201 c 0,12,13
 224 -150 224 -150 230.5 -28 c 128,-1,14
 237 94 237 94 235 191.5 c 128,-1,15
 233 289 233 289 215 378 c 0,16,17
 212 394 212 394 199 402.5 c 128,-1,0
 186 411 186 411 170.5 408 c 128,-1,1
154 510 m 0,18,19
 159 506 159 506 166.5 504 c 128,-1,20
 174 502 174 502 182 502.5 c 128,-1,21
 190 503 190 503 197 507 c 0,22,23
 316 580 316 580 360 649.5 c 128,-1,24
 404 719 404 719 367 780 c 0,25,26
 340 823 340 823 282 845 c 128,-1,27
 224 867 224 867 162.5 862.5 c 128,-1,28
 101 858 101 858 57 831 c 0,29,30
 12 803 12 803 3 753 c 128,-1,31
 -6 703 -6 703 29 643 c 0,32,33
 67 581 67 581 154 510 c 0,18,19
181 586 m 1,34,35
 124 636 124 636 97 677 c 0,36,37
 79 704 79 704 75.5 722.5 c 128,-1,38
 72 741 72 741 77.5 749.5 c 128,-1,39
 83 758 83 758 95 766 c 0,40,41
 136 791 136 791 209 781.5 c 128,-1,42
 282 772 282 772 302 741 c 0,43,44
 306 735 306 735 307 727.5 c 128,-1,45
 308 720 308 720 303.5 706 c 128,-1,46
 299 692 299 692 287 675.5 c 128,-1,47
 275 659 275 659 248 635.5 c 128,-1,48
 221 612 221 612 181 586 c 1,34,35
EndSplineSet
Validated: 41
EndChar

StartChar: j
Encoding: 106 106 66
Width: 666
Flags: W
LayerCount: 2
Fore
SplineSet
177 374 m 128,-1,1
 162 371 162 371 153 358 c 128,-1,2
 144 345 144 345 147 330 c 0,3,4
 158 274 158 274 158 195.5 c 128,-1,5
 158 117 158 117 154.5 55 c 128,-1,6
 151 -7 151 -7 160 -90 c 0,7,8
 166 -149 166 -149 166.5 -193.5 c 128,-1,9
 167 -238 167 -238 159.5 -272 c 128,-1,10
 152 -306 152 -306 142.5 -329 c 128,-1,11
 133 -352 133 -352 119 -367 c 128,-1,12
 105 -382 105 -382 91.5 -389.5 c 128,-1,13
 78 -397 78 -397 64 -400 c 0,14,15
 11 -409 11 -409 -45.5 -364.5 c 128,-1,16
 -102 -320 -102 -320 -114 -254 c 0,17,18
 -116 -238 -116 -238 -129 -229 c 128,-1,19
 -142 -220 -142 -220 -157 -222.5 c 128,-1,20
 -172 -225 -172 -225 -181.5 -238 c 128,-1,21
 -191 -251 -191 -251 -188 -266 c 0,22,23
 -171 -363 -171 -363 -91 -426 c 128,-1,24
 -11 -489 -11 -489 77 -474 c 0,25,26
 168 -458 168 -458 212 -357.5 c 128,-1,27
 256 -257 256 -257 235 -81 c 0,28,29
 227 -6 227 -6 231 53 c 128,-1,30
 235 112 235 112 234.5 196 c 128,-1,31
 234 280 234 280 221 344 c 0,32,33
 218 360 218 360 205 368.5 c 128,-1,0
 192 377 192 377 177 374 c 128,-1,1
160 476 m 0,34,35
 166 472 166 472 173 470 c 128,-1,36
 180 468 180 468 188.5 468.5 c 128,-1,37
 197 469 197 469 204 473 c 0,38,39
 323 546 323 546 367 615.5 c 128,-1,40
 411 685 411 685 374 746 c 0,41,42
 347 789 347 789 289 811 c 128,-1,43
 231 833 231 833 169 828.5 c 128,-1,44
 107 824 107 824 64 797 c 0,45,46
 18 769 18 769 9.5 719 c 128,-1,47
 1 669 1 669 36 609 c 0,48,49
 74 547 74 547 160 476 c 0,34,35
187 552 m 1,50,51
 130 602 130 602 103 643 c 0,52,53
 86 670 86 670 82.5 688.5 c 128,-1,54
 79 707 79 707 84.5 715.5 c 128,-1,55
 90 724 90 724 102 732 c 0,56,57
 143 757 143 757 216 747.5 c 128,-1,58
 289 738 289 738 309 707 c 0,59,60
 312 701 312 701 313.5 693.5 c 128,-1,61
 315 686 315 686 310.5 672 c 128,-1,62
 306 658 306 658 294 641.5 c 128,-1,63
 282 625 282 625 254.5 601.5 c 128,-1,64
 227 578 227 578 187 552 c 1,50,51
EndSplineSet
Validated: 41
EndChar

StartChar: k
Encoding: 107 107 67
Width: 884
Flags: W
LayerCount: 2
Fore
SplineSet
106.5 1138.5 m 128,-1,1
 91 1140 91 1140 79 1129.5 c 128,-1,2
 67 1119 67 1119 65 1104 c 0,3,4
 59 1033 59 1033 43 898 c 128,-1,5
 27 763 27 763 18 664 c 128,-1,6
 9 565 9 565 2.5 442 c 128,-1,7
 -4 319 -4 319 4.5 206 c 128,-1,8
 13 93 13 93 37 -4 c 0,9,10
 41 -19 41 -19 54.5 -27 c 128,-1,11
 68 -35 68 -35 83 -31.5 c 128,-1,12
 98 -28 98 -28 106.5 -14.5 c 128,-1,13
 115 -1 115 -1 111 14 c 0,14,15
 88 105 88 105 80 212 c 128,-1,16
 72 319 72 319 78.5 439.5 c 128,-1,17
 85 560 85 560 94 656.5 c 128,-1,18
 103 753 103 753 118.5 889 c 128,-1,19
 134 1025 134 1025 141 1097 c 0,20,21
 142 1113 142 1113 132 1125 c 128,-1,0
 122 1137 122 1137 106.5 1138.5 c 128,-1,1
602 560.5 m 128,-1,23
 598 571 598 571 587 575.5 c 128,-1,24
 576 580 576 580 566 576 c 0,25,26
 512 554 512 554 447 535 c 128,-1,27
 382 516 382 516 268 463 c 0,28,29
 163 414 163 414 106 371 c 128,-1,30
 49 328 49 328 31 283 c 0,31,32
 -13 171 -13 171 201 80 c 0,33,34
 265 53 265 53 459 -7 c 0,35,36
 519 -25 519 -25 548 -36 c 0,37,38
 559 -40 559 -40 569.5 -35.5 c 128,-1,39
 580 -31 580 -31 584 -20.5 c 128,-1,40
 588 -10 588 -10 583.5 0.5 c 128,-1,41
 579 11 579 11 568 15 c 0,42,43
 530 31 530 31 475 49.5 c 128,-1,44
 420 68 420 68 374.5 83 c 128,-1,45
 329 98 329 98 279 115.5 c 128,-1,46
 229 133 229 133 192.5 150 c 128,-1,47
 156 167 156 167 127 185 c 128,-1,48
 98 203 98 203 86.5 223 c 128,-1,49
 75 243 75 243 83 263 c 0,50,51
 94 291 94 291 145 329.5 c 128,-1,52
 196 368 196 368 291 413 c 0,53,54
 377 452 377 452 416.5 466 c 128,-1,55
 456 480 456 480 491.5 490 c 128,-1,56
 527 500 527 500 587 524 c 0,57,58
 598 529 598 529 602 539.5 c 128,-1,22
 606 550 606 550 602 560.5 c 128,-1,23
EndSplineSet
Validated: 37
EndChar

StartChar: l
Encoding: 108 108 68
Width: 602
Flags: W
LayerCount: 2
Fore
SplineSet
41.5 1041 m 128,-1,1
 26 1040 26 1040 15.5 1028 c 128,-1,2
 5 1016 5 1016 6 1001 c 0,3,4
 11 923 11 923 6.5 763 c 128,-1,5
 2 603 2 603 -2.5 472 c 128,-1,6
 -7 341 -7 341 8.5 204.5 c 128,-1,7
 24 68 24 68 65 1 c 0,8,9
 100 -58 100 -58 160 -67 c 128,-1,10
 220 -76 220 -76 293 -32 c 0,11,12
 306 -24 306 -24 310 -9 c 128,-1,13
 314 6 314 6 306 19.5 c 128,-1,14
 298 33 298 33 282.5 36.5 c 128,-1,15
 267 40 267 40 254 32 c 0,16,17
 218 10 218 10 193.5 6 c 128,-1,18
 169 2 169 2 155.5 10.5 c 128,-1,19
 142 19 142 19 129 40 c 0,20,21
 108 75 108 75 95.5 143.5 c 128,-1,22
 83 212 83 212 80.5 294 c 128,-1,23
 78 376 78 376 78.5 473.5 c 128,-1,24
 79 571 79 571 82 664 c 128,-1,25
 85 757 85 757 85 847.5 c 128,-1,26
 85 938 85 938 82 1006 c 0,27,28
 81 1021 81 1021 69 1031.5 c 128,-1,0
 57 1042 57 1042 41.5 1041 c 128,-1,1
EndSplineSet
Validated: 41
EndChar

StartChar: m
Encoding: 109 109 69
Width: 1188
Flags: W
LayerCount: 2
Fore
SplineSet
47.5 425 m 128,-1,1
 57 413 57 413 72.5 411 c 128,-1,2
 88 409 88 409 101 418 c 0,3,4
 229 518 229 518 335 491 c 0,5,6
 379 481 379 481 413 445.5 c 128,-1,7
 447 410 447 410 468.5 352.5 c 128,-1,8
 490 295 490 295 489.5 207.5 c 128,-1,9
 489 120 489 120 463 15 c 0,10,11
 459 0 459 0 467 -13.5 c 128,-1,12
 475 -27 475 -27 490 -31 c 128,-1,13
 505 -35 505 -35 518.5 -26.5 c 128,-1,14
 532 -18 532 -18 536 -3 c 0,15,16
 573 150 573 150 562 269 c 128,-1,17
 551 388 551 388 496.5 465.5 c 128,-1,18
 442 543 442 543 353 565 c 0,19,20
 284 582 284 582 207.5 559.5 c 128,-1,21
 131 537 131 537 54 478 c 0,22,23
 42 469 42 469 40 453 c 128,-1,0
 38 437 38 437 47.5 425 c 128,-1,1
24 585 m 128,-1,25
 9 580 9 580 2 566 c 128,-1,26
 -5 552 -5 552 0 537 c 0,27,28
 17 485 17 485 22.5 412 c 128,-1,29
 28 339 28 339 25 274 c 128,-1,30
 22 209 22 209 22 136.5 c 128,-1,31
 22 64 22 64 29 13 c 0,32,33
 31 -3 31 -3 43.5 -12.5 c 128,-1,34
 56 -22 56 -22 71.5 -19.5 c 128,-1,35
 87 -17 87 -17 96.5 -4.5 c 128,-1,36
 106 8 106 8 103 23 c 0,37,38
 99 65 99 65 99.5 136 c 128,-1,39
 100 207 100 207 103 273 c 128,-1,40
 106 339 106 339 99 419 c 128,-1,41
 92 499 92 499 72 561 c 0,42,43
 67 575 67 575 53 582.5 c 128,-1,24
 39 590 39 590 24 585 c 128,-1,25
449 415 m 0,44,45
 459 403 459 403 474.5 401 c 128,-1,46
 490 399 490 399 502 409 c 0,47,48
 630 508 630 508 737 481 c 0,49,50
 781 471 781 471 815 435.5 c 128,-1,51
 849 400 849 400 870.5 342.5 c 128,-1,52
 892 285 892 285 891.5 197.5 c 128,-1,53
 891 110 891 110 865 5 c 0,54,55
 861 -10 861 -10 869 -23.5 c 128,-1,56
 877 -37 877 -37 892 -40.5 c 128,-1,57
 907 -44 907 -44 920.5 -36 c 128,-1,58
 934 -28 934 -28 938 -13 c 0,59,60
 960 76 960 76 965 157.5 c 128,-1,61
 970 239 970 239 957.5 305 c 128,-1,62
 945 371 945 371 918 423 c 128,-1,63
 891 475 891 475 849.5 508.5 c 128,-1,64
 808 542 808 542 755 555 c 0,65,66
 686 572 686 572 609 549.5 c 128,-1,67
 532 527 532 527 456 468 c 0,68,69
 448 462 448 462 444.5 452.5 c 128,-1,70
 441 443 441 443 442 433 c 128,-1,71
 443 423 443 423 449 415 c 0,44,45
EndSplineSet
Validated: 37
EndChar

StartChar: n
Encoding: 110 110 70
Width: 812
Flags: W
LayerCount: 2
Fore
SplineSet
47.5 432 m 128,-1,1
 57 420 57 420 72.5 418 c 128,-1,2
 88 416 88 416 101 425 c 0,3,4
 229 525 229 525 335 498 c 0,5,6
 379 488 379 488 413 452.5 c 128,-1,7
 447 417 447 417 468.5 359.5 c 128,-1,8
 490 302 490 302 489.5 214.5 c 128,-1,9
 489 127 489 127 463 22 c 0,10,11
 459 7 459 7 467 -6.5 c 128,-1,12
 475 -20 475 -20 490 -24 c 0,13,14
 500 -26 500 -26 510 -23.5 c 128,-1,15
 520 -21 520 -21 527 -13.5 c 128,-1,16
 534 -6 534 -6 536 4 c 0,17,18
 573 157 573 157 562 276 c 128,-1,19
 551 395 551 395 496.5 472.5 c 128,-1,20
 442 550 442 550 353 572 c 0,21,22
 284 589 284 589 207.5 566.5 c 128,-1,23
 131 544 131 544 54 485 c 0,24,25
 42 476 42 476 40 460 c 128,-1,0
 38 444 38 444 47.5 432 c 128,-1,1
24 592 m 128,-1,27
 9 587 9 587 2 573 c 128,-1,28
 -5 559 -5 559 0 544 c 0,29,30
 17 492 17 492 22.5 419 c 128,-1,31
 28 346 28 346 25 281 c 128,-1,32
 22 216 22 216 22 143.5 c 128,-1,33
 22 71 22 71 29 20 c 0,34,35
 31 4 31 4 43.5 -5.5 c 128,-1,36
 56 -15 56 -15 71.5 -12.5 c 128,-1,37
 87 -10 87 -10 96.5 2.5 c 128,-1,38
 106 15 106 15 103 30 c 0,39,40
 99 72 99 72 99.5 143 c 128,-1,41
 100 214 100 214 103 280 c 128,-1,42
 106 346 106 346 99 426 c 128,-1,43
 92 506 92 506 72 568 c 0,44,45
 67 582 67 582 53 589.5 c 128,-1,26
 39 597 39 597 24 592 c 128,-1,27
EndSplineSet
Validated: 37
EndChar

StartChar: o
Encoding: 111 111 71
Width: 806
Flags: W
LayerCount: 2
Fore
SplineSet
555 385 m 1,0,1
 560 398 560 398 556 410 c 0,2,3
 541 457 541 457 514 492.5 c 128,-1,4
 487 528 487 528 453 548.5 c 128,-1,5
 419 569 419 569 379.5 578.5 c 128,-1,6
 340 588 340 588 299.5 586 c 128,-1,7
 259 584 259 584 220 572 c 0,8,9
 178 559 178 559 140.5 534.5 c 128,-1,10
 103 510 103 510 72.5 475.5 c 128,-1,11
 42 441 42 441 23.5 397 c 128,-1,12
 5 353 5 353 0.5 301.5 c 128,-1,13
 -4 250 -4 250 11 191 c 0,14,15
 23 144 23 144 51 105 c 128,-1,16
 79 66 79 66 116 41 c 128,-1,17
 153 16 153 16 197.5 0.5 c 128,-1,18
 242 -15 242 -15 287 -15.5 c 128,-1,19
 332 -16 332 -16 376 -7 c 0,20,21
 447 11 447 11 495 60.5 c 128,-1,22
 543 110 543 110 563 192 c 128,-1,23
 583 274 583 274 555 385 c 1,0,1
476 410 m 1,24,25
 473 399 473 399 476 389 c 0,26,27
 478 379 478 379 481 370 c 0,28,29
 495 313 495 313 495.5 265.5 c 128,-1,30
 496 218 496 218 485.5 185.5 c 128,-1,31
 475 153 475 153 455 128 c 128,-1,32
 435 103 435 103 411 88.5 c 128,-1,33
 387 74 387 74 357 67 c 0,34,35
 316 55 316 55 272 61.5 c 128,-1,36
 228 68 228 68 190 86 c 128,-1,37
 152 104 152 104 123.5 136.5 c 128,-1,38
 95 169 95 169 84 209 c 0,39,40
 59 308 59 308 99 382 c 128,-1,41
 139 456 139 456 217 490 c 0,42,43
 269 511 269 511 318.5 511.5 c 128,-1,44
 368 512 368 512 411 485.5 c 128,-1,45
 454 459 454 459 476 410 c 1,24,25
EndSplineSet
Validated: 41
EndChar

StartChar: p
Encoding: 112 112 72
Width: 740
Flags: W
LayerCount: 2
Fore
SplineSet
30 114 m 128,-1,1
 38 127 38 127 53 131 c 128,-1,2
 68 135 68 135 81 127 c 0,3,4
 132 96 132 96 179 80.5 c 128,-1,5
 226 65 226 65 263 65 c 128,-1,6
 300 65 300 65 332.5 76 c 128,-1,7
 365 87 365 87 387.5 107 c 128,-1,8
 410 127 410 127 426.5 153.5 c 128,-1,9
 443 180 443 180 450.5 210 c 128,-1,10
 458 240 458 240 458 272 c 128,-1,11
 458 304 458 304 450 333 c 0,12,13
 441 365 441 365 423.5 391.5 c 128,-1,14
 406 418 406 418 375 440 c 128,-1,15
 344 462 344 462 303 472.5 c 128,-1,16
 262 483 262 483 203 479 c 128,-1,17
 144 475 144 475 74 455 c 0,18,19
 64 452 64 452 54.5 454 c 128,-1,20
 45 456 45 456 37.5 463 c 128,-1,21
 30 470 30 470 28 480 c 0,22,23
 25 490 25 490 27 499.5 c 128,-1,24
 29 509 29 509 36 516 c 128,-1,25
 43 523 43 523 53 526 c 0,26,27
 154 555 154 555 233.5 554 c 128,-1,28
 313 553 313 553 372.5 525.5 c 128,-1,29
 432 498 432 498 469 454 c 128,-1,30
 506 410 506 410 522 353 c 0,31,32
 532 317 532 317 532.5 279 c 128,-1,33
 533 241 533 241 524.5 205.5 c 128,-1,34
 516 170 516 170 499.5 136.5 c 128,-1,35
 483 103 483 103 457.5 76 c 128,-1,36
 432 49 432 49 401 28.5 c 128,-1,37
 370 8 370 8 330 -1 c 128,-1,38
 290 -10 290 -10 246 -8 c 128,-1,39
 202 -6 202 -6 149.5 12 c 128,-1,40
 97 30 97 30 43 63 c 0,41,42
 29 71 29 71 25.5 86 c 128,-1,0
 22 101 22 101 30 114 c 128,-1,1
33 -544.5 m 128,-1,44
 18 -543 18 -543 8 -531 c 128,-1,45
 -2 -519 -2 -519 0 -503 c 0,46,47
 14 -369 14 -369 16 -167 c 128,-1,48
 18 35 18 35 15 185 c 128,-1,49
 12 335 12 335 18 492 c 0,50,51
 18 508 18 508 30 518.5 c 128,-1,52
 42 529 42 529 57 528 c 128,-1,53
 72 527 72 527 82.5 515.5 c 128,-1,54
 93 504 93 504 92 489 c 0,55,56
 86 334 86 334 90 185 c 128,-1,57
 94 36 94 36 91.5 -168 c 128,-1,58
 89 -372 89 -372 74 -511 c 0,59,60
 73 -526 73 -526 60.5 -536 c 128,-1,43
 48 -546 48 -546 33 -544.5 c 128,-1,44
EndSplineSet
Validated: 37
EndChar

StartChar: q
Encoding: 113 113 73
Width: 716
Flags: W
LayerCount: 2
Fore
SplineSet
503 102 m 128,-1,1
 495 115 495 115 480 119 c 128,-1,2
 465 123 465 123 451 115 c 0,3,4
 401 84 401 84 353.5 68.5 c 128,-1,5
 306 53 306 53 269 53 c 128,-1,6
 232 53 232 53 200 64 c 128,-1,7
 168 75 168 75 145.5 95 c 128,-1,8
 123 115 123 115 106.5 141.5 c 128,-1,9
 90 168 90 168 82.5 198 c 128,-1,10
 75 228 75 228 75 260 c 128,-1,11
 75 292 75 292 83 321 c 0,12,13
 92 353 92 353 109.5 379.5 c 128,-1,14
 127 406 127 406 158 428 c 128,-1,15
 189 450 189 450 230 460.5 c 128,-1,16
 271 471 271 471 330 467 c 128,-1,17
 389 463 389 463 459 443 c 0,18,19
 469 440 469 440 478 442 c 128,-1,20
 487 444 487 444 494.5 451 c 128,-1,21
 502 458 502 458 505 468 c 0,22,23
 509 482 509 482 501.5 496 c 128,-1,24
 494 510 494 510 480 514 c 0,25,26
 379 543 379 543 299.5 542 c 128,-1,27
 220 541 220 541 160.5 513.5 c 128,-1,28
 101 486 101 486 64 442 c 128,-1,29
 27 398 27 398 11 341 c 0,30,31
 2 309 2 309 0.5 275 c 128,-1,32
 -1 241 -1 241 5 208 c 128,-1,33
 11 175 11 175 24 144.5 c 128,-1,34
 37 114 37 114 56.5 87 c 128,-1,35
 76 60 76 60 102 38.5 c 128,-1,36
 128 17 128 17 158.5 2.5 c 128,-1,37
 189 -12 189 -12 227 -17 c 128,-1,38
 265 -22 265 -22 305.5 -18 c 128,-1,39
 346 -14 346 -14 393.5 3.5 c 128,-1,40
 441 21 441 21 490 51 c 0,41,42
 503 59 503 59 507 74 c 128,-1,0
 511 89 511 89 503 102 c 128,-1,1
499.5 -556.5 m 128,-1,44
 515 -555 515 -555 524.5 -543 c 128,-1,45
 534 -531 534 -531 533 -515 c 0,46,47
 519 -381 519 -381 516.5 -179 c 128,-1,48
 514 23 514 23 517.5 173 c 128,-1,49
 521 323 521 323 515 480 c 0,50,51
 514 496 514 496 502.5 506.5 c 128,-1,52
 491 517 491 517 476 516 c 128,-1,53
 461 515 461 515 450.5 503.5 c 128,-1,54
 440 492 440 492 440 477 c 0,55,56
 443 418 443 418 443.5 335 c 128,-1,57
 444 252 444 252 443 173 c 128,-1,58
 442 94 442 94 441.5 -0.5 c 128,-1,59
 441 -95 441 -95 441.5 -180 c 128,-1,60
 442 -265 442 -265 446.5 -356.5 c 128,-1,61
 451 -448 451 -448 458 -523 c 0,62,63
 460 -538 460 -538 472 -548 c 128,-1,43
 484 -558 484 -558 499.5 -556.5 c 128,-1,44
EndSplineSet
Validated: 37
EndChar

StartChar: r
Encoding: 114 114 74
Width: 656
Flags: W
LayerCount: 2
Fore
SplineSet
21.5 492.5 m 128,-1,1
 36 498 36 498 50.5 492 c 128,-1,2
 65 486 65 486 70 471 c 0,3,4
 90 420 90 420 97.5 353 c 128,-1,5
 105 286 105 286 101.5 232 c 128,-1,6
 98 178 98 178 97.5 121 c 128,-1,7
 97 64 97 64 101 31 c 0,8,9
 104 16 104 16 95 3 c 128,-1,10
 86 -10 86 -10 70 -12 c 0,11,12
 60 -14 60 -14 50.5 -10.5 c 128,-1,13
 41 -7 41 -7 34.5 1 c 128,-1,14
 28 9 28 9 27 19 c 0,15,16
 20 62 20 62 20 121.5 c 128,-1,17
 20 181 20 181 23 233.5 c 128,-1,18
 26 286 26 286 21 344.5 c 128,-1,19
 16 403 16 403 0 444 c 0,20,21
 -6 458 -6 458 0.5 472.5 c 128,-1,0
 7 487 7 487 21.5 492.5 c 128,-1,1
7 355.5 m 128,-1,23
 -2 368 -2 368 0.5 383.5 c 128,-1,24
 3 399 3 399 15 408 c 0,25,26
 83 457 83 457 148.5 481 c 128,-1,27
 214 505 214 505 266.5 504.5 c 128,-1,28
 319 504 319 504 361.5 485.5 c 128,-1,29
 404 467 404 467 430 432 c 128,-1,30
 456 397 456 397 464 351 c 0,31,32
 467 336 467 336 457.5 323 c 128,-1,33
 448 310 448 310 433 307.5 c 128,-1,34
 418 305 418 305 405 314 c 128,-1,35
 392 323 392 323 390 338 c 0,36,37
 385 362 385 362 371 383 c 128,-1,38
 357 404 357 404 329 418 c 128,-1,39
 301 432 301 432 264.5 432.5 c 128,-1,40
 228 433 228 433 174.5 412 c 128,-1,41
 121 391 121 391 60 347 c 0,42,43
 47 338 47 338 31.5 340.5 c 128,-1,22
 16 343 16 343 7 355.5 c 128,-1,23
EndSplineSet
Validated: 37
EndChar

StartChar: s
Encoding: 115 115 75
Width: 662
Flags: W
LayerCount: 2
Fore
SplineSet
406.5 329 m 128,-1,1
 420 324 420 324 434 330 c 128,-1,2
 448 336 448 336 453 350 c 0,3,4
 471 402 471 402 462 448 c 128,-1,5
 453 494 453 494 423 530 c 0,6,7
 396 564 396 564 357 581.5 c 128,-1,8
 318 599 318 599 271.5 593.5 c 128,-1,9
 225 588 225 588 186 556 c 0,10,11
 98 482 98 482 63 435.5 c 128,-1,12
 28 389 28 389 43 345 c 0,13,14
 54 316 54 316 81 296.5 c 128,-1,15
 108 277 108 277 141.5 269 c 128,-1,16
 175 261 175 261 213.5 253 c 128,-1,17
 252 245 252 245 285 237 c 128,-1,18
 318 229 318 229 344 210.5 c 128,-1,19
 370 192 370 192 379 164 c 0,20,21
 389 127 389 127 382 109.5 c 128,-1,22
 375 92 375 92 352 79 c 0,23,24
 324 64 324 64 282 62.5 c 128,-1,25
 240 61 240 61 198 71.5 c 128,-1,26
 156 82 156 82 118.5 106 c 128,-1,27
 81 130 81 130 63 162 c 0,28,29
 56 175 56 175 41.5 179.5 c 128,-1,30
 27 184 27 184 14.5 177 c 128,-1,31
 2 170 2 170 -2.5 155.5 c 128,-1,32
 -7 141 -7 141 0 128 c 0,33,34
 26 80 26 80 75 46.5 c 128,-1,35
 124 13 124 13 179 -0.5 c 128,-1,36
 234 -14 234 -14 289.5 -10 c 128,-1,37
 345 -6 345 -6 386 16 c 0,38,39
 430 40 430 40 448 85 c 128,-1,40
 466 130 466 130 448 186 c 0,41,42
 434 232 434 232 395.5 265.5 c 128,-1,43
 357 299 357 299 312 316 c 128,-1,44
 267 333 267 333 224 343 c 128,-1,45
 181 353 181 353 148.5 359 c 128,-1,46
 116 365 116 365 111 369 c 1,47,48
 112 375 112 375 122 390 c 128,-1,49
 132 405 132 405 161 435 c 128,-1,50
 190 465 190 465 232 500 c 0,51,52
 268 528 268 528 304.5 522 c 128,-1,53
 341 516 341 516 368 484 c 0,54,55
 409 435 409 435 386 375 c 0,56,57
 380 362 380 362 386.5 348 c 128,-1,0
 393 334 393 334 406.5 329 c 128,-1,1
EndSplineSet
Validated: 41
EndChar

StartChar: t
Encoding: 116 116 76
Width: 558
Flags: W
LayerCount: 2
Fore
SplineSet
102.5 1061 m 128,-1,1
 87 1060 87 1060 76.5 1048 c 128,-1,2
 66 1036 66 1036 67 1021 c 0,3,4
 72 943 72 943 67 783 c 128,-1,5
 62 623 62 623 58 492 c 128,-1,6
 54 361 54 361 69.5 224.5 c 128,-1,7
 85 88 85 88 126 21 c 0,8,9
 161 -38 161 -38 221 -47 c 128,-1,10
 281 -56 281 -56 354 -12 c 0,11,12
 367 -4 367 -4 371 11 c 128,-1,13
 375 26 375 26 366.5 39.5 c 128,-1,14
 358 53 358 53 343 56.5 c 128,-1,15
 328 60 328 60 315 52 c 0,16,17
 278 30 278 30 254 26 c 128,-1,18
 230 22 230 22 216.5 30.5 c 128,-1,19
 203 39 203 39 190 60 c 0,20,21
 165 102 165 102 152.5 190.5 c 128,-1,22
 140 279 140 279 139.5 383 c 128,-1,23
 139 487 139 487 141 607 c 128,-1,24
 143 727 143 727 146 831.5 c 128,-1,25
 149 936 149 936 143 1026 c 0,26,27
 142 1041 142 1041 130 1051.5 c 128,-1,0
 118 1062 118 1062 102.5 1061 c 128,-1,1
-21 606 m 128,-1,29
 -27 592 -27 592 -20.5 577.5 c 128,-1,30
 -14 563 -14 563 0 557 c 0,31,32
 58 534 58 534 108.5 523.5 c 128,-1,33
 159 513 159 513 224.5 508 c 128,-1,34
 290 503 290 503 325 497 c 0,35,36
 341 495 341 495 353.5 504 c 128,-1,37
 366 513 366 513 368.5 528.5 c 128,-1,38
 371 544 371 544 361.5 556.5 c 128,-1,39
 352 569 352 569 337 572 c 0,40,41
 295 578 295 578 231.5 583.5 c 128,-1,42
 168 589 168 589 124 597.5 c 128,-1,43
 80 606 80 606 28 627 c 0,44,45
 14 633 14 633 -0.5 626.5 c 128,-1,28
 -15 620 -15 620 -21 606 c 128,-1,29
EndSplineSet
Validated: 37
EndChar

StartChar: u
Encoding: 117 117 77
Width: 772
Flags: W
LayerCount: 2
Fore
SplineSet
559.5 -19 m 128,-1,1
 543 -24 543 -24 526.5 -18.5 c 128,-1,2
 510 -13 510 -13 504 0 c 0,3,4
 486 35 486 35 476 77 c 128,-1,5
 466 119 466 119 464.5 157 c 128,-1,6
 463 195 463 195 463.5 236.5 c 128,-1,7
 464 278 464 278 466.5 312.5 c 128,-1,8
 469 347 469 347 468.5 381 c 128,-1,9
 468 415 468 415 463 439 c 0,10,11
 460 452 460 452 470.5 463 c 128,-1,12
 481 474 481 474 498.5 476 c 128,-1,13
 516 478 516 478 530.5 470 c 128,-1,14
 545 462 545 462 548 449 c 0,15,16
 556 416 556 416 556.5 369.5 c 128,-1,17
 557 323 557 323 555 279.5 c 128,-1,18
 553 236 553 236 552.5 191 c 128,-1,19
 552 146 552 146 559.5 101.5 c 128,-1,20
 567 57 567 57 584 23 c 0,21,22
 591 11 591 11 583.5 -1.5 c 128,-1,0
 576 -14 576 -14 559.5 -19 c 128,-1,1
580 106 m 0,23,24
 584 100 584 100 584 93.5 c 128,-1,25
 584 87 584 87 581.5 81 c 128,-1,26
 579 75 579 75 573.5 70 c 128,-1,27
 568 65 568 65 560 62 c 0,28,29
 455 23 455 23 370.5 4.5 c 128,-1,30
 286 -14 286 -14 227 -16 c 128,-1,31
 168 -18 168 -18 126 0 c 128,-1,32
 84 18 84 18 59 40.5 c 128,-1,33
 34 63 34 63 22.5 106.5 c 128,-1,34
 11 150 11 150 8 185 c 128,-1,35
 5 220 5 220 12 277 c 128,-1,36
 19 334 19 334 26 370.5 c 128,-1,37
 33 407 33 407 46 465 c 0,38,39
 48 478 48 478 63 486 c 128,-1,40
 78 494 78 494 95 491.5 c 128,-1,41
 112 489 112 489 122.5 478 c 128,-1,42
 133 467 133 467 131 454 c 0,43,44
 91 277 91 277 86 242 c 0,45,46
 68 107 68 107 127 67 c 0,47,48
 216 7 216 7 522 120 c 0,49,50
 538 126 538 126 555 122 c 128,-1,51
 572 118 572 118 580 106 c 0,23,24
EndSplineSet
Validated: 37
EndChar

StartChar: v
Encoding: 118 118 78
Width: 808
Flags: W
LayerCount: 2
Fore
SplineSet
163 550 m 0,0,1
 151 560 151 560 134.5 559.5 c 128,-1,2
 118 559 118 559 107 547 c 0,3,4
 45 478 45 478 19 407 c 128,-1,5
 -7 336 -7 336 0.5 275 c 128,-1,6
 8 214 8 214 44 160 c 0,7,8
 81 104 81 104 143 62 c 128,-1,9
 205 20 205 20 273 0 c 128,-1,10
 341 -20 341 -20 410.5 -15 c 128,-1,11
 480 -10 480 -10 530 24 c 0,12,13
 575 53 575 53 596 100 c 128,-1,14
 617 147 617 147 613.5 210 c 128,-1,15
 610 273 610 273 577 354.5 c 128,-1,16
 544 436 544 436 482 530 c 0,17,18
 473 544 473 544 457 547 c 128,-1,19
 441 550 441 550 428 541.5 c 128,-1,20
 415 533 415 533 411.5 517 c 128,-1,21
 408 501 408 501 417 487 c 0,22,23
 465 415 465 415 493.5 353 c 128,-1,24
 522 291 522 291 530.5 249 c 128,-1,25
 539 207 539 207 535 173.5 c 128,-1,26
 531 140 531 140 518.5 120.5 c 128,-1,27
 506 101 506 101 487 89 c 0,28,29
 455 67 455 67 402 65 c 128,-1,30
 349 63 349 63 295 78 c 128,-1,31
 241 93 241 93 189.5 126 c 128,-1,32
 138 159 138 159 109 203 c 0,33,34
 22 336 22 336 165 495 c 0,35,36
 171 500 171 500 173.5 507.5 c 128,-1,37
 176 515 176 515 175.5 522.5 c 128,-1,38
 175 530 175 530 171.5 537.5 c 128,-1,39
 168 545 168 545 163 550 c 0,0,1
EndSplineSet
Validated: 41
EndChar

StartChar: w
Encoding: 119 119 79
Width: 1272
Flags: W
LayerCount: 2
Fore
SplineSet
163 548 m 0,0,1
 151 559 151 559 134.5 558 c 128,-1,2
 118 557 118 557 107 545 c 0,3,4
 45 476 45 476 19 405 c 128,-1,5
 -7 334 -7 334 0.5 273 c 128,-1,6
 8 212 8 212 44 159 c 0,7,8
 81 103 81 103 143 60.5 c 128,-1,9
 205 18 205 18 273 -1.5 c 128,-1,10
 341 -21 341 -21 410.5 -16 c 128,-1,11
 480 -11 480 -11 530 22 c 0,12,13
 591 62 591 62 608.5 131 c 128,-1,14
 626 200 626 200 595 302 c 128,-1,15
 564 404 564 404 482 528 c 0,16,17
 473 542 473 542 457 545 c 128,-1,18
 441 548 441 548 428 539.5 c 128,-1,19
 415 531 415 531 411.5 515 c 128,-1,20
 408 499 408 499 417 485 c 0,21,22
 457 425 457 425 484 371.5 c 128,-1,23
 511 318 511 318 522 278.5 c 128,-1,24
 533 239 533 239 536 206.5 c 128,-1,25
 539 174 539 174 532 151 c 128,-1,26
 525 128 525 128 514 112.5 c 128,-1,27
 503 97 503 97 487 87 c 0,28,29
 455 65 455 65 402 63 c 128,-1,30
 349 61 349 61 295 76 c 128,-1,31
 241 91 241 91 189.5 124 c 128,-1,32
 138 157 138 157 109 202 c 0,33,34
 22 334 22 334 165 493 c 0,35,36
 172 501 172 501 174.5 511 c 128,-1,37
 177 521 177 521 173.5 531 c 128,-1,38
 170 541 170 541 163 548 c 0,0,1
553.5 135.5 m 128,-1,40
 539 129 539 129 533.5 114 c 128,-1,41
 528 99 528 99 534 84 c 0,42,43
 537 78 537 78 541 71 c 0,44,45
 572 15 572 15 628.5 -9 c 128,-1,46
 685 -33 685 -33 746 -25 c 128,-1,47
 807 -17 807 -17 864 14 c 0,48,49
 912 40 912 40 950.5 79 c 128,-1,50
 989 118 989 118 1016 172.5 c 128,-1,51
 1043 227 1043 227 1052 288.5 c 128,-1,52
 1061 350 1061 350 1045.5 425.5 c 128,-1,53
 1030 501 1030 501 987 578 c 0,54,55
 980 592 980 592 964 596.5 c 128,-1,56
 948 601 948 601 934 593.5 c 128,-1,57
 920 586 920 586 915.5 570.5 c 128,-1,58
 911 555 911 555 919 541 c 0,59,60
 964 458 964 458 974.5 382 c 128,-1,61
 985 306 985 306 965 249 c 128,-1,62
 945 192 945 192 909.5 150 c 128,-1,63
 874 108 874 108 827 83 c 0,64,65
 781 58 781 58 737 53 c 128,-1,66
 693 48 693 48 659.5 62.5 c 128,-1,67
 626 77 626 77 609 109 c 0,68,69
 607 112 607 112 605 116 c 0,70,71
 599 131 599 131 583.5 136.5 c 128,-1,39
 568 142 568 142 553.5 135.5 c 128,-1,40
EndSplineSet
Validated: 37
EndChar

StartChar: x
Encoding: 120 120 80
Width: 876
Flags: W
LayerCount: 2
Fore
SplineSet
58 634 m 128,-1,1
 43 631 43 631 34 617.5 c 128,-1,2
 25 604 25 604 28 589 c 0,3,4
 38 541 38 541 74 491.5 c 128,-1,5
 110 442 110 442 160.5 399 c 128,-1,6
 211 356 211 356 270 313.5 c 128,-1,7
 329 271 329 271 385.5 232.5 c 128,-1,8
 442 194 442 194 488.5 159 c 128,-1,9
 535 124 535 124 564 89 c 128,-1,10
 593 54 593 54 593 25 c 0,11,12
 593 9 593 9 604 -2 c 128,-1,13
 615 -13 615 -13 630.5 -13 c 128,-1,14
 646 -13 646 -13 657 -2 c 128,-1,15
 668 9 668 9 668 25 c 0,16,17
 668 70 668 70 638.5 118.5 c 128,-1,18
 609 167 609 167 561 211 c 128,-1,19
 513 255 513 255 454.5 299.5 c 128,-1,20
 396 344 396 344 336.5 385 c 128,-1,21
 277 426 277 426 227 463.5 c 128,-1,22
 177 501 177 501 142.5 538 c 128,-1,23
 108 575 108 575 102 604 c 0,24,25
 99 619 99 619 86 628 c 128,-1,0
 73 637 73 637 58 634 c 128,-1,1
610.5 623 m 128,-1,27
 595 626 595 626 582 617.5 c 128,-1,28
 569 609 569 609 566 594 c 0,29,30
 561 568 561 568 533.5 536 c 128,-1,31
 506 504 506 504 465.5 473 c 128,-1,32
 425 442 425 442 374.5 405 c 128,-1,33
 324 368 324 368 272.5 332.5 c 128,-1,34
 221 297 221 297 171.5 256.5 c 128,-1,35
 122 216 122 216 84 178 c 128,-1,36
 46 140 46 140 23 97 c 128,-1,37
 0 54 0 54 0 14 c 0,38,39
 0 -1 0 -1 11 -12 c 128,-1,40
 22 -23 22 -23 37.5 -23 c 128,-1,41
 53 -23 53 -23 64.5 -12 c 128,-1,42
 76 -1 76 -1 76 14 c 0,43,44
 76 40 76 40 98 70.5 c 128,-1,45
 120 101 120 101 157 130.5 c 128,-1,46
 194 160 194 160 242 194.5 c 128,-1,47
 290 229 290 229 340.5 262.5 c 128,-1,48
 391 296 391 296 441 335 c 128,-1,49
 491 374 491 374 532 411.5 c 128,-1,50
 573 449 573 449 602.5 493 c 128,-1,51
 632 537 632 537 640 579 c 0,52,53
 643 594 643 594 634.5 607 c 128,-1,26
 626 620 626 620 610.5 623 c 128,-1,27
EndSplineSet
Validated: 5
EndChar

StartChar: y
Encoding: 121 121 81
Width: 847
Flags: W
LayerCount: 2
Fore
SplineSet
208.5 794 m 128,-1,1
 199 806 199 806 183.5 808 c 128,-1,2
 168 810 168 810 156 800 c 0,3,4
 94 751 94 751 58 686 c 128,-1,5
 22 621 22 621 14 551 c 0,6,7
 6 475 6 475 31 406 c 128,-1,8
 56 337 56 337 116.5 288.5 c 128,-1,9
 177 240 177 240 263 231 c 0,10,11
 411 214 411 214 502 291 c 1,12,13
 503 221 503 221 503.5 134.5 c 128,-1,14
 504 48 504 48 504.5 -5 c 128,-1,15
 505 -58 505 -58 505 -71 c 0,16,17
 505 -305 505 -305 472 -507 c 128,-1,18
 439 -709 439 -709 379 -821 c 0,19,20
 336 -902 336 -902 289 -924.5 c 128,-1,21
 242 -947 242 -947 181 -915 c 0,22,23
 164 -906 164 -906 150 -891 c 0,24,25
 105 -846 105 -846 88 -752 c 128,-1,26
 71 -658 71 -658 80 -560.5 c 128,-1,27
 89 -463 89 -463 117 -374 c 128,-1,28
 145 -285 145 -285 184 -246 c 0,29,30
 206 -225 206 -225 221 -225 c 128,-1,31
 236 -225 236 -225 261 -248 c 0,32,33
 272 -259 272 -259 287.5 -259.5 c 128,-1,34
 303 -260 303 -260 314 -249 c 128,-1,35
 325 -238 325 -238 325 -222.5 c 128,-1,36
 325 -207 325 -207 314 -196 c 0,37,38
 268 -152 268 -152 219.5 -153 c 128,-1,39
 171 -154 171 -154 132 -193 c 0,40,41
 82 -242 82 -242 46.5 -343 c 128,-1,42
 11 -444 11 -444 0 -554.5 c 128,-1,43
 -11 -665 -11 -665 13 -774.5 c 128,-1,44
 37 -884 37 -884 97 -944 c 0,45,46
 119 -966 119 -966 146 -981 c 0,47,48
 209 -1016 209 -1016 266 -1006.5 c 128,-1,49
 323 -997 323 -997 367.5 -958.5 c 128,-1,50
 412 -920 412 -920 445 -856 c 0,51,52
 512 -730 512 -730 546 -523 c 128,-1,53
 580 -316 580 -316 580 -71 c 0,54,55
 580 -59 580 -59 579.5 -14.5 c 128,-1,56
 579 30 579 30 578.5 84 c 128,-1,57
 578 138 578 138 577.5 214 c 128,-1,58
 577 290 577 290 577 353 c 0,59,60
 577 375 577 375 577 397 c 1,61,62
 628 526 628 526 578 710 c 0,63,64
 577 711 577 711 578.5 717 c 128,-1,65
 580 723 580 723 571 730.5 c 128,-1,66
 562 738 562 738 543 739 c 0,67,68
 531 739 531 739 522 732 c 128,-1,69
 513 725 513 725 508 711.5 c 128,-1,70
 503 698 503 698 500 680.5 c 128,-1,71
 497 663 497 663 496 641 c 128,-1,72
 495 619 495 619 495 596.5 c 128,-1,73
 495 574 495 574 496 548 c 128,-1,74
 497 522 497 522 498.5 500 c 128,-1,75
 500 478 500 478 501 453.5 c 128,-1,76
 502 429 502 429 502 412 c 1,77,78
 494 396 494 396 484 382 c 0,79,80
 419 289 419 289 271 305 c 0,81,82
 176 316 176 316 127.5 383.5 c 128,-1,83
 79 451 79 451 89 543 c 0,84,85
 95 598 95 598 124 649.5 c 128,-1,86
 153 701 153 701 203 741 c 0,87,88
 215 751 215 751 216.5 766.5 c 128,-1,0
 218 782 218 782 208.5 794 c 128,-1,1
EndSplineSet
Validated: 41
EndChar

StartChar: z
Encoding: 122 122 82
Width: 876
Flags: W
LayerCount: 2
Fore
SplineSet
47 386 m 0,0,1
 48 379 48 379 51.5 373 c 128,-1,2
 55 367 55 367 60.5 363 c 128,-1,3
 66 359 66 359 72.5 357 c 128,-1,4
 79 355 79 355 86 356 c 0,5,6
 144 364 144 364 173 366 c 128,-1,7
 202 368 202 368 215.5 367 c 128,-1,8
 229 366 229 366 267 363.5 c 128,-1,9
 305 361 305 361 357 361 c 0,10,11
 360 361 360 361 363 361 c 0,12,13
 375 363 375 363 437.5 366.5 c 128,-1,14
 500 370 500 370 542 370 c 1,15,16
 505 341 505 341 408.5 289 c 128,-1,17
 312 237 312 237 225 192.5 c 128,-1,18
 138 148 138 148 69 100.5 c 128,-1,19
 0 53 0 53 0 28 c 0,20,21
 0 7 0 7 10 -4.5 c 128,-1,22
 20 -16 20 -16 34 -17 c 128,-1,23
 48 -18 48 -18 62.5 -16.5 c 128,-1,24
 77 -15 77 -15 87 -11 c 2,25,-1
 96 -7 l 1,26,-1
 403 -7 l 2,27,28
 447 -7 447 -7 503 -8.5 c 128,-1,29
 559 -10 559 -10 604 -10 c 0,30,31
 619 -10 619 -10 629 0.5 c 128,-1,32
 639 11 639 11 639 25.5 c 128,-1,33
 639 40 639 40 629 50 c 128,-1,34
 619 60 619 60 604 60 c 0,35,36
 561 60 561 60 505 61.5 c 128,-1,37
 449 63 449 63 403 63 c 2,38,-1
 151 63 l 1,39,40
 182 81 182 81 258 119.5 c 128,-1,41
 334 158 334 158 392 189.5 c 128,-1,42
 450 221 450 221 512.5 259 c 128,-1,43
 575 297 575 297 610 332 c 128,-1,44
 645 367 645 367 645 394 c 0,45,46
 645 410 645 410 637.5 420.5 c 128,-1,47
 630 431 630 431 620 435.5 c 128,-1,48
 610 440 610 440 595.5 441.5 c 128,-1,49
 581 443 581 443 570 442.5 c 128,-1,50
 559 442 559 442 547 441 c 128,-1,51
 535 440 535 440 533 440 c 0,52,53
 425 440 425 440 355 431 c 1,54,55
 309 432 309 432 271 434 c 128,-1,56
 233 436 233 436 217.5 437 c 128,-1,57
 202 438 202 438 168 435.5 c 128,-1,58
 134 433 134 433 77 425 c 0,59,60
 67 424 67 424 60 418.5 c 128,-1,61
 53 413 53 413 49 404 c 128,-1,62
 45 395 45 395 47 386 c 0,0,1
EndSplineSet
Validated: 41
EndChar

StartChar: braceleft
Encoding: 123 123 83
Width: 522
Flags: W
LayerCount: 2
Fore
SplineSet
407.5 988.5 m 128,-1,1
 403 1003 403 1003 389 1010 c 128,-1,2
 375 1017 375 1017 360 1012 c 0,3,4
 325 1000 325 1000 297.5 974.5 c 128,-1,5
 270 949 270 949 251 911.5 c 128,-1,6
 232 874 232 874 218.5 833 c 128,-1,7
 205 792 205 792 194.5 738 c 128,-1,8
 184 684 184 684 177 637.5 c 128,-1,9
 170 591 170 591 160 530.5 c 128,-1,10
 150 470 150 470 141 428 c 0,11,12
 137 414 137 414 87.5 387.5 c 128,-1,13
 38 361 38 361 6 363 c 0,14,15
 -10 363 -10 363 -22 351.5 c 128,-1,16
 -34 340 -34 340 -33 324 c 0,17,18
 -33 310 -33 310 -22.5 300 c 128,-1,19
 -12 290 -12 290 0 288 c 0,20,21
 27 285 27 285 83.5 241.5 c 128,-1,22
 140 198 140 198 147 178 c 1,23,24
 149 147 149 147 151 84 c 0,25,26
 154 19 154 19 156 -14 c 128,-1,27
 158 -47 158 -47 163.5 -103.5 c 128,-1,28
 169 -160 169 -160 176.5 -191.5 c 128,-1,29
 184 -223 184 -223 197.5 -265 c 128,-1,30
 211 -307 211 -307 230 -331.5 c 128,-1,31
 249 -356 249 -356 277 -378 c 128,-1,32
 305 -400 305 -400 340 -410 c 0,33,34
 355 -414 355 -414 368.5 -406.5 c 128,-1,35
 382 -399 382 -399 386.5 -384.5 c 128,-1,36
 391 -370 391 -370 383.5 -356.5 c 128,-1,37
 376 -343 376 -343 361 -339 c 0,38,39
 344 -334 344 -334 330 -325 c 128,-1,40
 316 -316 316 -316 304.5 -301 c 128,-1,41
 293 -286 293 -286 284 -272 c 128,-1,42
 275 -258 275 -258 268 -232 c 128,-1,43
 261 -206 261 -206 255.5 -187.5 c 128,-1,44
 250 -169 250 -169 245.5 -133.5 c 128,-1,45
 241 -98 241 -98 238.5 -76 c 128,-1,46
 236 -54 236 -54 233 -10 c 128,-1,47
 230 34 230 34 228.5 59.5 c 128,-1,48
 227 85 227 85 224 137 c 0,49,50
 223 147 223 147 223 152.5 c 128,-1,51
 223 158 223 158 222.5 167 c 128,-1,52
 222 176 222 176 221 183 c 0,53,54
 219 219 219 219 190 250.5 c 128,-1,55
 161 282 161 282 113 315 c 1,56,57
 202 357 202 357 214 412 c 0,58,59
 224 461 224 461 236 523.5 c 128,-1,60
 248 586 248 586 255.5 629 c 128,-1,61
 263 672 263 672 273 721.5 c 128,-1,62
 283 771 283 771 293 804.5 c 128,-1,63
 303 838 303 838 316.5 868 c 128,-1,64
 330 898 330 898 346.5 916 c 128,-1,65
 363 934 363 934 384 941 c 0,66,67
 398 946 398 946 405 960 c 128,-1,0
 412 974 412 974 407.5 988.5 c 128,-1,1
EndSplineSet
Validated: 41
EndChar

StartChar: bar
Encoding: 124 124 84
Width: 256
Flags: W
LayerCount: 2
Fore
SplineSet
58.5 1001.5 m 128,-1,1
 43 1001 43 1001 32.5 990 c 128,-1,2
 22 979 22 979 22 963 c 0,3,4
 26 788 26 788 12 259.5 c 128,-1,5
 -2 -269 -2 -269 1 -388 c 0,6,7
 1 -403 1 -403 12 -413.5 c 128,-1,8
 23 -424 23 -424 38.5 -424 c 128,-1,9
 54 -424 54 -424 64.5 -412.5 c 128,-1,10
 75 -401 75 -401 75 -386 c 0,11,12
 73 -271 73 -271 87 257.5 c 128,-1,13
 101 786 101 786 96 965 c 0,14,15
 96 980 96 980 85 991 c 128,-1,0
 74 1002 74 1002 58.5 1001.5 c 128,-1,1
EndSplineSet
Validated: 41
EndChar

StartChar: braceright
Encoding: 125 125 85
Width: 586
Flags: W
LayerCount: 2
Fore
SplineSet
-31 988.5 m 128,-1,1
 -26 1003 -26 1003 -12.5 1010 c 128,-1,2
 1 1017 1 1017 16 1012 c 0,3,4
 51 1000 51 1000 79 974.5 c 128,-1,5
 107 949 107 949 125.5 911.5 c 128,-1,6
 144 874 144 874 157.5 833 c 128,-1,7
 171 792 171 792 181.5 738 c 128,-1,8
 192 684 192 684 199.5 637.5 c 128,-1,9
 207 591 207 591 216.5 530.5 c 128,-1,10
 226 470 226 470 235 428 c 0,11,12
 239 414 239 414 288.5 387.5 c 128,-1,13
 338 361 338 361 371 363 c 0,14,15
 387 363 387 363 398.5 351.5 c 128,-1,16
 410 340 410 340 409 324 c 0,17,18
 409 314 409 314 403.5 306 c 128,-1,19
 398 298 398 298 391 293.5 c 128,-1,20
 384 289 384 289 376 288 c 0,21,22
 349 285 349 285 292.5 241.5 c 128,-1,23
 236 198 236 198 229 178 c 1,24,25
 228 147 228 147 225 84 c 0,26,27
 222 19 222 19 220.5 -14 c 128,-1,28
 219 -47 219 -47 213 -103.5 c 128,-1,29
 207 -160 207 -160 200 -191.5 c 128,-1,30
 193 -223 193 -223 179 -265 c 128,-1,31
 165 -307 165 -307 146 -331.5 c 128,-1,32
 127 -356 127 -356 99.5 -378 c 128,-1,33
 72 -400 72 -400 36 -410 c 0,34,35
 21 -414 21 -414 7.5 -406.5 c 128,-1,36
 -6 -399 -6 -399 -10.5 -384.5 c 128,-1,37
 -15 -370 -15 -370 -7.5 -356.5 c 128,-1,38
 0 -343 0 -343 15 -339 c 0,39,40
 32 -334 32 -334 46 -325 c 128,-1,41
 60 -316 60 -316 71.5 -301 c 128,-1,42
 83 -286 83 -286 92 -272 c 128,-1,43
 101 -258 101 -258 108 -232 c 128,-1,44
 115 -206 115 -206 120.5 -187.5 c 128,-1,45
 126 -169 126 -169 130.5 -133.5 c 128,-1,46
 135 -98 135 -98 137.5 -76 c 128,-1,47
 140 -54 140 -54 143.5 -10 c 128,-1,48
 147 34 147 34 148.5 59.5 c 128,-1,49
 150 85 150 85 152 137 c 0,50,51
 153 147 153 147 153.5 152.5 c 128,-1,52
 154 158 154 158 154.5 167 c 128,-1,53
 155 176 155 176 155 183 c 0,54,55
 157 219 157 219 186.5 250.5 c 128,-1,56
 216 282 216 282 263 315 c 1,57,58
 174 357 174 357 162 412 c 0,59,60
 152 461 152 461 140.5 523.5 c 128,-1,61
 129 586 129 586 121 629 c 128,-1,62
 113 672 113 672 103 721.5 c 128,-1,63
 93 771 93 771 83 804.5 c 128,-1,64
 73 838 73 838 60 868 c 128,-1,65
 47 898 47 898 30 916 c 128,-1,66
 13 934 13 934 -8 941 c 0,67,68
 -22 946 -22 946 -29 960 c 128,-1,0
 -36 974 -36 974 -31 988.5 c 128,-1,1
EndSplineSet
Validated: 33
EndChar

StartChar: asciitilde
Encoding: 126 126 86
Width: 976
Flags: W
LayerCount: 2
Fore
SplineSet
-4 175.5 m 128,-1,1
 6 164 6 164 21.5 162.5 c 128,-1,2
 37 161 37 161 48 171 c 0,3,4
 230 326 230 326 317 249 c 0,5,6
 350 219 350 219 382.5 199 c 128,-1,7
 415 179 415 179 441.5 168 c 128,-1,8
 468 157 468 157 496 155 c 128,-1,9
 524 153 524 153 544.5 154 c 128,-1,10
 565 155 565 155 589 166 c 128,-1,11
 613 177 613 177 628 185.5 c 128,-1,12
 643 194 643 194 665 212.5 c 128,-1,13
 687 231 687 231 698 241 c 128,-1,14
 709 251 709 251 728 271 c 0,15,16
 733 276 733 276 735.5 278.5 c 128,-1,17
 738 281 738 281 742 284.5 c 128,-1,18
 746 288 746 288 749.5 291.5 c 128,-1,19
 753 295 753 295 756 298 c 0,20,21
 767 308 767 308 767.5 323.5 c 128,-1,22
 768 339 768 339 757.5 350 c 128,-1,23
 747 361 747 361 731.5 361.5 c 128,-1,24
 716 362 716 362 705 352 c 0,25,26
 690 338 690 338 668 315.5 c 128,-1,27
 646 293 646 293 633.5 280.5 c 128,-1,28
 621 268 621 268 600.5 252 c 128,-1,29
 580 236 580 236 564.5 230.5 c 128,-1,30
 549 225 549 225 526.5 223 c 128,-1,31
 504 221 504 221 481.5 229.5 c 128,-1,32
 459 238 459 238 429.5 256.5 c 128,-1,33
 400 275 400 275 366 305 c 0,34,35
 338 329 338 329 306 340 c 128,-1,36
 274 351 274 351 245.5 351 c 128,-1,37
 217 351 217 351 183.5 340 c 128,-1,38
 150 329 150 329 126.5 317.5 c 128,-1,39
 103 306 103 306 74 286 c 128,-1,40
 45 266 45 266 32 255 c 128,-1,41
 19 244 19 244 0 228 c 0,42,43
 -12 218 -12 218 -13 202.5 c 128,-1,0
 -14 187 -14 187 -4 175.5 c 128,-1,1
EndSplineSet
Validated: 41
EndChar

StartChar: sterling
Encoding: 163 163 87
Width: 1000
Flags: W
LayerCount: 2
Fore
SplineSet
-13 -346 m 0,0,1
 -6 -360 -6 -360 10 -365.5 c 128,-1,2
 26 -371 26 -371 40 -364 c 0,3,4
 85 -342 85 -342 125.5 -331 c 128,-1,5
 166 -320 166 -320 197 -320 c 128,-1,6
 228 -320 228 -320 259.5 -325 c 128,-1,7
 291 -330 291 -330 317 -339 c 128,-1,8
 343 -348 343 -348 374 -356.5 c 128,-1,9
 405 -365 405 -365 435.5 -371 c 128,-1,10
 466 -377 466 -377 506 -375.5 c 128,-1,11
 546 -374 546 -374 589 -364 c 0,12,13
 599 -362 599 -362 607 -354.5 c 128,-1,14
 615 -347 615 -347 618 -337 c 128,-1,15
 621 -327 621 -327 619 -316 c 0,16,17
 615 -301 615 -301 601 -292 c 128,-1,18
 587 -283 587 -283 571 -286 c 0,19,20
 532 -295 532 -295 501.5 -291.5 c 128,-1,21
 471 -288 471 -288 435 -280 c 128,-1,22
 399 -272 399 -272 367 -261 c 128,-1,23
 335 -250 335 -250 294 -243.5 c 128,-1,24
 253 -237 253 -237 212 -236.5 c 128,-1,25
 171 -236 171 -236 117 -250 c 128,-1,26
 63 -264 63 -264 5 -292 c 0,27,28
 -5 -297 -5 -297 -11 -306 c 128,-1,29
 -17 -315 -17 -315 -17.5 -325.5 c 128,-1,30
 -18 -336 -18 -336 -13 -346 c 0,0,1
607.5 495 m 128,-1,32
 623 500 623 500 630.5 514.5 c 128,-1,33
 638 529 638 529 633 545 c 0,34,35
 598 656 598 656 544 720 c 0,36,37
 518 751 518 751 488 770 c 128,-1,38
 458 789 458 789 428.5 795 c 128,-1,39
 399 801 399 801 369 797.5 c 128,-1,40
 339 794 339 794 312 782 c 128,-1,41
 285 770 285 770 262 750 c 0,42,43
 238 730 238 730 220 693 c 128,-1,44
 202 656 202 656 192 600.5 c 128,-1,45
 182 545 182 545 175.5 491.5 c 128,-1,46
 169 438 169 438 169 359 c 128,-1,47
 169 280 169 280 169.5 223.5 c 128,-1,48
 170 167 170 167 175 77.5 c 128,-1,49
 180 -12 180 -12 183.5 -59.5 c 128,-1,50
 187 -107 187 -107 193 -192 c 0,51,52
 197 -248 197 -248 199 -275 c 0,53,54
 200 -285 200 -285 206 -294 c 128,-1,55
 212 -303 212 -303 221.5 -307.5 c 128,-1,56
 231 -312 231 -312 242 -311.5 c 128,-1,57
 253 -311 253 -311 261.5 -305 c 128,-1,58
 270 -299 270 -299 275 -289.5 c 128,-1,59
 280 -280 280 -280 279 -269 c 0,60,61
 269 -124 269 -124 263 17 c 128,-1,62
 257 158 257 158 257 308 c 128,-1,63
 257 458 257 458 271 561.5 c 128,-1,64
 285 665 285 665 313 689 c 0,65,66
 403 764 403 764 483 669 c 0,67,68
 526 617 526 617 557 521 c 0,69,70
 562 505 562 505 577 497.5 c 128,-1,31
 592 490 592 490 607.5 495 c 128,-1,32
-36 96 m 0,71,72
 -37 80 -37 80 -26.5 67 c 128,-1,73
 -16 54 -16 54 0 53 c 0,74,75
 75 45 75 45 148 43.5 c 128,-1,76
 221 42 221 42 273 44.5 c 128,-1,77
 325 47 325 47 402.5 50 c 128,-1,78
 480 53 480 53 544 53 c 0,79,80
 560 53 560 53 572 65 c 128,-1,81
 584 77 584 77 584 93.5 c 128,-1,82
 584 110 584 110 572 121.5 c 128,-1,83
 560 133 560 133 544 133 c 0,84,85
 477 133 477 133 399 130 c 128,-1,86
 321 127 321 127 270.5 124.5 c 128,-1,87
 220 122 220 122 149.5 123.5 c 128,-1,88
 79 125 79 125 8 132 c 0,89,90
 0 133 0 133 -7.5 130.5 c 128,-1,91
 -15 128 -15 128 -21 123.5 c 128,-1,92
 -27 119 -27 119 -31 111.5 c 128,-1,93
 -35 104 -35 104 -36 96 c 0,71,72
EndSplineSet
Validated: 37
EndChar

StartChar: section
Encoding: 167 167 88
Width: 928
Flags: W
LayerCount: 2
Fore
SplineSet
491.5 524.5 m 128,-1,1
 508 524 508 524 520.5 535.5 c 128,-1,2
 533 547 533 547 533 564 c 0,3,4
 534 601 534 601 528 634 c 0,5,6
 520 676 520 676 500.5 708.5 c 128,-1,7
 481 741 481 741 455 759 c 128,-1,8
 429 777 429 777 397 788.5 c 128,-1,9
 365 800 365 800 333 799.5 c 128,-1,10
 301 799 301 799 269 795 c 0,11,12
 231 787 231 787 193.5 770 c 128,-1,13
 156 753 156 753 125.5 728 c 128,-1,14
 95 703 95 703 79 667.5 c 128,-1,15
 63 632 63 632 71 593 c 0,16,17
 79 546 79 546 101 512.5 c 128,-1,18
 123 479 123 479 152 460 c 128,-1,19
 181 441 181 441 216 428 c 128,-1,20
 251 415 251 415 287.5 407 c 128,-1,21
 324 399 324 399 360 390 c 128,-1,22
 396 381 396 381 428 367.5 c 128,-1,23
 460 354 460 354 484.5 334 c 128,-1,24
 509 314 509 314 523 279.5 c 128,-1,25
 537 245 537 245 538 197 c 0,26,27
 538 189 538 189 528.5 179 c 128,-1,28
 519 169 519 169 502.5 158.5 c 128,-1,29
 486 148 486 148 460.5 138 c 128,-1,30
 435 128 435 128 406.5 120.5 c 128,-1,31
 378 113 378 113 341.5 109 c 128,-1,32
 305 105 305 105 268 106 c 0,33,34
 178 109 178 109 128 138 c 128,-1,35
 78 167 78 167 80 215 c 0,36,37
 81 231 81 231 69.5 243.5 c 128,-1,38
 58 256 58 256 41 256 c 0,39,40
 33 256 33 256 25.5 253.5 c 128,-1,41
 18 251 18 251 12.5 245.5 c 128,-1,42
 7 240 7 240 3.5 233 c 128,-1,43
 0 226 0 226 0 218 c 0,44,45
 -1 177 -1 177 14.5 144 c 128,-1,46
 30 111 30 111 56.5 90 c 128,-1,47
 83 69 83 69 118.5 54.5 c 128,-1,48
 154 40 154 40 190.5 33.5 c 128,-1,49
 227 27 227 27 266 26 c 0,50,51
 322 24 322 24 380.5 32.5 c 128,-1,52
 439 41 439 41 494 60 c 128,-1,53
 549 79 549 79 583.5 114.5 c 128,-1,54
 618 150 618 150 618 197 c 0,55,56
 617 261 617 261 598 311.5 c 128,-1,57
 579 362 579 362 547.5 392.5 c 128,-1,58
 516 423 516 423 475.5 447 c 128,-1,59
 435 471 435 471 393 483.5 c 128,-1,60
 351 496 351 496 309 509.5 c 128,-1,61
 267 523 267 523 233.5 534 c 128,-1,62
 200 545 200 545 177 563.5 c 128,-1,63
 154 582 154 582 149 608 c 256,64,65
 144 634 144 634 183 669 c 128,-1,66
 222 704 222 704 284 716 c 0,67,68
 348 728 348 728 393 705.5 c 128,-1,69
 438 683 438 683 449 619 c 0,70,71
 454 595 454 595 453 566 c 0,72,73
 453 550 453 550 464 537.5 c 128,-1,0
 475 525 475 525 491.5 524.5 c 128,-1,1
126 -71.5 m 128,-1,75
 110 -71 110 -71 97.5 -82.5 c 128,-1,76
 85 -94 85 -94 85 -110 c 0,77,78
 84 -148 84 -148 90 -181 c 0,79,80
 98 -223 98 -223 117.5 -255 c 128,-1,81
 137 -287 137 -287 163 -305.5 c 128,-1,82
 189 -324 189 -324 220.5 -335 c 128,-1,83
 252 -346 252 -346 284.5 -346 c 128,-1,84
 317 -346 317 -346 348 -341 c 0,85,86
 387 -334 387 -334 424 -316.5 c 128,-1,87
 461 -299 461 -299 492 -274 c 128,-1,88
 523 -249 523 -249 538.5 -213.5 c 128,-1,89
 554 -178 554 -178 547 -139 c 0,90,91
 538 -93 538 -93 516.5 -59.5 c 128,-1,92
 495 -26 495 -26 466 -7 c 128,-1,93
 437 12 437 12 402 25 c 128,-1,94
 367 38 367 38 330 46.5 c 128,-1,95
 293 55 293 55 257 63.5 c 128,-1,96
 221 72 221 72 189.5 85.5 c 128,-1,97
 158 99 158 99 133.5 119 c 128,-1,98
 109 139 109 139 94.5 174 c 128,-1,99
 80 209 80 209 80 257 c 0,100,101
 80 265 80 265 89.5 275 c 128,-1,102
 99 285 99 285 115.5 295.5 c 128,-1,103
 132 306 132 306 157 316 c 128,-1,104
 182 326 182 326 211 333.5 c 128,-1,105
 240 341 240 341 276.5 345 c 128,-1,106
 313 349 313 349 350 348 c 0,107,108
 439 345 439 345 489 315.5 c 128,-1,109
 539 286 539 286 538 239 c 0,110,111
 537 222 537 222 548.5 210 c 128,-1,112
 560 198 560 198 576 197 c 0,113,114
 587 197 587 197 596.5 202 c 128,-1,115
 606 207 606 207 611.5 216 c 128,-1,116
 617 225 617 225 618 236 c 0,117,118
 619 277 619 277 603.5 310 c 128,-1,119
 588 343 588 343 561.5 364 c 128,-1,120
 535 385 535 385 499 399.5 c 128,-1,121
 463 414 463 414 427 420 c 128,-1,122
 391 426 391 426 352 428 c 0,123,124
 296 430 296 430 237 421.5 c 128,-1,125
 178 413 178 413 123.5 394 c 128,-1,126
 69 375 69 375 34.5 339 c 128,-1,127
 0 303 0 303 0 256 c 0,128,129
 0 204 0 204 13 161.5 c 128,-1,130
 26 119 26 119 47 89.5 c 128,-1,131
 68 60 68 60 97 36.5 c 128,-1,132
 126 13 126 13 158 -2 c 128,-1,133
 190 -17 190 -17 224.5 -30 c 128,-1,134
 259 -43 259 -43 292 -51.5 c 128,-1,135
 325 -60 325 -60 355.5 -70.5 c 128,-1,136
 386 -81 386 -81 409.5 -91 c 128,-1,137
 433 -101 433 -101 449 -117.5 c 128,-1,138
 465 -134 465 -134 468 -154 c 0,139,140
 474 -181 474 -181 435 -216 c 128,-1,141
 396 -251 396 -251 334 -263 c 0,142,143
 304 -269 304 -269 276.5 -266.5 c 128,-1,144
 249 -264 249 -264 227.5 -253.5 c 128,-1,145
 206 -243 206 -243 190 -220.5 c 128,-1,146
 174 -198 174 -198 168 -166 c 0,147,148
 164 -142 164 -142 165 -112 c 0,149,150
 165 -96 165 -96 153.5 -84 c 128,-1,74
 142 -72 142 -72 126 -71.5 c 128,-1,75
EndSplineSet
Validated: 37
EndChar

StartChar: dieresis
Encoding: 168 168 89
Width: 904
Flags: W
LayerCount: 2
Fore
SplineSet
166 732 m 0,0,1
 166 739 166 739 164 745 c 0,2,3
 154 779 154 779 124 792 c 128,-1,4
 94 805 94 805 64 796 c 0,5,6
 31 786 31 786 12 755.5 c 128,-1,7
 -7 725 -7 725 3 685 c 0,8,9
 12 649 12 649 44 633 c 128,-1,10
 76 617 76 617 109 625 c 0,11,12
 140 633 140 633 157 663 c 128,-1,13
 174 693 174 693 166 732 c 0,0,1
95 729 m 1,14,15
 95 726 95 726 96 725 c 0,16,17
 104 695 104 695 92 693 c 0,18,19
 87 692 87 692 82 693.5 c 128,-1,20
 77 695 77 695 74 697.5 c 128,-1,21
 71 700 71 700 71 702 c 0,22,23
 68 714 68 714 73 721 c 0,24,25
 76 725 76 725 81.5 727.5 c 128,-1,26
 87 730 87 730 90 729.5 c 128,-1,27
 93 729 93 729 95 729 c 1,14,15
129 734 m 1,28,29
 145 678 145 678 107 661 c 0,30,31
 78 649 78 649 52 670 c 0,32,33
 40 679 40 679 37 694 c 0,34,35
 29 726 29 726 49 747 c 128,-1,36
 69 768 69 768 95.5 765 c 128,-1,37
 122 762 122 762 131 734 c 1,38,-1
 129 734 l 1,28,29
578 720 m 0,39,40
 578 727 578 727 577 732 c 0,41,42
 566 767 566 767 536 780 c 128,-1,43
 506 793 506 793 476 783 c 0,44,45
 444 773 444 773 425 742.5 c 128,-1,46
 406 712 406 712 415 673 c 0,47,48
 424 637 424 637 456.5 620.5 c 128,-1,49
 489 604 489 604 521 613 c 0,50,51
 553 621 553 621 569.5 650.5 c 128,-1,52
 586 680 586 680 578 720 c 0,39,40
507 716 m 0,53,54
 508 714 508 714 508 712 c 0,55,56
 517 682 517 682 505 681 c 0,57,58
 504 680 504 680 504 680 c 1,59,60
 497 679 497 679 490.5 682.5 c 128,-1,61
 484 686 484 686 483 690 c 0,62,63
 480 701 480 701 486 709 c 0,64,65
 489 713 489 713 494 715 c 128,-1,66
 499 717 499 717 502.5 717 c 128,-1,67
 506 717 506 717 507 716 c 0,53,54
542 722 m 1,68,69
 558 665 558 665 519 649 c 0,70,71
 490 636 490 636 465 657 c 0,72,73
 453 667 453 667 449 681 c 0,74,75
 441 713 441 713 461 734.5 c 128,-1,76
 481 756 481 756 508 752.5 c 128,-1,77
 535 749 535 749 543 722 c 1,78,-1
 542 722 l 1,68,69
EndSplineSet
Validated: 41
EndChar

StartChar: copyright
Encoding: 169 169 90
Width: 640
Flags: W
LayerCount: 2
Fore
SplineSet
439 636 m 1,0,1
 443 647 443 647 440 657 c 0,2,3
 426 703 426 703 397 736 c 128,-1,4
 368 769 368 769 332 783 c 128,-1,5
 296 797 296 797 255.5 799.5 c 128,-1,6
 215 802 215 802 177 789 c 0,7,8
 135 776 135 776 98.5 748.5 c 128,-1,9
 62 721 62 721 36.5 681 c 128,-1,10
 11 641 11 641 3 590.5 c 128,-1,11
 -5 540 -5 540 9 481 c 0,12,13
 24 418 24 418 71.5 376 c 128,-1,14
 119 334 119 334 178.5 320 c 128,-1,15
 238 306 238 306 295 320 c 0,16,17
 383 342 383 342 426.5 425 c 128,-1,18
 470 508 470 508 439 636 c 1,0,1
372 656 m 1,19,20
 370 647 370 647 372 639 c 256,21,22
 374 631 374 631 376 624 c 0,23,24
 389 565 389 565 387.5 522.5 c 128,-1,25
 386 480 386 480 369 451 c 128,-1,26
 352 422 352 422 330 406 c 128,-1,27
 308 390 308 390 280 383 c 0,28,29
 237 373 237 373 193 383.5 c 128,-1,30
 149 394 149 394 115.5 424 c 128,-1,31
 82 454 82 454 71 496 c 0,32,33
 52 576 52 576 83.5 634.5 c 128,-1,34
 115 693 115 693 176 720 c 0,35,36
 195 728 195 728 214.5 732 c 128,-1,37
 234 736 234 736 253 735.5 c 128,-1,38
 272 735 272 735 290 730 c 128,-1,39
 308 725 308 725 323 715 c 128,-1,40
 338 705 338 705 350.5 690 c 128,-1,41
 363 675 363 675 372 656 c 1,19,20
149 564 m 128,-1,43
 144 565 144 565 139.5 562 c 128,-1,44
 135 559 135 559 134 554 c 0,45,46
 126 504 126 504 162 480 c 0,47,48
 193 458 193 458 240.5 471 c 128,-1,49
 288 484 288 484 315 526 c 0,50,51
 334 555 334 555 332 580 c 128,-1,52
 330 605 330 605 310 622 c 0,53,54
 290 640 290 640 259.5 645.5 c 128,-1,55
 229 651 229 651 196.5 640.5 c 128,-1,56
 164 630 164 630 142 606 c 0,57,58
 134 596 134 596 143 588 c 128,-1,59
 152 580 152 580 160 589 c 0,60,61
 177 609 177 609 203.5 617 c 128,-1,62
 230 625 230 625 254.5 621 c 128,-1,63
 279 617 279 617 294 604 c 0,64,65
 322 579 322 579 295 539 c 0,66,67
 280 517 280 517 256 504 c 128,-1,68
 232 491 232 491 211.5 491.5 c 128,-1,69
 191 492 191 492 176 501 c 0,70,71
 153 516 153 516 159 550 c 0,72,73
 160 555 160 555 157 559 c 128,-1,42
 154 563 154 563 149 564 c 128,-1,43
EndSplineSet
Validated: 41
EndChar

StartChar: guillemotleft
Encoding: 171 171 91
Width: 1000
Flags: W
LayerCount: 2
Fore
SplineSet
776 218 m 128,-1,1
 784 231 784 231 780 246.5 c 128,-1,2
 776 262 776 262 763 269 c 0,3,4
 433 465 433 465 310 529 c 0,5,6
 296 537 296 537 281 532 c 128,-1,7
 266 527 266 527 259 513.5 c 128,-1,8
 252 500 252 500 256.5 485 c 128,-1,9
 261 470 261 470 275 463 c 0,10,11
 397 399 397 399 724 205 c 0,12,13
 738 197 738 197 753 201 c 128,-1,0
 768 205 768 205 776 218 c 128,-1,1
776 774.5 m 128,-1,15
 768 788 768 788 753 791.5 c 128,-1,16
 738 795 738 795 724 788 c 0,17,18
 397 593 397 593 275 529 c 0,19,20
 261 522 261 522 256.5 507 c 128,-1,21
 252 492 252 492 259 478.5 c 128,-1,22
 266 465 266 465 281 460.5 c 128,-1,23
 296 456 296 456 310 463 c 0,24,25
 433 528 433 528 763 723 c 0,26,27
 776 731 776 731 780 746 c 128,-1,14
 784 761 784 761 776 774.5 c 128,-1,15
501 230.5 m 128,-1,29
 509 244 509 244 505 259 c 128,-1,30
 501 274 501 274 488 282 c 0,31,32
 158 477 158 477 35 542 c 0,33,34
 21 549 21 549 6 544.5 c 128,-1,35
 -9 540 -9 540 -16 526.5 c 128,-1,36
 -23 513 -23 513 -18.5 498 c 128,-1,37
 -14 483 -14 483 0 476 c 0,38,39
 122 412 122 412 449 217 c 0,40,41
 463 210 463 210 478 213.5 c 128,-1,28
 493 217 493 217 501 230.5 c 128,-1,29
501 787 m 128,-1,43
 493 800 493 800 478 804 c 128,-1,44
 463 808 463 808 449 800 c 0,45,46
 122 606 122 606 0 542 c 0,47,48
 -14 535 -14 535 -18.5 520 c 128,-1,49
 -23 505 -23 505 -16 491.5 c 128,-1,50
 -9 478 -9 478 6 473 c 128,-1,51
 21 468 21 468 35 476 c 0,52,53
 158 540 158 540 488 735 c 0,54,55
 501 743 501 743 505 758.5 c 128,-1,42
 509 774 509 774 501 787 c 128,-1,43
EndSplineSet
Validated: 5
EndChar

StartChar: logicalnot
Encoding: 172 172 92
Width: 1000
Flags: W
LayerCount: 2
Fore
SplineSet
-39 752 m 0,0,1
 -39 742 -39 742 -34 732.5 c 128,-1,2
 -29 723 -29 723 -20 717 c 128,-1,3
 -11 711 -11 711 0 711 c 0,4,5
 41 710 41 710 145.5 712.5 c 128,-1,6
 250 715 250 715 349 718 c 128,-1,7
 448 721 448 721 555 719.5 c 128,-1,8
 662 718 662 718 719 709 c 0,9,10
 729 708 729 708 739 712 c 128,-1,11
 749 716 749 716 756 724 c 128,-1,12
 763 732 763 732 764 743 c 0,13,14
 767 759 767 759 757 772.5 c 128,-1,15
 747 786 747 786 731 788 c 0,16,17
 668 798 668 798 557 799.5 c 128,-1,18
 446 801 446 801 346.5 798.5 c 128,-1,19
 247 796 247 796 143.5 793 c 128,-1,20
 40 790 40 790 2 791 c 0,21,22
 -14 792 -14 792 -26 780.5 c 128,-1,23
 -38 769 -38 769 -39 752 c 0,0,1
710 489 m 128,-1,25
 726 488 726 488 739 499 c 128,-1,26
 752 510 752 510 753 527 c 0,27,28
 755 570 755 570 756 608 c 128,-1,29
 757 646 757 646 758.5 674 c 128,-1,30
 760 702 760 702 764 744 c 0,31,32
 766 760 766 760 756 773.5 c 128,-1,33
 746 787 746 787 729.5 788.5 c 128,-1,34
 713 790 713 790 700 780 c 128,-1,35
 687 770 687 770 685 753 c 0,36,37
 680 709 680 709 678.5 678.5 c 128,-1,38
 677 648 677 648 676 610 c 128,-1,39
 675 572 675 572 673 531 c 0,40,41
 672 515 672 515 683 502.5 c 128,-1,24
 694 490 694 490 710 489 c 128,-1,25
EndSplineSet
Validated: 37
EndChar

StartChar: uni00AD
Encoding: 173 173 93
Width: 744
Flags: W
LayerCount: 2
Fore
SplineSet
-38.5 292.5 m 132,-1,1
 -39 276 -39 276 -27.5 264 c 132,-1,2
 -16 252 -16 252 0 251 c 4,3,4
 50 250 50 250 136 254.5 c 132,-1,5
 222 259 222 259 276 259.5 c 132,-1,6
 330 260 330 260 431 249 c 4,7,8
 448 247 448 247 461 257 c 132,-1,9
 474 267 474 267 477 283 c 4,10,11
 478 289 478 289 476.5 295.5 c 132,-1,12
 475 302 475 302 472.5 307.5 c 132,-1,13
 470 313 470 313 465.5 317 c 132,-1,14
 461 321 461 321 455 324 c 132,-1,15
 449 327 449 327 443 328 c 4,16,17
 364 340 364 340 283.5 340 c 132,-1,18
 203 340 203 340 124.5 335 c 132,-1,19
 46 330 46 330 2 331 c 4,20,21
 -14 332 -14 332 -26 320.5 c 132,-1,0
 -38 309 -38 309 -38.5 292.5 c 132,-1,1
EndSplineSet
Validated: 41
EndChar

StartChar: macron
Encoding: 175 175 94
Width: 799
Flags: W
LayerCount: 2
Fore
SplineSet
-39 208 m 0,0,1
 -39 198 -39 198 -34 188.5 c 128,-1,2
 -29 179 -29 179 -20 173 c 128,-1,3
 -11 167 -11 167 0 167 c 0,4,5
 41 166 41 166 145.5 168.5 c 128,-1,6
 250 171 250 171 349 174 c 128,-1,7
 448 177 448 177 555 175.5 c 128,-1,8
 662 174 662 174 719 165 c 0,9,10
 729 164 729 164 739 168 c 128,-1,11
 749 172 749 172 756 180 c 128,-1,12
 763 188 763 188 764 199 c 0,13,14
 767 215 767 215 757 228.5 c 128,-1,15
 747 242 747 242 731 244 c 0,16,17
 668 254 668 254 557 255.5 c 128,-1,18
 446 257 446 257 346.5 254.5 c 128,-1,19
 247 252 247 252 143.5 249 c 128,-1,20
 40 246 40 246 2 247 c 0,21,22
 -14 248 -14 248 -26 236.5 c 128,-1,23
 -38 225 -38 225 -39 208 c 0,0,1
EndSplineSet
Validated: 41
EndChar

StartChar: degree
Encoding: 176 176 95
Width: 728
Flags: W
LayerCount: 2
Fore
SplineSet
439 636 m 1,0,1
 443 647 443 647 440 657 c 0,2,3
 426 703 426 703 397 736 c 128,-1,4
 368 769 368 769 332 783 c 128,-1,5
 296 797 296 797 255.5 799.5 c 128,-1,6
 215 802 215 802 177 789 c 0,7,8
 135 776 135 776 98.5 748.5 c 128,-1,9
 62 721 62 721 36.5 681 c 128,-1,10
 11 641 11 641 3 590.5 c 128,-1,11
 -5 540 -5 540 9 481 c 0,12,13
 24 418 24 418 71.5 376 c 128,-1,14
 119 334 119 334 178.5 320 c 128,-1,15
 238 306 238 306 295 320 c 256,16,17
 352 334 352 334 391 374 c 128,-1,18
 430 414 430 414 445.5 480.5 c 128,-1,19
 461 547 461 547 439 636 c 1,0,1
372 656 m 1,20,21
 370 647 370 647 372 639 c 256,22,23
 374 631 374 631 376 624 c 0,24,25
 389 565 389 565 387.5 522.5 c 128,-1,26
 386 480 386 480 369 451 c 128,-1,27
 352 422 352 422 330 406 c 128,-1,28
 308 390 308 390 280 383 c 0,29,30
 214 367 214 367 150.5 399.5 c 128,-1,31
 87 432 87 432 71 496 c 0,32,33
 52 576 52 576 83.5 634.5 c 128,-1,34
 115 693 115 693 176 720 c 0,35,36
 199 730 199 730 222.5 733.5 c 128,-1,37
 246 737 246 737 268 734 c 128,-1,38
 290 731 290 731 310 722 c 128,-1,39
 330 713 330 713 346 696 c 128,-1,40
 362 679 362 679 372 656 c 1,20,21
EndSplineSet
Validated: 41
EndChar

StartChar: plusminus
Encoding: 177 177 96
Width: 1000
Flags: W
LayerCount: 2
Fore
SplineSet
418.5 837 m 128,-1,1
 402 838 402 838 389.5 827 c 128,-1,2
 377 816 377 816 376 800 c 0,3,4
 360 560 360 560 356 358 c 128,-1,5
 352 156 352 156 359 87 c 0,6,7
 360 71 360 71 373 60 c 128,-1,8
 386 49 386 49 402 50 c 128,-1,9
 418 51 418 51 429 64 c 128,-1,10
 440 77 440 77 439 93 c 0,11,12
 432 154 432 154 436 356.5 c 128,-1,13
 440 559 440 559 456 795 c 0,14,15
 457 811 457 811 446 823.5 c 128,-1,0
 435 836 435 836 418.5 837 c 128,-1,1
2.5 442.5 m 128,-1,17
 2 426 2 426 13.5 414 c 128,-1,18
 25 402 25 402 41 402 c 0,19,20
 82 400 82 400 186.5 402.5 c 128,-1,21
 291 405 291 405 390 408 c 128,-1,22
 489 411 489 411 596 409.5 c 128,-1,23
 703 408 703 408 760 400 c 0,24,25
 776 397 776 397 789.5 407 c 128,-1,26
 803 417 803 417 805 433 c 0,27,28
 807 444 807 444 803 454 c 128,-1,29
 799 464 799 464 790.5 470.5 c 128,-1,30
 782 477 782 477 772 479 c 0,31,32
 709 488 709 488 598 490 c 128,-1,33
 487 492 487 492 387.5 489 c 128,-1,34
 288 486 288 486 184.5 483 c 128,-1,35
 81 480 81 480 43 482 c 0,36,37
 27 482 27 482 15 470.5 c 128,-1,16
 3 459 3 459 2.5 442.5 c 128,-1,17
-39 -92 m 0,38,39
 -39 -108 -39 -108 -27.5 -120 c 128,-1,40
 -16 -132 -16 -132 0 -133 c 0,41,42
 41 -134 41 -134 145.5 -131.5 c 128,-1,43
 250 -129 250 -129 349 -126 c 128,-1,44
 448 -123 448 -123 555 -125 c 128,-1,45
 662 -127 662 -127 719 -135 c 0,46,47
 735 -137 735 -137 748.5 -127 c 128,-1,48
 762 -117 762 -117 764.5 -101 c 128,-1,49
 767 -85 767 -85 757 -71.5 c 128,-1,50
 747 -58 747 -58 731 -56 c 0,51,52
 668 -47 668 -47 557 -45 c 128,-1,53
 446 -43 446 -43 346.5 -46 c 128,-1,54
 247 -49 247 -49 143.5 -51.5 c 128,-1,55
 40 -54 40 -54 2 -53 c 0,56,57
 -8 -53 -8 -53 -17.5 -58 c 128,-1,58
 -27 -63 -27 -63 -32.5 -72 c 128,-1,59
 -38 -81 -38 -81 -39 -92 c 0,38,39
EndSplineSet
Validated: 37
EndChar

StartChar: uni00B2
Encoding: 178 178 97
Width: 400
Flags: W
LayerCount: 2
Fore
SplineSet
21 665 m 128,-1,1
 26 666 26 666 29.5 670 c 128,-1,2
 33 674 33 674 32 679 c 0,3,4
 31 688 31 688 31 696 c 0,5,6
 31 732 31 732 46 753.5 c 128,-1,7
 61 775 61 775 75 775 c 0,8,9
 81 775 81 775 86 771 c 128,-1,10
 91 767 91 767 96 753 c 128,-1,11
 101 739 101 739 101 717 c 0,12,13
 98 698 98 698 81.5 670 c 128,-1,14
 65 642 65 642 46.5 617.5 c 128,-1,15
 28 593 28 593 13.5 556.5 c 128,-1,16
 -1 520 -1 520 0 484 c 0,17,18
 0 479 0 479 4 475.5 c 128,-1,19
 8 472 8 472 13.5 472 c 128,-1,20
 19 472 19 472 22.5 476 c 128,-1,21
 26 480 26 480 26 485 c 0,22,23
 24 516 24 516 38.5 548 c 128,-1,24
 53 580 53 580 71 603.5 c 128,-1,25
 89 627 89 627 106 657.5 c 128,-1,26
 123 688 123 688 126 715 c 2,27,-1
 126 716 l 2,28,29
 126 755 126 755 112.5 777.5 c 128,-1,30
 99 800 99 800 75 800 c 0,31,32
 47 800 47 800 26.5 770 c 128,-1,33
 6 740 6 740 6 696 c 0,34,35
 6 686 6 686 7 676 c 0,36,37
 8 671 8 671 12 667.5 c 128,-1,0
 16 664 16 664 21 665 c 128,-1,1
0 487 m 0,38,39
 -1 482 -1 482 2 477.5 c 128,-1,40
 5 473 5 473 10 472 c 0,41,42
 19 470 19 470 43 472.5 c 128,-1,43
 67 475 67 475 88.5 475 c 128,-1,44
 110 475 110 475 118 468 c 0,45,46
 127 460 127 460 135.5 469 c 128,-1,47
 144 478 144 478 135 487 c 0,48,49
 121 500 121 500 94.5 502 c 128,-1,50
 68 504 68 504 41.5 500.5 c 128,-1,51
 15 497 15 497 15 497 c 2,52,53
 3 498 3 498 0 487 c 0,38,39
EndSplineSet
Validated: 37
EndChar

StartChar: uni00B3
Encoding: 179 179 98
Width: 320
Flags: W
LayerCount: 2
Fore
SplineSet
23.5 707 m 128,-1,1
 35 712 35 712 30 723 c 0,2,3
 27 729 27 729 27 735 c 0,4,5
 26 745 26 745 32 754 c 128,-1,6
 38 763 38 763 48 769 c 128,-1,7
 58 775 58 775 69 775 c 0,8,9
 109 777 109 777 112 718 c 0,10,11
 113 691 113 691 97 670 c 128,-1,12
 81 649 81 649 55 640 c 2,13,-1
 -14 616 l 1,14,-1
 59 616 l 2,15,16
 62 616 62 616 65 615 c 0,17,18
 87 607 87 607 105.5 566.5 c 128,-1,19
 124 526 124 526 115 502 c 0,20,21
 100 465 100 465 9 503 c 0,22,23
 -2 507 -2 507 -6.5 496 c 128,-1,24
 -11 485 -11 485 0 480 c 0,25,26
 113 433 113 433 138 493 c 0,27,28
 150 524 150 524 133.5 566 c 128,-1,29
 117 608 117 608 89 629 c 1,30,31
 139 662 139 662 136 718 c 0,32,33
 135 759 135 759 115.5 780 c 128,-1,34
 96 801 96 801 68 800 c 0,35,36
 42 799 42 799 21.5 780 c 128,-1,37
 1 761 1 761 2 734 c 0,38,39
 3 723 3 723 7 713 c 0,40,0
 12 702 12 702 23.5 707 c 128,-1,1
EndSplineSet
Validated: 41
EndChar

StartChar: acute
Encoding: 180 180 99
Width: 472
Flags: W
LayerCount: 2
Fore
SplineSet
273.5 742 m 128,-1,1
 260 752 260 752 243.5 749.5 c 128,-1,2
 227 747 227 747 217 734 c 0,3,4
 165 664 165 664 126 605 c 128,-1,5
 87 546 87 546 52 488.5 c 128,-1,6
 17 431 17 431 2 408 c 0,7,8
 -7 395 -7 395 -4 378.5 c 128,-1,9
 -1 362 -1 362 13 353 c 128,-1,10
 27 344 27 344 43 347.5 c 128,-1,11
 59 351 59 351 68 365 c 0,12,13
 85 390 85 390 119.5 446.5 c 128,-1,14
 154 503 154 503 192.5 560.5 c 128,-1,15
 231 618 231 618 282 686 c 0,16,17
 291 699 291 699 289 715.5 c 128,-1,0
 287 732 287 732 273.5 742 c 128,-1,1
186 759.5 m 128,-1,19
 171 766 171 766 155.5 760 c 128,-1,20
 140 754 140 754 133 739 c 0,21,22
 94 650 94 650 69 586.5 c 128,-1,23
 44 523 44 523 37 499 c 128,-1,24
 30 475 30 475 21.5 452 c 128,-1,25
 13 429 13 429 0 406 c 0,26,27
 -8 392 -8 392 -3.5 375.5 c 128,-1,28
 1 359 1 359 15.5 351.5 c 128,-1,29
 30 344 30 344 46 348.5 c 128,-1,30
 62 353 62 353 70 367 c 0,31,32
 91 404 91 404 100 432 c 128,-1,33
 109 460 109 460 133.5 528.5 c 128,-1,34
 158 597 158 597 207 707 c 0,35,36
 213 722 213 722 207 737.5 c 128,-1,18
 201 753 201 753 186 759.5 c 128,-1,19
282 732 m 0,37,38
 282 739 282 739 280 745 c 0,39,40
 269 779 269 779 239 792 c 128,-1,41
 209 805 209 805 179 796 c 0,42,43
 147 786 147 786 128 755.5 c 128,-1,44
 109 725 109 725 118 685 c 0,45,46
 127 649 127 649 159.5 633 c 128,-1,47
 192 617 192 617 224 625 c 256,48,49
 256 633 256 633 272.5 663 c 128,-1,50
 289 693 289 693 282 732 c 0,37,38
210 729 m 0,51,52
 211 726 211 726 211 725 c 0,53,54
 220 695 220 695 208 693 c 0,55,56
 207 693 207 693 207 693 c 2,57,58
 203 692 203 692 199.5 692.5 c 128,-1,59
 196 693 196 693 193.5 694.5 c 128,-1,60
 191 696 191 696 189 698 c 128,-1,61
 187 700 187 700 186 702 c 0,62,63
 184 714 184 714 189 721 c 0,64,65
 192 725 192 725 197 727.5 c 128,-1,66
 202 730 202 730 205.5 729.5 c 128,-1,67
 209 729 209 729 210 729 c 0,51,52
245 734 m 1,68,69
 261 678 261 678 223 661 c 0,70,71
 193 649 193 649 168 670 c 0,72,73
 156 679 156 679 152 694 c 0,74,75
 142 735 142 735 177 756 c 0,76,77
 207 775 207 775 232 757 c 0,78,79
 242 748 242 748 247 734 c 1,80,-1
 245 734 l 1,68,69
EndSplineSet
Validated: 37
EndChar

StartChar: cedilla
Encoding: 184 184 100
Width: 536
Flags: W
LayerCount: 2
Fore
SplineSet
273.5 742 m 128,-1,1
 260 752 260 752 243.5 749.5 c 128,-1,2
 227 747 227 747 217 734 c 0,3,4
 165 664 165 664 126 605 c 128,-1,5
 87 546 87 546 52 488.5 c 128,-1,6
 17 431 17 431 2 408 c 0,7,8
 -7 395 -7 395 -4 378.5 c 128,-1,9
 -1 362 -1 362 13 353 c 128,-1,10
 27 344 27 344 43 347.5 c 128,-1,11
 59 351 59 351 68 365 c 0,12,13
 85 390 85 390 119.5 446.5 c 128,-1,14
 154 503 154 503 192.5 560.5 c 128,-1,15
 231 618 231 618 282 686 c 0,16,17
 291 699 291 699 289 715.5 c 128,-1,0
 287 732 287 732 273.5 742 c 128,-1,1
186 759.5 m 128,-1,19
 171 766 171 766 155.5 760 c 128,-1,20
 140 754 140 754 133 739 c 0,21,22
 94 650 94 650 69 586.5 c 128,-1,23
 44 523 44 523 37 499 c 128,-1,24
 30 475 30 475 21.5 452 c 128,-1,25
 13 429 13 429 0 406 c 0,26,27
 -8 392 -8 392 -3.5 375.5 c 128,-1,28
 1 359 1 359 15.5 351.5 c 128,-1,29
 30 344 30 344 46 348.5 c 128,-1,30
 62 353 62 353 70 367 c 0,31,32
 91 404 91 404 100 432 c 128,-1,33
 109 460 109 460 133.5 528.5 c 128,-1,34
 158 597 158 597 207 707 c 0,35,36
 213 722 213 722 207 737.5 c 128,-1,18
 201 753 201 753 186 759.5 c 128,-1,19
282 732 m 0,37,38
 282 739 282 739 280 745 c 0,39,40
 269 779 269 779 239 792 c 128,-1,41
 209 805 209 805 179 796 c 0,42,43
 147 786 147 786 128 755.5 c 128,-1,44
 109 725 109 725 118 685 c 0,45,46
 127 649 127 649 159.5 633 c 128,-1,47
 192 617 192 617 224 625 c 256,48,49
 256 633 256 633 272.5 663 c 128,-1,50
 289 693 289 693 282 732 c 0,37,38
210 729 m 0,51,52
 211 726 211 726 211 725 c 0,53,54
 220 695 220 695 208 693 c 0,55,56
 207 693 207 693 207 693 c 2,57,58
 203 692 203 692 199.5 692.5 c 128,-1,59
 196 693 196 693 193.5 694.5 c 128,-1,60
 191 696 191 696 189 698 c 128,-1,61
 187 700 187 700 186 702 c 0,62,63
 184 714 184 714 189 721 c 0,64,65
 192 725 192 725 197 727.5 c 128,-1,66
 202 730 202 730 205.5 729.5 c 128,-1,67
 209 729 209 729 210 729 c 0,51,52
245 734 m 1,68,69
 261 678 261 678 223 661 c 0,70,71
 193 649 193 649 168 670 c 0,72,73
 156 679 156 679 152 694 c 0,74,75
 142 735 142 735 177 756 c 0,76,77
 207 775 207 775 232 757 c 0,78,79
 242 748 242 748 247 734 c 1,80,-1
 245 734 l 1,68,69
EndSplineSet
Validated: 37
EndChar

StartChar: uni00B9
Encoding: 185 185 101
Width: 240
Flags: W
LayerCount: 2
Fore
SplineSet
3.5 689.5 m 128,-1,1
 14 682 14 682 21 693 c 0,2,3
 45 729 45 729 65 751 c 1,4,5
 57 646 57 646 64 489 c 0,6,7
 64 485 64 485 66 482.5 c 128,-1,8
 68 480 68 480 71 478.5 c 128,-1,9
 74 477 74 477 77 477 c 0,10,11
 82 477 82 477 85.5 481 c 128,-1,12
 89 485 89 485 89 490 c 0,13,14
 81 674 81 674 94 791 c 2,15,-1
 100 838 l 1,16,-1
 71 800 l 2,17,18
 55 778 55 778 41 763 c 128,-1,19
 27 748 27 748 0 707 c 0,20,0
 -7 697 -7 697 3.5 689.5 c 128,-1,1
EndSplineSet
Validated: 41
EndChar

StartChar: guillemotright
Encoding: 187 187 102
Width: 920
Flags: W
LayerCount: 2
Fore
SplineSet
-13 230.5 m 128,-1,1
 -5 217 -5 217 10 213.5 c 128,-1,2
 25 210 25 210 38 217 c 0,3,4
 366 412 366 412 488 476 c 0,5,6
 501 483 501 483 506 498 c 128,-1,7
 511 513 511 513 503.5 526.5 c 128,-1,8
 496 540 496 540 481 544.5 c 128,-1,9
 466 549 466 549 453 542 c 0,10,11
 330 477 330 477 0 282 c 0,12,13
 -13 274 -13 274 -17 259 c 128,-1,0
 -21 244 -21 244 -13 230.5 c 128,-1,1
-13 787 m 128,-1,15
 -21 774 -21 774 -17 758.5 c 128,-1,16
 -13 743 -13 743 0 735 c 0,17,18
 330 540 330 540 453 476 c 0,19,20
 466 468 466 468 481 473 c 128,-1,21
 496 478 496 478 503.5 491.5 c 128,-1,22
 511 505 511 505 506 520 c 128,-1,23
 501 535 501 535 488 542 c 0,24,25
 366 606 366 606 38 800 c 0,26,27
 25 808 25 808 10 804 c 128,-1,14
 -5 800 -5 800 -13 787 c 128,-1,15
226 221 m 128,-1,29
 234 208 234 208 249 204 c 128,-1,30
 264 200 264 200 278 208 c 0,31,32
 606 402 606 402 727 466 c 0,33,34
 741 473 741 473 745.5 488 c 128,-1,35
 750 503 750 503 743 516.5 c 128,-1,36
 736 530 736 530 721 534.5 c 128,-1,37
 706 539 706 539 692 532 c 0,38,39
 569 467 569 467 239 272 c 0,40,41
 226 265 226 265 222 249.5 c 128,-1,28
 218 234 218 234 226 221 c 128,-1,29
226 777 m 128,-1,43
 218 764 218 764 222 749 c 128,-1,44
 226 734 226 734 239 726 c 0,45,46
 569 531 569 531 692 466 c 0,47,48
 706 459 706 459 721 463.5 c 128,-1,49
 736 468 736 468 743 481.5 c 128,-1,50
 750 495 750 495 745.5 510 c 128,-1,51
 741 525 741 525 727 532 c 0,52,53
 606 596 606 596 278 790 c 0,54,55
 264 798 264 798 249 794 c 128,-1,42
 234 790 234 790 226 777 c 128,-1,43
EndSplineSet
Validated: 5
EndChar

StartChar: odieresis
Encoding: 246 246 103
Width: 792
Flags: W
LayerCount: 2
Fore
SplineSet
190 724 m 1,0,1
 198 714 198 714 199 698 c 0,2,3
 199 689 199 689 197 685 c 0,4,5
 193 682 193 682 182 680 c 0,6,7
 175 678 175 678 171 677.5 c 128,-1,8
 167 677 167 677 164.5 679.5 c 128,-1,9
 162 682 162 682 161.5 684 c 128,-1,10
 161 686 161 686 160 694 c 0,11,12
 158 705 158 705 159 718 c 1,13,14
 170 724 170 724 190 724 c 1,0,1
191 800 m 0,15,16
 122 800 122 800 95 759 c 0,17,18
 87 747 87 747 85 732 c 0,19,20
 80 705 80 705 86 679 c 0,21,22
 93 643 93 643 122.5 619.5 c 128,-1,23
 152 596 152 596 198 606 c 0,24,25
 239 615 239 615 257 638 c 0,26,27
 274 661 274 661 274 698 c 0,28,29
 274 736 274 736 253 768.5 c 128,-1,30
 232 801 232 801 191 800 c 0,15,16
372 721 m 1,31,32
 381 711 381 711 381 695 c 0,33,34
 381 686 381 686 380 682 c 0,35,36
 375 679 375 679 365 677 c 0,37,38
 349 675 349 675 347 677 c 128,-1,39
 345 679 345 679 342 691 c 0,40,41
 340 702 340 702 341 715 c 1,42,43
 352 721 352 721 372 721 c 1,31,32
374 797 m 0,44,45
 304 797 304 797 277 756 c 0,46,47
 269 744 269 744 267 729 c 0,48,49
 263 702 263 702 268 676 c 0,50,51
 275 641 275 641 304.5 617 c 128,-1,52
 334 593 334 593 380 603 c 0,53,54
 421 612 421 612 439 636 c 0,55,56
 457 658 457 658 456 696 c 0,57,58
 456 733 456 733 435 765.5 c 128,-1,59
 414 798 414 798 374 797 c 0,44,45
555 363 m 1,60,61
 560 376 560 376 556 388 c 0,62,63
 541 435 541 435 514 470.5 c 128,-1,64
 487 506 487 506 453 526.5 c 128,-1,65
 419 547 419 547 379.5 556.5 c 128,-1,66
 340 566 340 566 299.5 564 c 128,-1,67
 259 562 259 562 220 550 c 0,68,69
 167 533 167 533 122 499 c 128,-1,70
 77 465 77 465 45 416 c 128,-1,71
 13 367 13 367 3.5 304.5 c 128,-1,72
 -6 242 -6 242 11 169 c 0,73,74
 23 121 23 121 51 82 c 128,-1,75
 79 43 79 43 116 18.5 c 128,-1,76
 153 -6 153 -6 197.5 -21.5 c 128,-1,77
 242 -37 242 -37 287 -37.5 c 128,-1,78
 332 -38 332 -38 376 -29 c 0,79,80
 447 -11 447 -11 495 38.5 c 128,-1,81
 543 88 543 88 563 170 c 128,-1,82
 583 252 583 252 555 363 c 1,60,61
476 387 m 1,83,84
 473 376 473 376 476 366 c 0,85,86
 478 357 478 357 481 348 c 0,87,88
 495 291 495 291 495.5 243.5 c 128,-1,89
 496 196 496 196 485.5 163 c 128,-1,90
 475 130 475 130 455 105 c 128,-1,91
 435 80 435 80 411 66 c 128,-1,92
 387 52 387 52 357 44 c 0,93,94
 316 33 316 33 272 39.5 c 128,-1,95
 228 46 228 46 190 63.5 c 128,-1,96
 152 81 152 81 123.5 114 c 128,-1,97
 95 147 95 147 84 187 c 0,98,99
 59 286 59 286 99 359.5 c 128,-1,100
 139 433 139 433 217 468 c 0,101,102
 269 489 269 489 318.5 489.5 c 128,-1,103
 368 490 368 490 411 463.5 c 128,-1,104
 454 437 454 437 476 387 c 1,83,84
EndSplineSet
Validated: 37
EndChar

StartChar: adieresis
Encoding: 228 228 104
Width: 736
Flags: W
LayerCount: 2
Fore
SplineSet
132 745 m 1,0,1
 140 735 140 735 141 719 c 0,2,3
 141 710 141 710 139 706 c 0,4,5
 135 703 135 703 124 701 c 0,6,7
 117 699 117 699 113 698.5 c 128,-1,8
 109 698 109 698 106.5 700.5 c 128,-1,9
 104 703 104 703 103.5 705 c 128,-1,10
 103 707 103 707 102 715 c 0,11,12
 100 726 100 726 101 739 c 1,13,14
 112 745 112 745 132 745 c 1,0,1
133 821 m 0,15,16
 64 821 64 821 37 780 c 0,17,18
 29 768 29 768 27 753 c 0,19,20
 22 726 22 726 28 700 c 0,21,22
 35 664 35 664 64.5 640.5 c 128,-1,23
 94 617 94 617 140 627 c 0,24,25
 181 636 181 636 199 659 c 0,26,27
 216 682 216 682 216 719 c 0,28,29
 216 757 216 757 195 789.5 c 128,-1,30
 174 822 174 822 133 821 c 0,15,16
314 742 m 1,31,32
 323 732 323 732 323 716 c 0,33,34
 323 707 323 707 322 703 c 0,35,36
 317 700 317 700 307 698 c 0,37,38
 291 696 291 696 289 698 c 128,-1,39
 287 700 287 700 284 712 c 0,40,41
 282 723 282 723 283 736 c 1,42,43
 294 742 294 742 314 742 c 1,31,32
316 818 m 0,44,45
 246 818 246 818 219 777 c 0,46,47
 211 765 211 765 209 750 c 0,48,49
 205 723 205 723 210 697 c 0,50,51
 217 662 217 662 246.5 638 c 128,-1,52
 276 614 276 614 322 624 c 0,53,54
 363 633 363 633 381 657 c 0,55,56
 399 679 399 679 398 717 c 0,57,58
 398 754 398 754 377 786.5 c 128,-1,59
 356 819 356 819 316 818 c 0,44,45
399 81 m 1,60,61
 401 78 401 78 406.5 59 c 128,-1,62
 412 40 412 40 418 26 c 128,-1,63
 424 12 424 12 438.5 0.5 c 128,-1,64
 453 -11 453 -11 474 -9 c 0,65,66
 494 -7 494 -7 504 5 c 128,-1,67
 514 17 514 17 514.5 37 c 128,-1,68
 515 57 515 57 512.5 75 c 128,-1,69
 510 93 510 93 505 117 c 128,-1,70
 500 141 500 141 499 150 c 0,71,72
 497 164 497 164 487 173.5 c 128,-1,73
 477 183 477 183 463 184 c 1,74,75
 484 237 484 237 481.5 295.5 c 128,-1,76
 479 354 479 354 461 405.5 c 128,-1,77
 443 457 443 457 403.5 499 c 128,-1,78
 364 541 364 541 311 560 c 0,79,80
 176 608 176 608 13 492 c 0,81,82
 0 483 0 483 -2.5 467.5 c 128,-1,83
 -5 452 -5 452 4 439.5 c 128,-1,84
 13 427 13 427 28.5 424 c 128,-1,85
 44 421 44 421 56 430 c 0,86,87
 176 516 176 516 270 493 c 0,88,89
 318 481 318 481 353.5 440 c 128,-1,90
 389 399 389 399 400 345 c 128,-1,91
 411 291 411 291 399 232 c 1,92,93
 276 406 276 406 115 378 c 0,94,95
 79 372 79 372 53 349.5 c 128,-1,96
 27 327 27 327 16 296.5 c 128,-1,97
 5 266 5 266 1 231 c 128,-1,98
 -3 196 -3 196 4 166 c 0,99,100
 10 131 10 131 25 99.5 c 128,-1,101
 40 68 40 68 63.5 41 c 128,-1,102
 87 14 87 14 122 0 c 128,-1,103
 157 -14 157 -14 199 -9 c 0,104,105
 323 4 323 4 399 81 c 1,60,61
361 152 m 1,106,107
 304 77 304 77 191 66 c 0,108,109
 148 61 148 61 118 93 c 128,-1,110
 88 125 88 125 79 178 c 0,111,112
 70 229 70 229 85 264 c 128,-1,113
 100 299 100 299 128 304 c 0,114,115
 256 326 256 326 361 152 c 1,106,107
EndSplineSet
Validated: 37
EndChar

StartChar: udieresis
Encoding: 252 252 105
Width: 788
Flags: W
LayerCount: 2
Fore
SplineSet
190 724 m 1,0,1
 198 714 198 714 199 698 c 0,2,3
 199 689 199 689 197 685 c 0,4,5
 193 682 193 682 182 680 c 0,6,7
 175 678 175 678 171 677.5 c 128,-1,8
 167 677 167 677 164.5 679.5 c 128,-1,9
 162 682 162 682 161.5 684 c 128,-1,10
 161 686 161 686 160 694 c 0,11,12
 158 705 158 705 159 718 c 1,13,14
 170 724 170 724 190 724 c 1,0,1
191 800 m 0,15,16
 122 800 122 800 95 759 c 0,17,18
 87 747 87 747 85 732 c 0,19,20
 80 705 80 705 86 679 c 0,21,22
 93 643 93 643 122.5 619.5 c 128,-1,23
 152 596 152 596 198 606 c 0,24,25
 239 615 239 615 257 638 c 0,26,27
 274 661 274 661 274 698 c 0,28,29
 274 736 274 736 253 768.5 c 128,-1,30
 232 801 232 801 191 800 c 0,15,16
372 721 m 1,31,32
 381 711 381 711 381 695 c 0,33,34
 381 686 381 686 380 682 c 0,35,36
 375 679 375 679 365 677 c 0,37,38
 349 675 349 675 347 677 c 128,-1,39
 345 679 345 679 342 691 c 0,40,41
 340 702 340 702 341 715 c 1,42,43
 352 721 352 721 372 721 c 1,31,32
374 797 m 0,44,45
 304 797 304 797 277 756 c 0,46,47
 269 744 269 744 267 729 c 0,48,49
 263 702 263 702 268 676 c 0,50,51
 275 641 275 641 304.5 617 c 128,-1,52
 334 593 334 593 380 603 c 0,53,54
 421 612 421 612 439 636 c 0,55,56
 457 658 457 658 456 696 c 0,57,58
 456 733 456 733 435 765.5 c 128,-1,59
 414 798 414 798 374 797 c 0,44,45
559.5 -19 m 128,-1,61
 543 -24 543 -24 526.5 -18.5 c 128,-1,62
 510 -13 510 -13 504 0 c 0,63,64
 486 35 486 35 476 77 c 128,-1,65
 466 119 466 119 464.5 157 c 128,-1,66
 463 195 463 195 463.5 236.5 c 128,-1,67
 464 278 464 278 466.5 312.5 c 128,-1,68
 469 347 469 347 468.5 381 c 128,-1,69
 468 415 468 415 463 439 c 0,70,71
 460 452 460 452 470.5 463 c 128,-1,72
 481 474 481 474 498.5 476 c 128,-1,73
 516 478 516 478 530.5 470 c 128,-1,74
 545 462 545 462 548 449 c 0,75,76
 556 416 556 416 556.5 369.5 c 128,-1,77
 557 323 557 323 555 279.5 c 128,-1,78
 553 236 553 236 552.5 191 c 128,-1,79
 552 146 552 146 559.5 101.5 c 128,-1,80
 567 57 567 57 584 23 c 0,81,82
 591 11 591 11 583.5 -1.5 c 128,-1,60
 576 -14 576 -14 559.5 -19 c 128,-1,61
580 106 m 0,83,84
 584 100 584 100 584 93.5 c 128,-1,85
 584 87 584 87 581.5 81 c 128,-1,86
 579 75 579 75 573.5 70 c 128,-1,87
 568 65 568 65 560 62 c 0,88,89
 455 23 455 23 370.5 4.5 c 128,-1,90
 286 -14 286 -14 227 -16 c 128,-1,91
 168 -18 168 -18 126 0 c 128,-1,92
 84 18 84 18 59 40.5 c 128,-1,93
 34 63 34 63 22.5 106.5 c 128,-1,94
 11 150 11 150 8 185 c 128,-1,95
 5 220 5 220 12 277 c 128,-1,96
 19 334 19 334 26 370.5 c 128,-1,97
 33 407 33 407 46 465 c 0,98,99
 48 478 48 478 63 486 c 128,-1,100
 78 494 78 494 95 491.5 c 128,-1,101
 112 489 112 489 122.5 478 c 128,-1,102
 133 467 133 467 131 454 c 0,103,104
 91 277 91 277 86 242 c 0,105,106
 68 107 68 107 127 67 c 0,107,108
 216 7 216 7 522 120 c 0,109,110
 538 126 538 126 555 122 c 128,-1,111
 572 118 572 118 580 106 c 0,83,84
EndSplineSet
Validated: 37
EndChar
